<svg version="1.1" viewBox="0.0 0.0 960.0 540.0" fill="none" stroke="none" stroke-linecap="square" stroke-miterlimit="10" xmlns:xlink="http://www.w3.org/1999/xlink" xmlns="http://www.w3.org/2000/svg"><clipPath id="g2a24603c1d3_0_59.0"><path d="m0 0l960.0 0l0 540.0l-960.0 0l0 -540.0z" clip-rule="nonzero"/></clipPath><g clip-path="url(#g2a24603c1d3_0_59.0)"><path fill="#ffffff" d="m0 0l960.0 0l0 540.0l-960.0 0z" fill-rule="evenodd"/><path fill="#000000" fill-opacity="0.0" d="m155.40683 244.20735l0 -64.0" fill-rule="evenodd"/><path stroke="#cccccc" stroke-width="1.0" stroke-linejoin="round" stroke-linecap="butt" d="m155.40683 244.20735l0 -60.57292" fill-rule="evenodd"/><path fill="#cccccc" stroke="#cccccc" stroke-width="1.0" stroke-linecap="butt" d="m155.40683 183.63443l1.1245728 1.124588l-1.1245728 -3.0897675l-1.124588 3.0897675z" fill-rule="evenodd"/><path fill="#000000" fill-opacity="0.0" d="m155.32808 243.99475l39.84253 27.149597" fill-rule="evenodd"/><path stroke="#cccccc" stroke-width="1.0" stroke-linejoin="round" stroke-linecap="butt" d="m155.32808 243.99475l37.010437 25.219788" fill-rule="evenodd"/><path fill="#cccccc" stroke="#cccccc" stroke-width="1.0" stroke-linecap="butt" d="m192.33853 269.2145l-1.5626068 0.29608154l3.1865997 0.8105469l-1.9200592 -2.66922z" fill-rule="evenodd"/><path fill="#000000" fill-opacity="0.0" d="m155.40945 243.89764l54.771652 -15.244095" fill-rule="evenodd"/><path stroke="#cccccc" stroke-width="1.0" stroke-linejoin="round" stroke-linecap="butt" d="m155.40945 243.89764l51.470062 -14.325195" fill-rule="evenodd"/><path fill="#cccccc" stroke="#cccccc" stroke-width="1.0" stroke-linecap="butt" d="m206.8795 229.57245l-0.78186035 1.3849335l2.6750946 -1.9118652l-3.2781677 -0.25494385z" fill-rule="evenodd"/><path fill="#000000" fill-opacity="0.0" d="m130.85039 167.70341l23.05513 0l0 32.314957l-23.05513 0z" fill-rule="evenodd"/><path fill="#595959" d="m145.13164 182.28716l0 0.40625l-3.390625 3.796875l3.0625 0l0 -0.625q0 -0.15625 0.0625 -0.21875q0.0625 -0.078125 0.15625 -0.078125q0.109375 0 0.171875 0.078125q0.0625 0.0625 0.0625 0.21875l-0.015625 1.078125l-4.125 0l0 -0.40625l3.375 -3.78125l-2.8125 0l0 0.609375q0 0.15625 -0.0625 0.234375q-0.0625 0.0625 -0.15625 0.0625q-0.109375 0 -0.171875 -0.0625q-0.0625 -0.078125 -0.0625 -0.234375l0 -1.078125l3.90625 0z" fill-rule="nonzero"/><path fill="#000000" fill-opacity="0.0" d="m163.85039 253.20473l23.05513 0l0 32.314957l-23.05513 0z" fill-rule="evenodd"/><path fill="#595959" d="m176.45976 270.00723l2.0625 1.984375q0.203125 0 0.25 0.03125q0.0625 0.015625 0.09375 0.078125q0.046875 0.046875 0.046875 0.125q0 0.09375 -0.0625 0.15625q-0.0625 0.0625 -0.234375 0.0625l-1.453125 0q-0.171875 0 -0.25 -0.0625q-0.0625 -0.0625 -0.0625 -0.15625q0 -0.109375 0.0625 -0.171875q0.078125 -0.0625 0.25 -0.0625l0.75 0l-1.765625 -1.671875l-1.734375 1.671875l0.75 0q0.15625 0 0.21875 0.0625q0.078125 0.0625 0.078125 0.171875q0 0.09375 -0.078125 0.15625q-0.0625 0.0625 -0.21875 0.0625l-1.46875 0q-0.15625 0 -0.234375 -0.0625q-0.0625 -0.0625 -0.0625 -0.15625q0 -0.078125 0.03125 -0.125q0.046875 -0.0625 0.09375 -0.078125q0.046875 -0.03125 0.25 -0.03125l2.078125 -1.984375l-1.84375 -1.75q-0.1875 0 -0.25 -0.015625q-0.046875 -0.03125 -0.09375 -0.09375q-0.03125 -0.0625 -0.03125 -0.125q0 -0.09375 0.0625 -0.15625q0.078125 -0.078125 0.25 -0.078125l1.234375 0q0.15625 0 0.21875 0.078125q0.078125 0.0625 0.078125 0.15625q0 0.09375 -0.078125 0.171875q-0.0625 0.0625 -0.21875 0.0625l-0.546875 0l1.515625 1.453125l1.53125 -1.453125l-0.53125 0q-0.15625 0 -0.234375 -0.0625q-0.078125 -0.078125 -0.078125 -0.171875q0 -0.09375 0.0625 -0.15625q0.078125 -0.078125 0.25 -0.078125l1.234375 0q0.15625 0 0.21875 0.078125q0.078125 0.0625 0.078125 0.15625q0 0.0625 -0.046875 0.125q-0.03125 0.0625 -0.09375 0.09375q-0.046875 0.015625 -0.234375 0.015625l-1.84375 1.75z" fill-rule="nonzero"/><path fill="#000000" fill-opacity="0.0" d="m185.34908 201.70866l23.05513 0l0 32.314957l-23.05513 0z" fill-rule="evenodd"/><path fill="#595959" d="m197.6772 220.94865l-2.09375 -4.1875l-0.140625 0q-0.15625 0 -0.234375 -0.0625q-0.0625 -0.078125 -0.0625 -0.171875q0 -0.0625 0.03125 -0.125q0.046875 -0.0625 0.09375 -0.078125q0.0625 -0.03125 0.171875 -0.03125l1.25 0q0.15625 0 0.21875 0.078125q0.078125 0.0625 0.078125 0.15625q0 0.09375 -0.078125 0.171875q-0.0625 0.0625 -0.21875 0.0625l-0.609375 0l1.84375 3.6875l1.8125 -3.6875l-0.609375 0q-0.15625 0 -0.234375 -0.0625q-0.0625 -0.078125 -0.0625 -0.171875q0 -0.09375 0.0625 -0.15625q0.078125 -0.078125 0.234375 -0.078125l1.234375 0q0.15625 0 0.21875 0.078125q0.078125 0.0625 0.078125 0.15625q0 0.078125 -0.046875 0.140625q-0.03125 0.046875 -0.09375 0.078125q-0.046875 0.015625 -0.296875 0.015625l-2.859375 5.8125l0.703125 0q0.171875 0 0.234375 0.0625q0.0625 0.0625 0.0625 0.15625q0 0.09375 -0.0625 0.15625q-0.0625 0.078125 -0.234375 0.078125l-2.59375 0q-0.15625 0 -0.234375 -0.0625q-0.0625 -0.0625 -0.0625 -0.171875q0 -0.09375 0.0625 -0.15625q0.078125 -0.0625 0.234375 -0.0625l1.40625 0l0.796875 -1.625z" fill-rule="nonzero"/><path fill="#000000" fill-opacity="0.0" d="m72.002625 214.68504l88.0 0l0 45.259842l-88.0 0z" fill-rule="evenodd"/><path fill="#595959" d="m89.063416 229.26878l0 1.140625q0.875 -0.796875 1.3125 -1.015625q0.4375 -0.234375 0.8125 -0.234375q0.40625 0 0.75 0.28125q0.34375 0.265625 0.34375 0.40625q0 0.09375 -0.078125 0.171875q-0.0625 0.0625 -0.15625 0.0625q-0.0625 0 -0.09375 -0.015625q-0.03125 -0.03125 -0.140625 -0.125q-0.1875 -0.1875 -0.328125 -0.25q-0.140625 -0.078125 -0.265625 -0.078125q-0.296875 0 -0.71875 0.234375q-0.421875 0.234375 -1.4375 1.15625l0 2.46875l2.0 0q0.15625 0 0.21875 0.0625q0.078125 0.0625 0.078125 0.171875q0 0.09375 -0.078125 0.15625q-0.0625 0.0625 -0.21875 0.0625l-3.546875 0q-0.15625 0 -0.234375 -0.0625q-0.0625 -0.0625 -0.0625 -0.15625q0 -0.09375 0.0625 -0.15625q0.0625 -0.0625 0.234375 -0.0625l1.09375 0l0 -3.75l-0.828125 0q-0.171875 0 -0.25 -0.0625q-0.0625 -0.078125 -0.0625 -0.171875q0 -0.09375 0.0625 -0.15625q0.078125 -0.078125 0.25 -0.078125l1.28125 0zm9.569824 2.4375l-4.59375 0q0.125 0.875 0.734375 1.40625q0.625 0.53125 1.53125 0.53125q0.5 0 1.046875 -0.15625q0.5625 -0.171875 0.90625 -0.4375q0.109375 -0.09375 0.171875 -0.09375q0.09375 0 0.15625 0.078125q0.0625 0.0625 0.0625 0.15625q0 0.09375 -0.078125 0.171875q-0.265625 0.265625 -0.921875 0.5q-0.65625 0.234375 -1.34375 0.234375q-1.171875 0 -1.953125 -0.75q-0.765625 -0.765625 -0.765625 -1.84375q0 -0.984375 0.71875 -1.6875q0.734375 -0.703125 1.8125 -0.703125q1.109375 0 1.8125 0.71875q0.71875 0.71875 0.703125 1.875zm-0.453125 -0.453125q-0.125 -0.75 -0.703125 -1.21875q-0.578125 -0.46875 -1.359375 -0.46875q-0.796875 0 -1.359375 0.46875q-0.5625 0.453125 -0.703125 1.21875l4.125 0zm4.319824 -1.515625l0 3.734375l1.984375 0q0.15625 0 0.21875 0.0625q0.078125 0.0625 0.078125 0.171875q0 0.09375 -0.078125 0.15625q-0.0625 0.0625 -0.21875 0.0625l-3.53125 0q-0.15625 0 -0.234375 -0.0625q-0.0625 -0.0625 -0.0625 -0.15625q0 -0.109375 0.0625 -0.171875q0.078125 -0.0625 0.234375 -0.0625l1.09375 0l0 -3.734375l-0.984375 0q-0.15625 0 -0.234375 -0.0625q-0.0625 -0.078125 -0.0625 -0.171875q0 -0.09375 0.0625 -0.15625q0.078125 -0.078125 0.234375 -0.078125l0.984375 0l0 -0.671875q0 -0.578125 0.453125 -0.984375q0.46875 -0.421875 1.234375 -0.421875q0.640625 0 1.359375 0.109375q0.28125 0.046875 0.328125 0.109375q0.0625 0.046875 0.0625 0.15625q0 0.09375 -0.0625 0.15625q-0.0625 0.0625 -0.171875 0.0625q-0.046875 0 -0.140625 -0.015625q-0.8125 -0.125 -1.375 -0.125q-0.59375 0 -0.921875 0.296875q-0.3125 0.28125 -0.3125 0.65625l0 0.671875l2.109375 0q0.171875 0 0.234375 0.078125q0.078125 0.0625 0.078125 0.15625q0 0.09375 -0.078125 0.171875q-0.0625 0.0625 -0.234375 0.0625l-2.109375 0zm9.335449 1.96875l-4.59375 0q0.125 0.875 0.734375 1.40625q0.625 0.53125 1.53125 0.53125q0.5 0 1.046875 -0.15625q0.5625 -0.171875 0.90625 -0.4375q0.109375 -0.09375 0.171875 -0.09375q0.09375 0 0.15625 0.078125q0.0625 0.0625 0.0625 0.15625q0 0.09375 -0.078125 0.171875q-0.265625 0.265625 -0.921875 0.5q-0.65625 0.234375 -1.34375 0.234375q-1.171875 0 -1.953125 -0.75q-0.765625 -0.765625 -0.765625 -1.84375q0 -0.984375 0.71875 -1.6875q0.734375 -0.703125 1.8125 -0.703125q1.109375 0 1.8125 0.71875q0.71875 0.71875 0.703125 1.875zm-0.453125 -0.453125q-0.125 -0.75 -0.703125 -1.21875q-0.578125 -0.46875 -1.359375 -0.46875q-0.796875 0 -1.359375 0.46875q-0.5625 0.453125 -0.703125 1.21875l4.125 0zm4.085449 -1.984375l0 1.140625q0.875 -0.796875 1.3125 -1.015625q0.4375 -0.234375 0.8125 -0.234375q0.40625 0 0.75 0.28125q0.34375 0.265625 0.34375 0.40625q0 0.09375 -0.078125 0.171875q-0.0625 0.0625 -0.15625 0.0625q-0.0625 0 -0.09375 -0.015625q-0.03125 -0.03125 -0.140625 -0.125q-0.1875 -0.1875 -0.328125 -0.25q-0.140625 -0.078125 -0.265625 -0.078125q-0.296875 0 -0.71875 0.234375q-0.421875 0.234375 -1.4375 1.15625l0 2.46875l2.0 0q0.15625 0 0.21875 0.0625q0.078125 0.0625 0.078125 0.171875q0 0.09375 -0.078125 0.15625q-0.0625 0.0625 -0.21875 0.0625l-3.546875 0q-0.15625 0 -0.234375 -0.0625q-0.0625 -0.0625 -0.0625 -0.15625q0 -0.09375 0.0625 -0.15625q0.0625 -0.0625 0.234375 -0.0625l1.09375 0l0 -3.75l-0.828125 0q-0.171875 0 -0.25 -0.0625q-0.0625 -0.078125 -0.0625 -0.171875q0 -0.09375 0.0625 -0.15625q0.078125 -0.078125 0.25 -0.078125l1.28125 0zm9.569824 2.4375l-4.59375 0q0.125 0.875 0.734375 1.40625q0.625 0.53125 1.53125 0.53125q0.5 0 1.046875 -0.15625q0.5625 -0.171875 0.90625 -0.4375q0.109375 -0.09375 0.171875 -0.09375q0.09375 0 0.15625 0.078125q0.0625 0.0625 0.0625 0.15625q0 0.09375 -0.078125 0.171875q-0.265625 0.265625 -0.921875 0.5q-0.65625 0.234375 -1.34375 0.234375q-1.171875 0 -1.953125 -0.75q-0.765625 -0.765625 -0.765625 -1.84375q0 -0.984375 0.71875 -1.6875q0.734375 -0.703125 1.8125 -0.703125q1.109375 0 1.8125 0.71875q0.71875 0.71875 0.703125 1.875zm-0.453125 -0.453125q-0.125 -0.75 -0.703125 -1.21875q-0.578125 -0.46875 -1.359375 -0.46875q-0.796875 0 -1.359375 0.46875q-0.5625 0.453125 -0.703125 1.21875l4.125 0zm3.1635742 -1.984375l0 0.6875q0.46875 -0.484375 0.84375 -0.65625q0.390625 -0.1875 0.875 -0.1875q0.515625 0 0.9375 0.21875q0.296875 0.15625 0.53125 0.53125q0.25 0.375 0.25 0.765625l0 2.84375l0.390625 0q0.15625 0 0.21875 0.0625q0.078125 0.0625 0.078125 0.171875q0 0.09375 -0.078125 0.15625q-0.0625 0.0625 -0.21875 0.0625l-1.21875 0q-0.15625 0 -0.234375 -0.0625q-0.0625 -0.0625 -0.0625 -0.15625q0 -0.109375 0.0625 -0.171875q0.078125 -0.0625 0.234375 -0.0625l0.375 0l0 -2.765625q0 -0.484375 -0.34375 -0.8125q-0.34375 -0.328125 -0.9375 -0.328125q-0.4375 0 -0.765625 0.1875q-0.328125 0.171875 -0.9375 0.890625l0 2.828125l0.515625 0q0.15625 0 0.21875 0.0625q0.078125 0.0625 0.078125 0.171875q0 0.09375 -0.078125 0.15625q-0.0625 0.0625 -0.21875 0.0625l-1.484375 0q-0.15625 0 -0.234375 -0.0625q-0.0625 -0.0625 -0.0625 -0.15625q0 -0.109375 0.0625 -0.171875q0.078125 -0.0625 0.234375 -0.0625l0.515625 0l0 -3.734375l-0.375 0q-0.171875 0 -0.25 -0.0625q-0.0625 -0.078125 -0.0625 -0.171875q0 -0.09375 0.0625 -0.15625q0.078125 -0.078125 0.25 -0.078125l0.828125 0zm9.944824 0.46875l0 -0.15625q0 -0.171875 0.0625 -0.234375q0.0625 -0.078125 0.15625 -0.078125q0.109375 0 0.171875 0.078125q0.0625 0.0625 0.0625 0.234375l0 1.015625q0 0.171875 -0.0625 0.25q-0.0625 0.0625 -0.171875 0.0625q-0.09375 0 -0.15625 -0.0625q-0.0625 -0.0625 -0.0625 -0.203125q-0.03125 -0.390625 -0.5 -0.734375q-0.46875 -0.34375 -1.265625 -0.34375q-1.015625 0 -1.53125 0.640625q-0.515625 0.625 -0.515625 1.4375q0 0.875 0.5625 1.4375q0.578125 0.5625 1.5 0.5625q0.515625 0 1.0625 -0.1875q0.546875 -0.1875 0.984375 -0.625q0.125 -0.109375 0.203125 -0.109375q0.09375 0 0.15625 0.0625q0.0625 0.0625 0.0625 0.15625q0 0.234375 -0.546875 0.59375q-0.875 0.5625 -1.953125 0.5625q-1.078125 0 -1.78125 -0.6875q-0.703125 -0.703125 -0.703125 -1.765625q0 -1.09375 0.71875 -1.8125q0.71875 -0.71875 1.796875 -0.71875q1.046875 0 1.75 0.625zm7.147949 1.96875l-4.59375 0q0.125 0.875 0.734375 1.40625q0.625 0.53125 1.53125 0.53125q0.5 0 1.046875 -0.15625q0.5625 -0.171875 0.90625 -0.4375q0.109375 -0.09375 0.171875 -0.09375q0.09375 0 0.15625 0.078125q0.0625 0.0625 0.0625 0.15625q0 0.09375 -0.078125 0.171875q-0.265625 0.265625 -0.921875 0.5q-0.65625 0.234375 -1.34375 0.234375q-1.171875 0 -1.953125 -0.75q-0.765625 -0.765625 -0.765625 -1.84375q0 -0.984375 0.71875 -1.6875q0.734375 -0.703125 1.8125 -0.703125q1.109375 0 1.8125 0.71875q0.71875 0.71875 0.703125 1.875zm-0.453125 -0.453125q-0.125 -0.75 -0.703125 -1.21875q-0.578125 -0.46875 -1.359375 -0.46875q-0.796875 0 -1.359375 0.46875q-0.5625 0.453125 -0.703125 1.21875l4.125 0z" fill-rule="nonzero"/><path fill="#595959" d="m102.49994 242.53754l0 3.734375l1.984375 0q0.15625 0 0.21875 0.0625q0.078125 0.0625 0.078125 0.171875q0 0.09375 -0.078125 0.15625q-0.0625 0.0625 -0.21875 0.0625l-3.53125 0q-0.15625 0 -0.234375 -0.0625q-0.0625 -0.0625 -0.0625 -0.15625q0 -0.109375 0.0625 -0.171875q0.078125 -0.0625 0.234375 -0.0625l1.09375 0l0 -3.734375l-0.984375 0q-0.15625 0 -0.234375 -0.0625q-0.0625 -0.078125 -0.0625 -0.171875q0 -0.09375 0.0625 -0.15625q0.078125 -0.078125 0.234375 -0.078125l0.984375 0l0 -0.671875q0 -0.578125 0.453125 -0.984375q0.46875 -0.421875 1.234375 -0.421875q0.640625 0 1.359375 0.109375q0.28125 0.046875 0.328125 0.109375q0.0625 0.046875 0.0625 0.15625q0 0.09375 -0.0625 0.15625q-0.0625 0.0625 -0.171875 0.0625q-0.046875 0 -0.140625 -0.015625q-0.8125 -0.125 -1.375 -0.125q-0.59375 0 -0.921875 0.296875q-0.3125 0.28125 -0.3125 0.65625l0 0.671875l2.109375 0q0.171875 0 0.234375 0.078125q0.078125 0.0625 0.078125 0.15625q0 0.09375 -0.078125 0.171875q-0.0625 0.0625 -0.234375 0.0625l-2.109375 0zm6.366699 -0.46875l0 1.140625q0.875 -0.796875 1.3125 -1.015625q0.4375 -0.234375 0.8125 -0.234375q0.40625 0 0.75 0.28125q0.34375 0.265625 0.34375 0.40625q0 0.09375 -0.078125 0.171875q-0.0625 0.0625 -0.15625 0.0625q-0.0625 0 -0.09375 -0.015625q-0.03125 -0.03125 -0.140625 -0.125q-0.1875 -0.1875 -0.328125 -0.25q-0.140625 -0.078125 -0.265625 -0.078125q-0.296875 0 -0.71875 0.234375q-0.421875 0.234375 -1.4375 1.15625l0 2.46875l2.0 0q0.15625 0 0.21875 0.0625q0.078125 0.0625 0.078125 0.171875q0 0.09375 -0.078125 0.15625q-0.0625 0.0625 -0.21875 0.0625l-3.546875 0q-0.15625 0 -0.234375 -0.0625q-0.0625 -0.0625 -0.0625 -0.15625q0 -0.09375 0.0625 -0.15625q0.0625 -0.0625 0.234375 -0.0625l1.09375 0l0 -3.75l-0.828125 0q-0.171875 0 -0.25 -0.0625q-0.0625 -0.078125 -0.0625 -0.171875q0 -0.09375 0.0625 -0.15625q0.078125 -0.078125 0.25 -0.078125l1.28125 0zm8.429199 4.65625l0 -0.65625q-0.984375 0.828125 -2.09375 0.828125q-0.8125 0 -1.265625 -0.40625q-0.453125 -0.40625 -0.453125 -1.0q0 -0.65625 0.59375 -1.140625q0.609375 -0.5 1.75 -0.5q0.3125 0 0.671875 0.046875q0.375 0.03125 0.796875 0.125l0 -0.734375q0 -0.375 -0.34375 -0.640625q-0.34375 -0.28125 -1.03125 -0.28125q-0.515625 0 -1.46875 0.3125q-0.171875 0.046875 -0.21875 0.046875q-0.09375 0 -0.15625 -0.0625q-0.0625 -0.0625 -0.0625 -0.15625q0 -0.09375 0.0625 -0.140625q0.0625 -0.09375 0.609375 -0.234375q0.828125 -0.21875 1.265625 -0.21875q0.84375 0 1.3125 0.421875q0.484375 0.421875 0.484375 0.953125l0 2.984375l0.609375 0q0.171875 0 0.234375 0.0625q0.078125 0.0625 0.078125 0.171875q0 0.09375 -0.078125 0.15625q-0.0625 0.0625 -0.234375 0.0625l-1.0625 0zm0 -2.25q-0.3125 -0.09375 -0.671875 -0.125q-0.34375 -0.046875 -0.734375 -0.046875q-0.984375 0 -1.546875 0.421875q-0.421875 0.3125 -0.421875 0.765625q0 0.40625 0.3125 0.6875q0.328125 0.265625 0.9375 0.265625q0.59375 0 1.09375 -0.21875q0.5 -0.234375 1.03125 -0.75l0 -1.0zm3.2573242 -2.40625l0 0.46875q0.578125 -0.625 1.15625 -0.625q0.34375 0 0.609375 0.1875q0.265625 0.1875 0.4375 0.5625q0.296875 -0.375 0.609375 -0.5625q0.3125 -0.1875 0.625 -0.1875q0.484375 0 0.78125 0.3125q0.375 0.40625 0.375 0.890625l0 3.15625l0.375 0q0.171875 0 0.234375 0.0625q0.078125 0.0625 0.078125 0.171875q0 0.09375 -0.078125 0.15625q-0.0625 0.0625 -0.234375 0.0625l-0.828125 0l0 -3.5625q0 -0.34375 -0.21875 -0.5625q-0.203125 -0.234375 -0.46875 -0.234375q-0.25 0 -0.53125 0.1875q-0.265625 0.1875 -0.609375 0.734375l0 2.984375l0.375 0q0.15625 0 0.21875 0.0625q0.078125 0.0625 0.078125 0.171875q0 0.09375 -0.078125 0.15625q-0.0625 0.0625 -0.21875 0.0625l-0.84375 0l0 -3.53125q0 -0.359375 -0.21875 -0.59375q-0.203125 -0.234375 -0.46875 -0.234375q-0.234375 0 -0.46875 0.15625q-0.328125 0.21875 -0.6875 0.765625l0 2.984375l0.375 0q0.15625 0 0.21875 0.0625q0.078125 0.0625 0.078125 0.171875q0 0.09375 -0.078125 0.15625q-0.0625 0.0625 -0.21875 0.0625l-1.21875 0q-0.15625 0 -0.234375 -0.0625q-0.0625 -0.0625 -0.0625 -0.15625q0 -0.109375 0.0625 -0.171875q0.078125 -0.0625 0.234375 -0.0625l0.390625 0l0 -3.734375l-0.390625 0q-0.15625 0 -0.234375 -0.0625q-0.0625 -0.078125 -0.0625 -0.171875q0 -0.09375 0.0625 -0.15625q0.078125 -0.078125 0.234375 -0.078125l0.84375 0zm11.085449 2.4375l-4.59375 0q0.125 0.875 0.734375 1.40625q0.625 0.53125 1.53125 0.53125q0.5 0 1.046875 -0.15625q0.5625 -0.171875 0.90625 -0.4375q0.109375 -0.09375 0.171875 -0.09375q0.09375 0 0.15625 0.078125q0.0625 0.0625 0.0625 0.15625q0 0.09375 -0.078125 0.171875q-0.265625 0.265625 -0.921875 0.5q-0.65625 0.234375 -1.34375 0.234375q-1.171875 0 -1.953125 -0.75q-0.765625 -0.765625 -0.765625 -1.84375q0 -0.984375 0.71875 -1.6875q0.734375 -0.703125 1.8125 -0.703125q1.109375 0 1.8125 0.71875q0.71875 0.71875 0.703125 1.875zm-0.453125 -0.453125q-0.125 -0.75 -0.703125 -1.21875q-0.578125 -0.46875 -1.359375 -0.46875q-0.796875 0 -1.359375 0.46875q-0.5625 0.453125 -0.703125 1.21875l4.125 0z" fill-rule="nonzero"/><path fill="#000000" fill-opacity="0.0" d="m226.71654 358.14172l87.999985 0l0 45.259857l-87.999985 0z" fill-rule="evenodd"/><path fill="#595959" d="m249.20653 372.7255l0 0.828125q0.40625 -0.484375 0.859375 -0.734375q0.46875 -0.25 1.109375 -0.25q0.65625 0 1.21875 0.3125q0.5625 0.3125 0.875 0.875q0.3125 0.546875 0.3125 1.15625q0 0.96875 -0.703125 1.671875q-0.6875 0.6875 -1.703125 0.6875q-1.203125 0 -1.96875 -0.984375l0 2.71875l1.109375 0q0.15625 0 0.21875 0.0625q0.078125 0.0625 0.078125 0.15625q0 0.09375 -0.078125 0.15625q-0.0625 0.078125 -0.21875 0.078125l-2.15625 0q-0.171875 0 -0.25 -0.0625q-0.0625 -0.0625 -0.0625 -0.171875q0 -0.09375 0.0625 -0.15625q0.078125 -0.0625 0.25 -0.0625l0.609375 0l0 -5.8125l-0.609375 0q-0.171875 0 -0.25 -0.0625q-0.0625 -0.078125 -0.0625 -0.171875q0 -0.09375 0.0625 -0.15625q0.078125 -0.078125 0.25 -0.078125l1.046875 0zm3.921875 2.1875q0 -0.78125 -0.578125 -1.328125q-0.5625 -0.5625 -1.375 -0.5625q-0.828125 0 -1.40625 0.5625q-0.5625 0.5625 -0.5625 1.328125q0 0.78125 0.5625 1.34375q0.578125 0.5625 1.40625 0.5625q0.8125 0 1.375 -0.5625q0.578125 -0.5625 0.578125 -1.34375zm3.851059 -2.1875l0 1.140625q0.875 -0.796875 1.3125 -1.015625q0.4375 -0.234375 0.8125 -0.234375q0.40625 0 0.75 0.28125q0.34375 0.265625 0.34375 0.40625q0 0.09375 -0.078125 0.171875q-0.0625 0.0625 -0.15625 0.0625q-0.0625 0 -0.09375 -0.015625q-0.03125 -0.03125 -0.140625 -0.125q-0.1875 -0.1875 -0.328125 -0.25q-0.140625 -0.078125 -0.265625 -0.078125q-0.296875 0 -0.71875 0.234375q-0.421875 0.234375 -1.4375 1.15625l0 2.46875l2.0 0q0.15625 0 0.21875 0.0625q0.078125 0.0625 0.078125 0.171875q0 0.09375 -0.078125 0.15625q-0.0625 0.0625 -0.21875 0.0625l-3.5468597 0q-0.15625 0 -0.234375 -0.0625q-0.0625 -0.0625 -0.0625 -0.15625q0 -0.09375 0.0625 -0.15625q0.0625 -0.0625 0.234375 -0.0625l1.0937347 0l0 -3.75l-0.82810974 0q-0.171875 0 -0.25 -0.0625q-0.0625 -0.078125 -0.0625 -0.171875q0 -0.09375 0.0625 -0.15625q0.078125 -0.078125 0.25 -0.078125l1.2812347 0zm9.663574 2.34375q0 1.03125 -0.75 1.765625q-0.734375 0.71875 -1.78125 0.71875q-1.046875 0 -1.78125 -0.734375q-0.734375 -0.734375 -0.734375 -1.75q0 -1.03125 0.734375 -1.765625q0.734375 -0.734375 1.78125 -0.734375q1.046875 0 1.78125 0.734375q0.75 0.71875 0.75 1.765625zm-0.46875 0q0 -0.84375 -0.609375 -1.4375q-0.59375 -0.609375 -1.453125 -0.609375q-0.859375 0 -1.46875 0.609375q-0.59375 0.59375 -0.59375 1.4375q0 0.828125 0.59375 1.4375q0.609375 0.59375 1.46875 0.59375q0.859375 0 1.453125 -0.59375q0.609375 -0.59375 0.609375 -1.4375zm4.241699 -1.875l0 3.734375l1.984375 0q0.15625 0 0.21875 0.0625q0.078125 0.0625 0.078125 0.171875q0 0.09375 -0.078125 0.15625q-0.0625 0.0625 -0.21875 0.0625l-3.53125 0q-0.15625 0 -0.234375 -0.0625q-0.0625 -0.0625 -0.0625 -0.15625q0 -0.109375 0.0625 -0.171875q0.078125 -0.0625 0.234375 -0.0625l1.09375 0l0 -3.734375l-0.984375 0q-0.15625 0 -0.234375 -0.0625q-0.0625 -0.078125 -0.0625 -0.171875q0 -0.09375 0.0625 -0.15625q0.078125 -0.078125 0.234375 -0.078125l0.984375 0l0 -0.671875q0 -0.578125 0.453125 -0.984375q0.46875 -0.421875 1.234375 -0.421875q0.640625 0 1.359375 0.109375q0.28125 0.046875 0.328125 0.109375q0.0625 0.046875 0.0625 0.15625q0 0.09375 -0.0625 0.15625q-0.0625 0.0625 -0.171875 0.0625q-0.046875 0 -0.140625 -0.015625q-0.8125 -0.125 -1.375 -0.125q-0.59375 0 -0.921875 0.296875q-0.3125 0.28125 -0.3125 0.65625l0 0.671875l2.109375 0q0.171875 0 0.234375 0.078125q0.078125 0.0625 0.078125 0.15625q0 0.09375 -0.078125 0.171875q-0.0625 0.0625 -0.234375 0.0625l-2.109375 0zm7.132324 -2.78125l0 1.171875l-0.671875 0l0 -1.171875l0.671875 0zm0.015625 2.3125l0 4.203125l1.765625 0q0.171875 0 0.234375 0.0625q0.078125 0.0625 0.078125 0.171875q0 0.09375 -0.078125 0.15625q-0.0625 0.0625 -0.234375 0.0625l-4.0 0q-0.15625 0 -0.234375 -0.0625q-0.0625 -0.0625 -0.0625 -0.15625q0 -0.109375 0.0625 -0.171875q0.078125 -0.0625 0.234375 -0.0625l1.78125 0l0 -3.734375l-1.328125 0q-0.15625 0 -0.234375 -0.0625q-0.0625 -0.078125 -0.0625 -0.171875q0 -0.09375 0.0625 -0.15625q0.078125 -0.078125 0.234375 -0.078125l1.78125 0zm6.585449 -2.078125l0 6.28125l1.765625 0q0.171875 0 0.234375 0.0625q0.078125 0.0625 0.078125 0.171875q0 0.09375 -0.078125 0.15625q-0.0625 0.0625 -0.234375 0.0625l-3.984375 0q-0.171875 0 -0.25 -0.0625q-0.0625 -0.0625 -0.0625 -0.15625q0 -0.109375 0.0625 -0.171875q0.078125 -0.0625 0.25 -0.0625l1.765625 0l0 -5.828125l-1.296875 0q-0.171875 0 -0.25 -0.0625q-0.0625 -0.0625 -0.0625 -0.171875q0 -0.09375 0.0625 -0.15625q0.078125 -0.0625 0.25 -0.0625l1.75 0zm8.804199 4.515625l-4.59375 0q0.125 0.875 0.734375 1.40625q0.625 0.53125 1.53125 0.53125q0.5 0 1.046875 -0.15625q0.5625 -0.171875 0.90625 -0.4375q0.109375 -0.09375 0.171875 -0.09375q0.09375 0 0.15625 0.078125q0.0625 0.0625 0.0625 0.15625q0 0.09375 -0.078125 0.171875q-0.265625 0.265625 -0.921875 0.5q-0.65625 0.234375 -1.34375 0.234375q-1.171875 0 -1.953125 -0.75q-0.765625 -0.765625 -0.765625 -1.84375q0 -0.984375 0.71875 -1.6875q0.734375 -0.703125 1.8125 -0.703125q1.109375 0 1.8125 0.71875q0.71875 0.71875 0.703125 1.875zm-0.453125 -0.453125q-0.125 -0.75 -0.703125 -1.21875q-0.578125 -0.46875 -1.359375 -0.46875q-0.796875 0 -1.359375 0.46875q-0.5625 0.453125 -0.703125 1.21875l4.125 0z" fill-rule="nonzero"/><path fill="#595959" d="m257.21384 385.99423l0 3.734375l1.984375 0q0.15625 0 0.21875 0.0625q0.078125 0.0625 0.078125 0.171875q0 0.09375 -0.078125 0.15625q-0.0625 0.0625 -0.21875 0.0625l-3.5312347 0q-0.15625 0 -0.234375 -0.0625q-0.0625 -0.0625 -0.0625 -0.15625q0 -0.109375 0.0625 -0.171875q0.078125 -0.0625 0.234375 -0.0625l1.0937347 0l0 -3.734375l-0.98435974 0q-0.15625 0 -0.234375 -0.0625q-0.0625 -0.078125 -0.0625 -0.171875q0 -0.09375 0.0625 -0.15625q0.078125 -0.078125 0.234375 -0.078125l0.98435974 0l0 -0.671875q0 -0.578125 0.453125 -0.984375q0.46875 -0.421875 1.234375 -0.421875q0.640625 0 1.359375 0.109375q0.28125 0.046875 0.328125 0.109375q0.0625 0.046875 0.0625 0.15625q0 0.09375 -0.0625 0.15625q-0.0625 0.0625 -0.171875 0.0625q-0.046875 0 -0.140625 -0.015625q-0.8125 -0.125 -1.375 -0.125q-0.59375 0 -0.921875 0.296875q-0.3125 0.28125 -0.3125 0.65625l0 0.671875l2.109375 0q0.171875 0 0.234375 0.078125q0.078125 0.0625 0.078125 0.15625q0 0.09375 -0.078125 0.171875q-0.0625 0.0625 -0.234375 0.0625l-2.109375 0zm6.366699 -0.46875l0 1.140625q0.875 -0.796875 1.3125 -1.015625q0.4375 -0.234375 0.8125 -0.234375q0.40625 0 0.75 0.28125q0.34375 0.265625 0.34375 0.40625q0 0.09375 -0.078125 0.171875q-0.0625 0.0625 -0.15625 0.0625q-0.0625 0 -0.09375 -0.015625q-0.03125 -0.03125 -0.140625 -0.125q-0.1875 -0.1875 -0.328125 -0.25q-0.140625 -0.078125 -0.265625 -0.078125q-0.296875 0 -0.71875 0.234375q-0.421875 0.234375 -1.4375 1.15625l0 2.46875l2.0 0q0.15625 0 0.21875 0.0625q0.078125 0.0625 0.078125 0.171875q0 0.09375 -0.078125 0.15625q-0.0625 0.0625 -0.21875 0.0625l-3.546875 0q-0.15625 0 -0.234375 -0.0625q-0.0625 -0.0625 -0.0625 -0.15625q0 -0.09375 0.0625 -0.15625q0.0625 -0.0625 0.234375 -0.0625l1.09375 0l0 -3.75l-0.828125 0q-0.171875 0 -0.25 -0.0625q-0.0625 -0.078125 -0.0625 -0.171875q0 -0.09375 0.0625 -0.15625q0.078125 -0.078125 0.25 -0.078125l1.28125 0zm8.429199 4.65625l0 -0.65625q-0.984375 0.828125 -2.09375 0.828125q-0.8125 0 -1.265625 -0.40625q-0.453125 -0.40625 -0.453125 -1.0q0 -0.65625 0.59375 -1.140625q0.609375 -0.5 1.75 -0.5q0.3125 0 0.671875 0.046875q0.375 0.03125 0.796875 0.125l0 -0.734375q0 -0.375 -0.34375 -0.640625q-0.34375 -0.28125 -1.03125 -0.28125q-0.515625 0 -1.46875 0.3125q-0.171875 0.046875 -0.21875 0.046875q-0.09375 0 -0.15625 -0.0625q-0.0625 -0.0625 -0.0625 -0.15625q0 -0.09375 0.0625 -0.140625q0.0625 -0.09375 0.609375 -0.234375q0.828125 -0.21875 1.265625 -0.21875q0.84375 0 1.3125 0.421875q0.484375 0.421875 0.484375 0.953125l0 2.984375l0.609375 0q0.171875 0 0.234375 0.0625q0.078125 0.0625 0.078125 0.171875q0 0.09375 -0.078125 0.15625q-0.0625 0.0625 -0.234375 0.0625l-1.0625 0zm0 -2.25q-0.3125 -0.09375 -0.671875 -0.125q-0.34375 -0.046875 -0.734375 -0.046875q-0.984375 0 -1.546875 0.421875q-0.421875 0.3125 -0.421875 0.765625q0 0.40625 0.3125 0.6875q0.328125 0.265625 0.9375 0.265625q0.59375 0 1.09375 -0.21875q0.5 -0.234375 1.03125 -0.75l0 -1.0zm3.2573242 -2.40625l0 0.46875q0.578125 -0.625 1.15625 -0.625q0.34375 0 0.609375 0.1875q0.265625 0.1875 0.4375 0.5625q0.296875 -0.375 0.609375 -0.5625q0.3125 -0.1875 0.625 -0.1875q0.484375 0 0.78125 0.3125q0.375 0.40625 0.375 0.890625l0 3.15625l0.375 0q0.171875 0 0.234375 0.0625q0.078125 0.0625 0.078125 0.171875q0 0.09375 -0.078125 0.15625q-0.0625 0.0625 -0.234375 0.0625l-0.828125 0l0 -3.5625q0 -0.34375 -0.21875 -0.5625q-0.203125 -0.234375 -0.46875 -0.234375q-0.25 0 -0.53125 0.1875q-0.265625 0.1875 -0.609375 0.734375l0 2.984375l0.375 0q0.15625 0 0.21875 0.0625q0.078125 0.0625 0.078125 0.171875q0 0.09375 -0.078125 0.15625q-0.0625 0.0625 -0.21875 0.0625l-0.84375 0l0 -3.53125q0 -0.359375 -0.21875 -0.59375q-0.203125 -0.234375 -0.46875 -0.234375q-0.234375 0 -0.46875 0.15625q-0.328125 0.21875 -0.6875 0.765625l0 2.984375l0.375 0q0.15625 0 0.21875 0.0625q0.078125 0.0625 0.078125 0.171875q0 0.09375 -0.078125 0.15625q-0.0625 0.0625 -0.21875 0.0625l-1.21875 0q-0.15625 0 -0.234375 -0.0625q-0.0625 -0.0625 -0.0625 -0.15625q0 -0.109375 0.0625 -0.171875q0.078125 -0.0625 0.234375 -0.0625l0.390625 0l0 -3.734375l-0.390625 0q-0.15625 0 -0.234375 -0.0625q-0.0625 -0.078125 -0.0625 -0.171875q0 -0.09375 0.0625 -0.15625q0.078125 -0.078125 0.234375 -0.078125l0.84375 0zm11.085449 2.4375l-4.59375 0q0.125 0.875 0.734375 1.40625q0.625 0.53125 1.53125 0.53125q0.5 0 1.046875 -0.15625q0.5625 -0.171875 0.90625 -0.4375q0.109375 -0.09375 0.171875 -0.09375q0.09375 0 0.15625 0.078125q0.0625 0.0625 0.0625 0.15625q0 0.09375 -0.078125 0.171875q-0.265625 0.265625 -0.921875 0.5q-0.65625 0.234375 -1.34375 0.234375q-1.171875 0 -1.953125 -0.75q-0.765625 -0.765625 -0.765625 -1.84375q0 -0.984375 0.71875 -1.6875q0.734375 -0.703125 1.8125 -0.703125q1.109375 0 1.8125 0.71875q0.71875 0.71875 0.703125 1.875zm-0.453125 -0.453125q-0.125 -0.75 -0.703125 -1.21875q-0.578125 -0.46875 -1.359375 -0.46875q-0.796875 0 -1.359375 0.46875q-0.5625 0.453125 -0.703125 1.21875l4.125 0z" fill-rule="nonzero"/><path fill="#000000" fill-opacity="0.0" d="m183.6693 323.80054l-25.007874 -72.000015" fill-rule="evenodd"/><path stroke="#595959" stroke-width="1.0" stroke-linejoin="round" stroke-linecap="butt" stroke-dasharray="1.0,3.0" d="m183.6693 323.80054l-25.007874 -72.000015" fill-rule="evenodd"/><path fill="#000000" fill-opacity="0.0" d="m289.16797 349.80054l-114.99211 -31.527557" fill-rule="evenodd"/><path stroke="#595959" stroke-width="1.0" stroke-linejoin="round" stroke-linecap="butt" stroke-dasharray="1.0,3.0" d="m289.16797 349.80054l-114.99211 -31.527557" fill-rule="evenodd"/><path fill="#ffffff" d="m160.16798 326.0551l0 0c0 -7.0448914 10.970779 -12.75589 24.503937 -12.75589l0 0c13.533142 0 24.503937 5.7109985 24.503937 12.75589l0 0c0 7.0448914 -10.970795 12.75592 -24.503937 12.75592l0 0c-13.533157 0 -24.503937 -5.711029 -24.503937 -12.75592z" fill-rule="evenodd"/><path stroke="#cccccc" stroke-width="1.0" stroke-linejoin="round" stroke-linecap="butt" d="m160.16798 326.0551l0 0c0 -7.0448914 10.970779 -12.75589 24.503937 -12.75589l0 0c13.533142 0 24.503937 5.7109985 24.503937 12.75589l0 0c0 7.0448914 -10.970795 12.75592 -24.503937 12.75592l0 0c-13.533157 0 -24.503937 -5.711029 -24.503937 -12.75592z" fill-rule="evenodd"/><path fill="#595959" d="m174.2979 327.21698l0 2.125l1.546875 0q0.15625 0 0.21875 0.0625q0.078125 0.0625 0.078125 0.171875q0 0.09375 -0.078125 0.15625q-0.0625 0.0625 -0.21875 0.0625l-2.609375 0q-0.171875 0 -0.234375 -0.0625q-0.0625 -0.0625 -0.0625 -0.15625q0 -0.109375 0.0625 -0.171875q0.0625 -0.0625 0.234375 -0.0625l0.609375 0l0 -5.375l-0.609375 0q-0.171875 0 -0.234375 -0.0625q-0.0625 -0.0625 -0.0625 -0.171875q0 -0.09375 0.0625 -0.15625q0.0625 -0.0625 0.234375 -0.0625l2.625 0q0.921875 0 1.5 0.546875q0.59375 0.546875 0.59375 1.28125q0 0.4375 -0.1875 0.796875q-0.1875 0.34375 -0.453125 0.53125q-0.40625 0.3125 -0.84375 0.4375q-0.3125 0.109375 -0.765625 0.109375l-1.40625 0zm0 -0.453125l1.4375 0q0.5 0 0.9375 -0.21875q0.4375 -0.21875 0.625 -0.546875q0.203125 -0.328125 0.203125 -0.65625q0 -0.53125 -0.453125 -0.953125q-0.453125 -0.421875 -1.15625 -0.421875l-1.59375 0l0 2.796875zm10.101074 0.71875q0 1.03125 -0.75 1.765625q-0.734375 0.71875 -1.78125 0.71875q-1.046875 0 -1.78125 -0.734375q-0.734375 -0.734375 -0.734375 -1.75q0 -1.03125 0.734375 -1.765625q0.734375 -0.734375 1.78125 -0.734375q1.046875 0 1.78125 0.734375q0.75 0.71875 0.75 1.765625zm-0.46875 0q0 -0.84375 -0.609375 -1.4375q-0.59375 -0.609375 -1.453125 -0.609375q-0.859375 0 -1.46875 0.609375q-0.59375 0.59375 -0.59375 1.4375q0 0.828125 0.59375 1.4375q0.609375 0.59375 1.46875 0.59375q0.859375 0 1.453125 -0.59375q0.609375 -0.59375 0.609375 -1.4375zm6.038574 -2.046875q0 -0.15625 0.0625 -0.21875q0.0625 -0.078125 0.15625 -0.078125q0.109375 0 0.171875 0.078125q0.0625 0.0625 0.0625 0.234375l0 0.765625q0 0.171875 -0.0625 0.25q-0.0625 0.0625 -0.171875 0.0625q-0.09375 0 -0.15625 -0.0625q-0.0625 -0.0625 -0.0625 -0.203125q-0.03125 -0.3125 -0.34375 -0.53125q-0.4375 -0.296875 -1.15625 -0.296875q-0.765625 0 -1.1875 0.3125q-0.3125 0.234375 -0.3125 0.515625q0 0.3125 0.375 0.53125q0.265625 0.15625 0.984375 0.234375q0.9375 0.09375 1.296875 0.234375q0.53125 0.1875 0.78125 0.515625q0.25 0.328125 0.25 0.71875q0 0.578125 -0.546875 1.03125q-0.546875 0.4375 -1.625 0.4375q-1.0625 0 -1.75 -0.53125q0 0.171875 -0.03125 0.234375q-0.015625 0.046875 -0.078125 0.09375q-0.046875 0.03125 -0.109375 0.03125q-0.109375 0 -0.171875 -0.0625q-0.0625 -0.078125 -0.0625 -0.234375l0 -0.9375q0 -0.15625 0.0625 -0.21875q0.0625 -0.078125 0.171875 -0.078125q0.09375 0 0.15625 0.078125q0.0625 0.0625 0.0625 0.171875q0 0.25 0.125 0.40625q0.1875 0.265625 0.59375 0.4375q0.421875 0.15625 1.015625 0.15625q0.875 0 1.296875 -0.3125q0.4375 -0.328125 0.4375 -0.703125q0 -0.421875 -0.421875 -0.671875q-0.453125 -0.25 -1.296875 -0.328125q-0.828125 -0.09375 -1.203125 -0.234375q-0.359375 -0.140625 -0.5625 -0.421875q-0.203125 -0.28125 -0.203125 -0.59375q0 -0.578125 0.5625 -0.921875q0.578125 -0.34375 1.359375 -0.34375q0.9375 0 1.53125 0.453125zm7.538574 2.140625l-4.59375 0q0.125 0.875 0.734375 1.40625q0.625 0.53125 1.53125 0.53125q0.5 0 1.046875 -0.15625q0.5625 -0.171875 0.90625 -0.4375q0.109375 -0.09375 0.171875 -0.09375q0.09375 0 0.15625 0.078125q0.0625 0.0625 0.0625 0.15625q0 0.09375 -0.078125 0.171875q-0.265625 0.265625 -0.921875 0.5q-0.65625 0.234375 -1.34375 0.234375q-1.171875 0 -1.953125 -0.75q-0.765625 -0.765625 -0.765625 -1.84375q0 -0.984375 0.71875 -1.6875q0.734375 -0.703125 1.8125 -0.703125q1.109375 0 1.8125 0.71875q0.71875 0.71875 0.703125 1.875zm-0.453125 -0.453125q-0.125 -0.75 -0.703125 -1.21875q-0.578125 -0.46875 -1.359375 -0.46875q-0.796875 0 -1.359375 0.46875q-0.5625 0.453125 -0.703125 1.21875l4.125 0z" fill-rule="nonzero"/><path fill="#000000" fill-opacity="0.0" d="m289.9475 349.35696l147.49606 -254.5512" fill-rule="evenodd"/><path stroke="#0000ff" stroke-width="1.0" stroke-linejoin="round" stroke-linecap="butt" stroke-dasharray="4.0,3.0" d="m289.9475 349.35696l147.49606 -254.5512" fill-rule="evenodd"/><path fill="#000000" fill-opacity="0.0" d="m289.9475 349.80054l156.0 -251.49608" fill-rule="evenodd"/><path stroke="#595959" stroke-width="1.0" stroke-linejoin="round" stroke-linecap="butt" d="m289.9475 349.80054l156.0 -251.49608" fill-rule="evenodd"/><path fill="#000000" fill-opacity="0.0" d="m289.9475 349.80054l138.99213 -259.4961" fill-rule="evenodd"/><path stroke="#595959" stroke-width="1.0" stroke-linejoin="round" stroke-linecap="butt" d="m289.9475 349.80054l138.99213 -259.4961" fill-rule="evenodd"/><path fill="#000000" fill-opacity="0.0" d="m341.9475 235.80052l20.503937 12.503937" fill-rule="evenodd"/><path stroke="#595959" stroke-width="1.0" stroke-linejoin="round" stroke-linecap="butt" d="m341.9475 235.80052l20.503937 12.503937" fill-rule="evenodd"/><path fill="#000000" fill-opacity="0.0" d="m289.59503 349.96967l31.897614 -55.481598" fill-rule="evenodd"/><path stroke="#0000ff" stroke-width="2.0" stroke-linejoin="round" stroke-linecap="butt" d="m289.59503 349.96967l28.481354 -49.53946" fill-rule="evenodd"/><path fill="#0000ff" stroke="#0000ff" stroke-width="2.0" stroke-linecap="butt" d="m318.0764 300.4302l0.8288574 3.0708923l1.130127 -6.4782715l-5.029907 4.236206z" fill-rule="evenodd"/><path fill="#000000" fill-opacity="0.0" d="m289.63275 349.74612l44.503906 35.068115" fill-rule="evenodd"/><path stroke="#cccccc" stroke-width="1.0" stroke-linejoin="round" stroke-linecap="butt" d="m289.63272 349.7461l41.812134 32.94702" fill-rule="evenodd"/><path fill="#cccccc" stroke="#cccccc" stroke-width="1.0" stroke-linecap="butt" d="m331.44485 382.6931l-1.5793457 0.18728638l3.1228943 1.0290222l-1.730835 -2.7956238z" fill-rule="evenodd"/><path fill="#000000" fill-opacity="0.0" d="m289.75168 349.70248l-53.871735 -2.3449097" fill-rule="evenodd"/><path stroke="#cccccc" stroke-width="1.0" stroke-linejoin="round" stroke-linecap="butt" d="m289.75168 349.70245l-50.44789 -2.1958618" fill-rule="evenodd"/><path fill="#cccccc" stroke="#cccccc" stroke-width="1.0" stroke-linecap="butt" d="m239.30379 347.5066l1.1724243 -1.0746155l-3.1357574 0.98916626l3.0379486 1.2578735z" fill-rule="evenodd"/><path fill="#000000" fill-opacity="0.0" d="m296.84988 275.0049l23.067657 0.0020751953l-0.018585205 32.32199l-23.067657 -0.0020751953z" fill-rule="evenodd"/><path fill="#0000ff" d="m308.4482 294.2147l-1.8572693 -3.6251526q-0.25 -0.031280518 -0.39053345 -0.17190552q-0.14053345 -0.15628052 -0.14041138 -0.35940552q1.2207031E-4 -0.234375 0.15646362 -0.37496948q0.17196655 -0.15625 0.56259155 -0.15621948l0.96875 9.1552734E-5q0.390625 3.0517578E-5 0.54678345 0.15631104q0.17178345 0.140625 0.17166138 0.375q-1.5258789E-4 0.234375 -0.17211914 0.390625q-0.15631104 0.14059448 -0.51568604 0.14056396l1.2642212 2.453247l1.2514038 -2.453003q-0.34375 -3.0517578E-5 -0.51556396 -0.14068604q-0.15615845 -0.15625 -0.15600586 -0.390625q1.2207031E-4 -0.234375 0.15646362 -0.375q0.17196655 -0.15621948 0.54696655 -0.15618896l1.015625 9.1552734E-5q0.375 3.0517578E-5 0.53115845 0.15628052q0.17178345 0.14065552 0.17166138 0.37503052q-1.2207031E-4 0.21875 -0.14083862 0.37496948q-0.14071655 0.140625 -0.42196655 0.15621948l-2.440277 4.8122864q0.390625 3.0517578E-5 0.5155945 0.07815552q0.24987793 0.17190552 0.24972534 0.46878052q-1.5258789E-4 0.234375 -0.17208862 0.375q-0.15634155 0.15621948 -0.53134155 0.15618896l-2.328125 -2.1362305E-4q-0.390625 -3.0517578E-5 -0.56240845 -0.15628052q-0.15618896 -0.14065552 -0.15603638 -0.37503052q1.5258789E-4 -0.25 0.15646362 -0.40621948q0.17196655 -0.140625 0.56259155 -0.14059448l1.0625 9.1552734E-5l0.6100464 -1.187439z" fill-rule="nonzero"/><path fill="#000000" fill-opacity="0.0" d="m303.1834 366.3077l23.067627 0.0020751953l-0.018585205 32.32199l-23.067627 -0.0020751953z" fill-rule="evenodd"/><path fill="#595959" d="m315.7831 383.11133l2.0613708 1.9845581q0.203125 3.0517578E-5 0.24996948 0.031280518q0.0625 0.015625 0.093688965 0.078125q0.046875 0.046875 0.046813965 0.125q-6.1035156E-5 0.09375 -0.06259155 0.15625q-0.06253052 0.0625 -0.23440552 0.0625l-1.453125 -1.5258789E-4q-0.171875 0 -0.24996948 -0.0625q-0.062469482 -0.06253052 -0.062408447 -0.15628052q6.1035156E-5 -0.109375 0.06259155 -0.17184448q0.078186035 -0.0625 0.25006104 -0.0625l0.75 9.1552734E-5l-1.764679 -1.6720581l-1.735321 1.6717224l0.75 9.1552734E-5q0.15625 0 0.21868896 0.0625q0.07809448 0.0625 0.07803345 0.171875q-6.1035156E-5 0.09375 -0.07821655 0.15625q-0.06253052 0.0625 -0.21878052 0.0625l-1.46875 -1.5258789E-4q-0.15625 0 -0.23434448 -0.0625q-0.062469482 -0.06253052 -0.062408447 -0.15628052q6.1035156E-5 -0.078125 0.031311035 -0.125q0.046936035 -0.062469482 0.093811035 -0.07809448q0.046905518 -0.03125 0.25003052 -0.03125l2.0792542 -1.9841614l-1.8427429 -1.7501831q-0.1875 0 -0.25 -0.015655518q-0.046844482 -0.03125 -0.093688965 -0.09375q-0.031219482 -0.0625 -0.031188965 -0.125q6.1035156E-5 -0.09375 0.06259155 -0.15625q0.078186035 -0.078125 0.25006104 -0.07809448l1.234375 1.2207031E-4q0.15625 0 0.21868896 0.078125q0.07809448 0.0625 0.07803345 0.15625q-3.0517578E-5 0.09375 -0.07821655 0.171875q-0.06253052 0.0625 -0.21878052 0.0625l-0.546875 -6.1035156E-5l1.514801 1.4532471l1.532074 -1.4529724l-0.53125 -6.1035156E-5q-0.15625 0 -0.23434448 -0.0625q-0.078063965 -0.07815552 -0.07803345 -0.17190552q6.1035156E-5 -0.09375 0.06259155 -0.15621948q0.078186035 -0.078125 0.25006104 -0.078125l1.234375 1.2207031E-4q0.15625 0 0.21868896 0.07815552q0.07809448 0.0625 0.07803345 0.15625q-3.0517578E-5 0.0625 -0.046936035 0.125q-0.031280518 0.0625 -0.093811035 0.09371948q-0.046875 0.015625 -0.234375 0.015625l-1.8447571 1.7498169z" fill-rule="nonzero"/><path fill="#000000" fill-opacity="0.0" d="m240.49306 315.84915l23.067642 0.0020446777l-0.018585205 32.32202l-23.067642 -0.0020751953z" fill-rule="evenodd"/><path fill="#595959" d="m254.76591 330.43417l-2.2888184E-4 0.40625l-3.392807 3.7965698l3.0625 2.746582E-4l3.5095215E-4 -0.625q9.1552734E-5 -0.15625 0.06263733 -0.21875q0.06254578 -0.078125 0.15629578 -0.07809448q0.109375 0 0.17182922 0.078125q0.062454224 0.0625 0.06236267 0.21875l-0.016235352 1.078125l-4.125 -3.6621094E-4l2.2888184E-4 -0.40625l3.377182 -3.7809448l-2.8125 -2.4414062E-4l-3.5095215E-4 0.609375q-9.1552734E-5 0.15625 -0.06263733 0.234375q-0.06254578 0.062469482 -0.15629578 0.062469482q-0.109375 0 -0.17182922 -0.0625q-0.062454224 -0.07815552 -0.06236267 -0.23440552l6.1035156E-4 -1.078125l3.90625 3.6621094E-4z" fill-rule="nonzero"/><path fill="#000000" fill-opacity="0.0" d="m321.44357 270.0l20.503937 12.503937" fill-rule="evenodd"/><path stroke="#595959" stroke-width="1.0" stroke-linejoin="round" stroke-linecap="butt" d="m321.44357 270.0l20.503937 12.503937" fill-rule="evenodd"/><path fill="#000000" fill-opacity="0.0" d="m362.45145 199.80052l20.503937 12.503937" fill-rule="evenodd"/><path stroke="#595959" stroke-width="1.0" stroke-linejoin="round" stroke-linecap="butt" d="m362.45145 199.80052l20.503937 12.503937" fill-rule="evenodd"/><path fill="#000000" fill-opacity="0.0" d="m382.95538 165.29921l20.503937 12.503937" fill-rule="evenodd"/><path stroke="#595959" stroke-width="1.0" stroke-linejoin="round" stroke-linecap="butt" d="m382.95538 165.29921l20.503937 12.503937" fill-rule="evenodd"/><path fill="#000000" fill-opacity="0.0" d="m403.45932 126.29921l20.503937 12.503937" fill-rule="evenodd"/><path stroke="#595959" stroke-width="1.0" stroke-linejoin="round" stroke-linecap="butt" d="m403.45932 126.29921l20.503937 12.503937" fill-rule="evenodd"/><path fill="#000000" fill-opacity="0.0" d="m330.49606 281.00525l104.944885 0l0 45.259857l-104.944885 0z" fill-rule="evenodd"/><path fill="#595959" d="m374.66064 293.51086l0 2.984375q0.828125 -1.0625 1.984375 -1.0625q0.984375 0 1.6875 0.71875q0.703125 0.71875 0.703125 1.75q0 1.0625 -0.71875 1.796875q-0.703125 0.71875 -1.671875 0.71875q-1.1875 0 -1.984375 -1.0625l0 0.890625l-1.046875 0q-0.171875 0 -0.25 -0.0625q-0.0625 -0.0625 -0.0625 -0.15625q0 -0.109375 0.0625 -0.171875q0.078125 -0.0625 0.25 -0.0625l0.609375 0l0 -5.828125l-0.609375 0q-0.171875 0 -0.25 -0.0625q-0.0625 -0.0625 -0.0625 -0.171875q0 -0.09375 0.0625 -0.15625q0.078125 -0.0625 0.25 -0.0625l1.046875 0zm3.921875 4.421875q0 -0.859375 -0.59375 -1.453125q-0.578125 -0.59375 -1.359375 -0.59375q-0.78125 0 -1.375 0.59375q-0.578125 0.59375 -0.578125 1.453125q0 0.84375 0.578125 1.4375q0.59375 0.59375 1.375 0.59375q0.78125 0 1.359375 -0.59375q0.59375 -0.59375 0.59375 -1.4375zm4.616699 -4.65625l0 1.171875l-0.671875 0l0 -1.171875l0.671875 0zm0.015625 2.3125l0 4.203125l1.765625 0q0.171875 0 0.234375 0.0625q0.078125 0.0625 0.078125 0.171875q0 0.09375 -0.078125 0.15625q-0.0625 0.0625 -0.234375 0.0625l-4.0 0q-0.15625 0 -0.234375 -0.0625q-0.0625 -0.0625 -0.0625 -0.15625q0 -0.109375 0.0625 -0.171875q0.078125 -0.0625 0.234375 -0.0625l1.78125 0l0 -3.734375l-1.328125 0q-0.15625 0 -0.234375 -0.0625q-0.0625 -0.078125 -0.0625 -0.171875q0 -0.09375 0.0625 -0.15625q0.078125 -0.078125 0.234375 -0.078125l1.78125 0zm4.897949 0l0 0.6875q0.46875 -0.484375 0.84375 -0.65625q0.390625 -0.1875 0.875 -0.1875q0.515625 0 0.9375 0.21875q0.296875 0.15625 0.53125 0.53125q0.25 0.375 0.25 0.765625l0 2.84375l0.390625 0q0.15625 0 0.21875 0.0625q0.078125 0.0625 0.078125 0.171875q0 0.09375 -0.078125 0.15625q-0.0625 0.0625 -0.21875 0.0625l-1.21875 0q-0.15625 0 -0.234375 -0.0625q-0.0625 -0.0625 -0.0625 -0.15625q0 -0.109375 0.0625 -0.171875q0.078125 -0.0625 0.234375 -0.0625l0.375 0l0 -2.765625q0 -0.484375 -0.34375 -0.8125q-0.34375 -0.328125 -0.9375 -0.328125q-0.4375 0 -0.765625 0.1875q-0.328125 0.171875 -0.9375 0.890625l0 2.828125l0.515625 0q0.15625 0 0.21875 0.0625q0.078125 0.0625 0.078125 0.171875q0 0.09375 -0.078125 0.15625q-0.0625 0.0625 -0.21875 0.0625l-1.484375 0q-0.15625 0 -0.234375 -0.0625q-0.0625 -0.0625 -0.0625 -0.15625q0 -0.109375 0.0625 -0.171875q0.078125 -0.0625 0.234375 -0.0625l0.515625 0l0 -3.734375l-0.375 0q-0.171875 0 -0.25 -0.0625q-0.0625 -0.078125 -0.0625 -0.171875q0 -0.09375 0.0625 -0.15625q0.078125 -0.078125 0.25 -0.078125l0.828125 0z" fill-rule="nonzero"/><path fill="#595959" d="m362.07983 306.31088l0 6.28125l0.59375 0q0.171875 0 0.234375 0.0625q0.078125 0.0625 0.078125 0.171875q0 0.09375 -0.078125 0.15625q-0.0625 0.0625 -0.234375 0.0625l-1.0625 0l0 -0.890625q-0.78125 1.0625 -1.984375 1.0625q-0.609375 0 -1.171875 -0.3125q-0.5625 -0.328125 -0.890625 -0.921875q-0.328125 -0.609375 -0.328125 -1.25q0 -0.640625 0.328125 -1.234375q0.328125 -0.609375 0.890625 -0.9375q0.5625 -0.328125 1.171875 -0.328125q1.1875 0 1.984375 1.078125l0 -2.546875l-0.59375 0q-0.171875 0 -0.25 -0.0625q-0.0625 -0.0625 -0.0625 -0.171875q0 -0.09375 0.0625 -0.15625q0.078125 -0.0625 0.25 -0.0625l1.0625 0zm-0.46875 4.421875q0 -0.859375 -0.578125 -1.453125q-0.578125 -0.59375 -1.375 -0.59375q-0.8125 0 -1.390625 0.59375q-0.578125 0.59375 -0.578125 1.453125q0 0.84375 0.578125 1.4375q0.578125 0.59375 1.390625 0.59375q0.796875 0 1.375 -0.59375q0.578125 -0.59375 0.578125 -1.4375zm5.085449 -4.65625l0 1.171875l-0.671875 0l0 -1.171875l0.671875 0zm0.015625 2.3125l0 4.203125l1.765625 0q0.171875 0 0.234375 0.0625q0.078125 0.0625 0.078125 0.171875q0 0.09375 -0.078125 0.15625q-0.0625 0.0625 -0.234375 0.0625l-4.0 0q-0.15625 0 -0.234375 -0.0625q-0.0625 -0.0625 -0.0625 -0.15625q0 -0.109375 0.0625 -0.171875q0.078125 -0.0625 0.234375 -0.0625l1.78125 0l0 -3.734375l-1.328125 0q-0.15625 0 -0.234375 -0.0625q-0.0625 -0.078125 -0.0625 -0.171875q0 -0.09375 0.0625 -0.15625q0.078125 -0.078125 0.234375 -0.078125l1.78125 0zm7.851074 0.296875q0 -0.15625 0.0625 -0.21875q0.0625 -0.078125 0.15625 -0.078125q0.109375 0 0.171875 0.078125q0.0625 0.0625 0.0625 0.234375l0 0.765625q0 0.171875 -0.0625 0.25q-0.0625 0.0625 -0.171875 0.0625q-0.09375 0 -0.15625 -0.0625q-0.0625 -0.0625 -0.0625 -0.203125q-0.03125 -0.3125 -0.34375 -0.53125q-0.4375 -0.296875 -1.15625 -0.296875q-0.765625 0 -1.1875 0.3125q-0.3125 0.234375 -0.3125 0.515625q0 0.3125 0.375 0.53125q0.265625 0.15625 0.984375 0.234375q0.9375 0.09375 1.296875 0.234375q0.53125 0.1875 0.78125 0.515625q0.25 0.328125 0.25 0.71875q0 0.578125 -0.546875 1.03125q-0.546875 0.4375 -1.625 0.4375q-1.0625 0 -1.75 -0.53125q0 0.171875 -0.03125 0.234375q-0.015625 0.046875 -0.078125 0.09375q-0.046875 0.03125 -0.109375 0.03125q-0.109375 0 -0.171875 -0.0625q-0.0625 -0.078125 -0.0625 -0.234375l0 -0.9375q0 -0.15625 0.0625 -0.21875q0.0625 -0.078125 0.171875 -0.078125q0.09375 0 0.15625 0.078125q0.0625 0.0625 0.0625 0.171875q0 0.25 0.125 0.40625q0.1875 0.265625 0.59375 0.4375q0.421875 0.15625 1.015625 0.15625q0.875 0 1.296875 -0.3125q0.4375 -0.328125 0.4375 -0.703125q0 -0.421875 -0.421875 -0.671875q-0.453125 -0.25 -1.296875 -0.328125q-0.828125 -0.09375 -1.203125 -0.234375q-0.359375 -0.140625 -0.5625 -0.421875q-0.203125 -0.28125 -0.203125 -0.59375q0 -0.578125 0.5625 -0.921875q0.578125 -0.34375 1.359375 -0.34375q0.9375 0 1.53125 0.453125zm4.179199 -0.296875l2.453125 0q0.15625 0 0.21875 0.078125q0.078125 0.0625 0.078125 0.15625q0 0.09375 -0.078125 0.171875q-0.0625 0.0625 -0.21875 0.0625l-2.453125 0l0 3.0q0 0.390625 0.3125 0.65625q0.3125 0.25 0.921875 0.25q0.453125 0 0.984375 -0.125q0.53125 -0.140625 0.828125 -0.3125q0.109375 -0.078125 0.1875 -0.078125q0.078125 0 0.140625 0.078125q0.0625 0.0625 0.0625 0.15625q0 0.078125 -0.0625 0.15625q-0.171875 0.171875 -0.84375 0.375q-0.65625 0.203125 -1.265625 0.203125q-0.78125 0 -1.25 -0.359375q-0.46875 -0.375 -0.46875 -1.0l0 -3.0l-0.84375 0q-0.15625 0 -0.234375 -0.0625q-0.0625 -0.078125 -0.0625 -0.171875q0 -0.09375 0.0625 -0.15625q0.078125 -0.078125 0.234375 -0.078125l0.84375 0l0 -1.328125q0 -0.15625 0.0625 -0.21875q0.0625 -0.078125 0.15625 -0.078125q0.109375 0 0.171875 0.078125q0.0625 0.0625 0.0625 0.21875l0 1.328125zm8.819824 4.65625l0 -0.65625q-0.984375 0.828125 -2.09375 0.828125q-0.8125 0 -1.265625 -0.40625q-0.453125 -0.40625 -0.453125 -1.0q0 -0.65625 0.59375 -1.140625q0.609375 -0.5 1.75 -0.5q0.3125 0 0.671875 0.046875q0.375 0.03125 0.796875 0.125l0 -0.734375q0 -0.375 -0.34375 -0.640625q-0.34375 -0.28125 -1.03125 -0.28125q-0.515625 0 -1.46875 0.3125q-0.171875 0.046875 -0.21875 0.046875q-0.09375 0 -0.15625 -0.0625q-0.0625 -0.0625 -0.0625 -0.15625q0 -0.09375 0.0625 -0.140625q0.0625 -0.09375 0.609375 -0.234375q0.828125 -0.21875 1.265625 -0.21875q0.84375 0 1.3125 0.421875q0.484375 0.421875 0.484375 0.953125l0 2.984375l0.609375 0q0.171875 0 0.234375 0.0625q0.078125 0.0625 0.078125 0.171875q0 0.09375 -0.078125 0.15625q-0.0625 0.0625 -0.234375 0.0625l-1.0625 0zm0 -2.25q-0.3125 -0.09375 -0.671875 -0.125q-0.34375 -0.046875 -0.734375 -0.046875q-0.984375 0 -1.546875 0.421875q-0.421875 0.3125 -0.421875 0.765625q0 0.40625 0.3125 0.6875q0.328125 0.265625 0.9375 0.265625q0.59375 0 1.09375 -0.21875q0.5 -0.234375 1.03125 -0.75l0 -1.0zm3.8510742 -2.40625l0 0.6875q0.46875 -0.484375 0.84375 -0.65625q0.390625 -0.1875 0.875 -0.1875q0.515625 0 0.9375 0.21875q0.296875 0.15625 0.53125 0.53125q0.25 0.375 0.25 0.765625l0 2.84375l0.390625 0q0.15625 0 0.21875 0.0625q0.078125 0.0625 0.078125 0.171875q0 0.09375 -0.078125 0.15625q-0.0625 0.0625 -0.21875 0.0625l-1.21875 0q-0.15625 0 -0.234375 -0.0625q-0.0625 -0.0625 -0.0625 -0.15625q0 -0.109375 0.0625 -0.171875q0.078125 -0.0625 0.234375 -0.0625l0.375 0l0 -2.765625q0 -0.484375 -0.34375 -0.8125q-0.34375 -0.328125 -0.9375 -0.328125q-0.4375 0 -0.765625 0.1875q-0.328125 0.171875 -0.9375 0.890625l0 2.828125l0.515625 0q0.15625 0 0.21875 0.0625q0.078125 0.0625 0.078125 0.171875q0 0.09375 -0.078125 0.15625q-0.0625 0.0625 -0.21875 0.0625l-1.484375 0q-0.15625 0 -0.234375 -0.0625q-0.0625 -0.0625 -0.0625 -0.15625q0 -0.109375 0.0625 -0.171875q0.078125 -0.0625 0.234375 -0.0625l0.515625 0l0 -3.734375l-0.375 0q-0.171875 0 -0.25 -0.0625q-0.0625 -0.078125 -0.0625 -0.171875q0 -0.09375 0.0625 -0.15625q0.078125 -0.078125 0.25 -0.078125l0.828125 0zm9.944824 0.46875l0 -0.15625q0 -0.171875 0.0625 -0.234375q0.0625 -0.078125 0.15625 -0.078125q0.109375 0 0.171875 0.078125q0.0625 0.0625 0.0625 0.234375l0 1.015625q0 0.171875 -0.0625 0.25q-0.0625 0.0625 -0.171875 0.0625q-0.09375 0 -0.15625 -0.0625q-0.0625 -0.0625 -0.0625 -0.203125q-0.03125 -0.390625 -0.5 -0.734375q-0.46875 -0.34375 -1.265625 -0.34375q-1.015625 0 -1.53125 0.640625q-0.515625 0.625 -0.515625 1.4375q0 0.875 0.5625 1.4375q0.578125 0.5625 1.5 0.5625q0.515625 0 1.0625 -0.1875q0.546875 -0.1875 0.984375 -0.625q0.125 -0.109375 0.203125 -0.109375q0.09375 0 0.15625 0.0625q0.0625 0.0625 0.0625 0.15625q0 0.234375 -0.546875 0.59375q-0.875 0.5625 -1.953125 0.5625q-1.078125 0 -1.78125 -0.6875q-0.703125 -0.703125 -0.703125 -1.765625q0 -1.09375 0.71875 -1.8125q0.71875 -0.71875 1.796875 -0.71875q1.046875 0 1.75 0.625zm7.147949 1.96875l-4.59375 0q0.125 0.875 0.734375 1.40625q0.625 0.53125 1.53125 0.53125q0.5 0 1.046875 -0.15625q0.5625 -0.171875 0.90625 -0.4375q0.109375 -0.09375 0.171875 -0.09375q0.09375 0 0.15625 0.078125q0.0625 0.0625 0.0625 0.15625q0 0.09375 -0.078125 0.171875q-0.265625 0.265625 -0.921875 0.5q-0.65625 0.234375 -1.34375 0.234375q-1.171875 0 -1.953125 -0.75q-0.765625 -0.765625 -0.765625 -1.84375q0 -0.984375 0.71875 -1.6875q0.734375 -0.703125 1.8125 -0.703125q1.109375 0 1.8125 0.71875q0.71875 0.71875 0.703125 1.875zm-0.453125 -0.453125q-0.125 -0.75 -0.703125 -1.21875q-0.578125 -0.46875 -1.359375 -0.46875q-0.796875 0 -1.359375 0.46875q-0.5625 0.453125 -0.703125 1.21875l4.125 0z" fill-rule="nonzero"/><path fill="#000000" fill-opacity="0.0" d="m314.71722 366.30875l82.80313 -141.85828" fill-rule="evenodd"/><path stroke="#cccccc" stroke-width="1.0" stroke-linejoin="round" stroke-linecap="butt" d="m316.44485 363.34897l79.34793 -135.93872" fill-rule="evenodd"/><path fill="#cccccc" stroke="#cccccc" stroke-width="1.0" stroke-linecap="butt" d="m316.44482 363.34897l-0.40429688 -1.538147l-0.58636475 3.2353516l2.528839 -2.101532z" fill-rule="evenodd"/><path fill="#cccccc" stroke="#cccccc" stroke-width="1.0" stroke-linecap="butt" d="m395.79276 227.41025l0.4043274 1.538147l0.5863342 -3.2353516l-2.5288086 2.101532z" fill-rule="evenodd"/><path fill="#000000" fill-opacity="0.0" d="m280.4987 143.3937l51.055115 0l0 32.314957l-51.055115 0z" fill-rule="evenodd"/><path fill="#595959" d="m291.09244 155.89932l0 2.984375q0.828125 -1.0625 1.984375 -1.0625q0.984375 0 1.6875 0.71875q0.703125 0.71875 0.703125 1.75q0 1.0625 -0.71875 1.796875q-0.703125 0.71875 -1.671875 0.71875q-1.1875 0 -1.984375 -1.0625l0 0.890625l-1.046875 0q-0.171875 0 -0.25 -0.0625q-0.0625 -0.0625 -0.0625 -0.15625q0 -0.109375 0.0625 -0.171875q0.078125 -0.0625 0.25 -0.0625l0.609375 0l0 -5.828125l-0.609375 0q-0.171875 0 -0.25 -0.0625q-0.0625 -0.0625 -0.0625 -0.171875q0 -0.09375 0.0625 -0.15625q0.078125 -0.0625 0.25 -0.0625l1.046875 0zm3.921875 4.421875q0 -0.859375 -0.59375 -1.453125q-0.578125 -0.59375 -1.359375 -0.59375q-0.78125 0 -1.375 0.59375q-0.578125 0.59375 -0.578125 1.453125q0 0.84375 0.578125 1.4375q0.59375 0.59375 1.375 0.59375q0.78125 0 1.359375 -0.59375q0.59375 -0.59375 0.59375 -1.4375zm4.616699 -4.65625l0 1.171875l-0.671875 0l0 -1.171875l0.671875 0zm0.015625 2.3125l0 4.203125l1.765625 0q0.171875 0 0.234375 0.0625q0.078125 0.0625 0.078125 0.171875q0 0.09375 -0.078125 0.15625q-0.0625 0.0625 -0.234375 0.0625l-4.0 0q-0.15625 0 -0.234375 -0.0625q-0.0625 -0.0625 -0.0625 -0.15625q0 -0.109375 0.0625 -0.171875q0.078125 -0.0625 0.234375 -0.0625l1.78125 0l0 -3.734375l-1.328125 0q-0.15625 0 -0.234375 -0.0625q-0.0625 -0.078125 -0.0625 -0.171875q0 -0.09375 0.0625 -0.15625q0.078125 -0.078125 0.234375 -0.078125l1.78125 0zm4.897949 0l0 0.6875q0.46875 -0.484375 0.84375 -0.65625q0.390625 -0.1875 0.875 -0.1875q0.515625 0 0.9375 0.21875q0.296875 0.15625 0.53125 0.53125q0.25 0.375 0.25 0.765625l0 2.84375l0.390625 0q0.15625 0 0.21875 0.0625q0.078125 0.0625 0.078125 0.171875q0 0.09375 -0.078125 0.15625q-0.0625 0.0625 -0.21875 0.0625l-1.21875 0q-0.15625 0 -0.234375 -0.0625q-0.0625 -0.0625 -0.0625 -0.15625q0 -0.109375 0.0625 -0.171875q0.078125 -0.0625 0.234375 -0.0625l0.375 0l0 -2.765625q0 -0.484375 -0.34375 -0.8125q-0.34375 -0.328125 -0.9375 -0.328125q-0.4375 0 -0.765625 0.1875q-0.328125 0.171875 -0.9375 0.890625l0 2.828125l0.515625 0q0.15625 0 0.21875 0.0625q0.078125 0.0625 0.078125 0.171875q0 0.09375 -0.078125 0.15625q-0.0625 0.0625 -0.21875 0.0625l-1.484375 0q-0.15625 0 -0.234375 -0.0625q-0.0625 -0.0625 -0.0625 -0.15625q0 -0.109375 0.0625 -0.171875q0.078125 -0.0625 0.234375 -0.0625l0.515625 0l0 -3.734375l-0.375 0q-0.171875 0 -0.25 -0.0625q-0.0625 -0.078125 -0.0625 -0.171875q0 -0.09375 0.0625 -0.15625q0.078125 -0.078125 0.25 -0.078125l0.828125 0zm9.554199 0.296875q0 -0.15625 0.0625 -0.21875q0.0625 -0.078125 0.15625 -0.078125q0.109375 0 0.171875 0.078125q0.0625 0.0625 0.0625 0.234375l0 0.765625q0 0.171875 -0.0625 0.25q-0.0625 0.0625 -0.171875 0.0625q-0.09375 0 -0.15625 -0.0625q-0.0625 -0.0625 -0.0625 -0.203125q-0.03125 -0.3125 -0.34375 -0.53125q-0.4375 -0.296875 -1.15625 -0.296875q-0.765625 0 -1.1875 0.3125q-0.3125 0.234375 -0.3125 0.515625q0 0.3125 0.375 0.53125q0.265625 0.15625 0.984375 0.234375q0.9375 0.09375 1.296875 0.234375q0.53125 0.1875 0.78125 0.515625q0.25 0.328125 0.25 0.71875q0 0.578125 -0.546875 1.03125q-0.546875 0.4375 -1.625 0.4375q-1.0625 0 -1.75 -0.53125q0 0.171875 -0.03125 0.234375q-0.015625 0.046875 -0.078125 0.09375q-0.046875 0.03125 -0.109375 0.03125q-0.109375 0 -0.171875 -0.0625q-0.0625 -0.078125 -0.0625 -0.234375l0 -0.9375q0 -0.15625 0.0625 -0.21875q0.0625 -0.078125 0.171875 -0.078125q0.09375 0 0.15625 0.078125q0.0625 0.0625 0.0625 0.171875q0 0.25 0.125 0.40625q0.1875 0.265625 0.59375 0.4375q0.421875 0.15625 1.015625 0.15625q0.875 0 1.296875 -0.3125q0.4375 -0.328125 0.4375 -0.703125q0 -0.421875 -0.421875 -0.671875q-0.453125 -0.25 -1.296875 -0.328125q-0.828125 -0.09375 -1.203125 -0.234375q-0.359375 -0.140625 -0.5625 -0.421875q-0.203125 -0.28125 -0.203125 -0.59375q0 -0.578125 0.5625 -0.921875q0.578125 -0.34375 1.359375 -0.34375q0.9375 0 1.53125 0.453125z" fill-rule="nonzero"/><path fill="#000000" fill-opacity="0.0" d="m306.02625 175.70866l25.417328 76.59842" fill-rule="evenodd"/><path stroke="#cccccc" stroke-width="1.0" stroke-linejoin="round" stroke-linecap="butt" d="m306.02625 175.70866l24.337982 73.34573" fill-rule="evenodd"/><path fill="#cccccc" stroke="#cccccc" stroke-width="1.0" stroke-linecap="butt" d="m330.36426 249.0544l-1.4215393 -0.71318054l2.0404358 2.578354l0.0942688 -3.2866974z" fill-rule="evenodd"/><path fill="#000000" fill-opacity="0.0" d="m315.44882 171.80052l35.496063 46.992126" fill-rule="evenodd"/><path stroke="#cccccc" stroke-width="1.0" stroke-linejoin="round" stroke-linecap="butt" d="m315.44882 171.80052l33.43045 44.257507" fill-rule="evenodd"/><path fill="#cccccc" stroke="#cccccc" stroke-width="1.0" stroke-linecap="butt" d="m348.87927 216.05803l-1.5751953 -0.21951294l2.759674 1.7876282l-0.9649658 -3.14328z" fill-rule="evenodd"/><path fill="#000000" fill-opacity="0.0" d="m321.44882 165.29921l50.48819 15.023621" fill-rule="evenodd"/><path stroke="#cccccc" stroke-width="1.0" stroke-linejoin="round" stroke-linecap="butt" d="m321.44882 165.29921l47.20346 14.046204" fill-rule="evenodd"/><path fill="#cccccc" stroke="#cccccc" stroke-width="1.0" stroke-linecap="butt" d="m368.65225 179.3454l-1.3985901 0.7571411l3.2821655 -0.19665527l-2.640686 -1.9590912z" fill-rule="evenodd"/><path fill="#000000" fill-opacity="0.0" d="m323.44882 152.80052l62.992126 -5.5118103" fill-rule="evenodd"/><path stroke="#cccccc" stroke-width="1.0" stroke-linejoin="round" stroke-linecap="butt" d="m323.44882 152.80052l59.578094 -5.2130737" fill-rule="evenodd"/><path fill="#cccccc" stroke="#cccccc" stroke-width="1.0" stroke-linecap="butt" d="m383.02692 147.58745l-1.0222778 1.2183228l2.9799805 -1.3896332l-3.176056 -0.8509674z" fill-rule="evenodd"/><path fill="#000000" fill-opacity="0.0" d="m408.34647 228.00787l-22.519684 -13.921265" fill-rule="evenodd"/><path stroke="#595959" stroke-width="1.0" stroke-linejoin="round" stroke-linecap="butt" stroke-dasharray="1.0,3.0" d="m408.34647 228.00787l-22.519684 -13.921265" fill-rule="evenodd"/><path fill="#000000" fill-opacity="0.0" d="m428.83466 88.57808c2.0 -0.083114624 8.749786 -2.0822372 12.0 -0.49868774c3.2502136 1.5835571 6.2510986 8.333336 7.5013123 10.0" fill-rule="evenodd"/><path stroke="#cccccc" stroke-width="1.0" stroke-linejoin="round" stroke-linecap="butt" d="m432.21954 88.04201l0.4338684 -0.075782776c0.5503235 -0.0933609 1.1264954 -0.18443298 1.7124023 -0.2624817c2.34375 -0.31223297 4.84375 -0.41612244 6.4688416 0.37565613c1.625061 0.7917633 3.1878662 2.8750992 4.500641 4.9688263c0.32821655 0.5234299 0.6407471 1.0475159 0.93478394 1.5522232l0.30923462 0.53630066" fill-rule="evenodd"/><path fill="#cccccc" stroke="#cccccc" stroke-width="1.0" stroke-linecap="butt" d="m432.21954 88.042l0.93481445 -1.2866516l-2.8757935 1.5940552l3.2276306 0.62742615z" fill-rule="evenodd"/><path fill="#cccccc" stroke="#cccccc" stroke-width="1.0" stroke-linecap="butt" d="m446.5793 95.13675l-1.5420227 -0.38918304l2.549347 2.0765762l-0.61813354 -3.2294388z" fill-rule="evenodd"/><path fill="#000000" fill-opacity="0.0" d="m448.44357 73.997375l60.881897 0l0 45.259842l-60.881897 0z" fill-rule="evenodd"/><path fill="#595959" d="m463.87817 88.878q0 -0.15625 0.0625 -0.21875q0.0625 -0.078125 0.15625 -0.078125q0.109375 0 0.171875 0.078125q0.0625 0.0625 0.0625 0.234375l0 0.765625q0 0.171875 -0.0625 0.25q-0.0625 0.0625 -0.171875 0.0625q-0.09375 0 -0.15625 -0.0625q-0.0625 -0.0625 -0.0625 -0.203125q-0.03125 -0.3125 -0.34375 -0.53125q-0.4375 -0.296875 -1.15625 -0.296875q-0.765625 0 -1.1875 0.3125q-0.3125 0.234375 -0.3125 0.515625q0 0.3125 0.375 0.53125q0.265625 0.15625 0.984375 0.234375q0.9375 0.09375 1.296875 0.234375q0.53125 0.1875 0.78125 0.515625q0.25 0.328125 0.25 0.71875q0 0.578125 -0.546875 1.03125q-0.546875 0.4375 -1.625 0.4375q-1.0625 0 -1.75 -0.53125q0 0.171875 -0.03125 0.234375q-0.015625 0.046875 -0.078125 0.09375q-0.046875 0.03125 -0.109375 0.03125q-0.109375 0 -0.171875 -0.0625q-0.0625 -0.078125 -0.0625 -0.234375l0 -0.9375q0 -0.15625 0.0625 -0.21875q0.0625 -0.078125 0.171875 -0.078125q0.09375 0 0.15625 0.078125q0.0625 0.0625 0.0625 0.171875q0 0.25 0.125 0.40625q0.1875 0.265625 0.59375 0.4375q0.421875 0.15625 1.015625 0.15625q0.875 0 1.296875 -0.3125q0.4375 -0.328125 0.4375 -0.703125q0 -0.421875 -0.421875 -0.671875q-0.453125 -0.25 -1.296875 -0.328125q-0.828125 -0.09375 -1.203125 -0.234375q-0.359375 -0.140625 -0.5625 -0.421875q-0.203125 -0.28125 -0.203125 -0.59375q0 -0.578125 0.5625 -0.921875q0.578125 -0.34375 1.359375 -0.34375q0.9375 0 1.53125 0.453125zm3.3979492 -0.296875l0 0.828125q0.40625 -0.484375 0.859375 -0.734375q0.46875 -0.25 1.109375 -0.25q0.65625 0 1.21875 0.3125q0.5625 0.3125 0.875 0.875q0.3125 0.546875 0.3125 1.15625q0 0.96875 -0.703125 1.671875q-0.6875 0.6875 -1.703125 0.6875q-1.203125 0 -1.96875 -0.984375l0 2.71875l1.109375 0q0.15625 0 0.21875 0.0625q0.078125 0.0625 0.078125 0.15625q0 0.09375 -0.078125 0.15625q-0.0625 0.078125 -0.21875 0.078125l-2.15625 0q-0.171875 0 -0.25 -0.0625q-0.0625 -0.0625 -0.0625 -0.171875q0 -0.09375 0.0625 -0.15625q0.078125 -0.0625 0.25 -0.0625l0.609375 0l0 -5.8125l-0.609375 0q-0.171875 0 -0.25 -0.0625q-0.0625 -0.078125 -0.0625 -0.171875q0 -0.09375 0.0625 -0.15625q0.078125 -0.078125 0.25 -0.078125l1.046875 0zm3.921875 2.1875q0 -0.78125 -0.578125 -1.328125q-0.5625 -0.5625 -1.375 -0.5625q-0.828125 0 -1.40625 0.5625q-0.5625 0.5625 -0.5625 1.328125q0 0.78125 0.5625 1.34375q0.578125 0.5625 1.40625 0.5625q0.8125 0 1.375 -0.5625q0.578125 -0.5625 0.578125 -1.34375zm3.8510742 -2.1875l0 1.140625q0.875 -0.796875 1.3125 -1.015625q0.4375 -0.234375 0.8125 -0.234375q0.40625 0 0.75 0.28125q0.34375 0.265625 0.34375 0.40625q0 0.09375 -0.078125 0.171875q-0.0625 0.0625 -0.15625 0.0625q-0.0625 0 -0.09375 -0.015625q-0.03125 -0.03125 -0.140625 -0.125q-0.1875 -0.1875 -0.328125 -0.25q-0.140625 -0.078125 -0.265625 -0.078125q-0.296875 0 -0.71875 0.234375q-0.421875 0.234375 -1.4375 1.15625l0 2.46875l2.0 0q0.15625 0 0.21875 0.0625q0.078125 0.0625 0.078125 0.171875q0 0.09375 -0.078125 0.15625q-0.0625 0.0625 -0.21875 0.0625l-3.546875 0q-0.15625 0 -0.234375 -0.0625q-0.0625 -0.0625 -0.0625 -0.15625q0 -0.09375 0.0625 -0.15625q0.0625 -0.0625 0.234375 -0.0625l1.09375 0l0 -3.75l-0.828125 0q-0.171875 0 -0.25 -0.0625q-0.0625 -0.078125 -0.0625 -0.171875q0 -0.09375 0.0625 -0.15625q0.078125 -0.078125 0.25 -0.078125l1.28125 0zm9.569824 2.4375l-4.59375 0q0.125 0.875 0.734375 1.40625q0.625 0.53125 1.53125 0.53125q0.5 0 1.046875 -0.15625q0.5625 -0.171875 0.90625 -0.4375q0.109375 -0.09375 0.171875 -0.09375q0.09375 0 0.15625 0.078125q0.0625 0.0625 0.0625 0.15625q0 0.09375 -0.078125 0.171875q-0.265625 0.265625 -0.921875 0.5q-0.65625 0.234375 -1.34375 0.234375q-1.171875 0 -1.953125 -0.75q-0.765625 -0.765625 -0.765625 -1.84375q0 -0.984375 0.71875 -1.6875q0.734375 -0.703125 1.8125 -0.703125q1.109375 0 1.8125 0.71875q0.71875 0.71875 0.703125 1.875zm-0.453125 -0.453125q-0.125 -0.75 -0.703125 -1.21875q-0.578125 -0.46875 -1.359375 -0.46875q-0.796875 0 -1.359375 0.46875q-0.5625 0.453125 -0.703125 1.21875l4.125 0zm5.913574 2.671875l0 -0.65625q-0.984375 0.828125 -2.09375 0.828125q-0.8125 0 -1.265625 -0.40625q-0.453125 -0.40625 -0.453125 -1.0q0 -0.65625 0.59375 -1.140625q0.609375 -0.5 1.75 -0.5q0.3125 0 0.671875 0.046875q0.375 0.03125 0.796875 0.125l0 -0.734375q0 -0.375 -0.34375 -0.640625q-0.34375 -0.28125 -1.03125 -0.28125q-0.515625 0 -1.46875 0.3125q-0.171875 0.046875 -0.21875 0.046875q-0.09375 0 -0.15625 -0.0625q-0.0625 -0.0625 -0.0625 -0.15625q0 -0.09375 0.0625 -0.140625q0.0625 -0.09375 0.609375 -0.234375q0.828125 -0.21875 1.265625 -0.21875q0.84375 0 1.3125 0.421875q0.484375 0.421875 0.484375 0.953125l0 2.984375l0.609375 0q0.171875 0 0.234375 0.0625q0.078125 0.0625 0.078125 0.171875q0 0.09375 -0.078125 0.15625q-0.0625 0.0625 -0.234375 0.0625l-1.0625 0zm0 -2.25q-0.3125 -0.09375 -0.671875 -0.125q-0.34375 -0.046875 -0.734375 -0.046875q-0.984375 0 -1.546875 0.421875q-0.421875 0.3125 -0.421875 0.765625q0 0.40625 0.3125 0.6875q0.328125 0.265625 0.9375 0.265625q0.59375 0 1.09375 -0.21875q0.5 -0.234375 1.03125 -0.75l0 -1.0zm7.522949 -4.484375l0 6.28125l0.59375 0q0.171875 0 0.234375 0.0625q0.078125 0.0625 0.078125 0.171875q0 0.09375 -0.078125 0.15625q-0.0625 0.0625 -0.234375 0.0625l-1.0625 0l0 -0.890625q-0.78125 1.0625 -1.984375 1.0625q-0.609375 0 -1.171875 -0.3125q-0.5625 -0.328125 -0.890625 -0.921875q-0.328125 -0.609375 -0.328125 -1.25q0 -0.640625 0.328125 -1.234375q0.328125 -0.609375 0.890625 -0.9375q0.5625 -0.328125 1.171875 -0.328125q1.1875 0 1.984375 1.078125l0 -2.546875l-0.59375 0q-0.171875 0 -0.25 -0.0625q-0.0625 -0.0625 -0.0625 -0.171875q0 -0.09375 0.0625 -0.15625q0.078125 -0.0625 0.25 -0.0625l1.0625 0zm-0.46875 4.421875q0 -0.859375 -0.578125 -1.453125q-0.578125 -0.59375 -1.375 -0.59375q-0.8125 0 -1.390625 0.59375q-0.578125 0.59375 -0.578125 1.453125q0 0.84375 0.578125 1.4375q0.578125 0.59375 1.390625 0.59375q0.796875 0 1.375 -0.59375q0.578125 -0.59375 0.578125 -1.4375z" fill-rule="nonzero"/><path fill="#595959" d="m466.9756 106.03738l0 -0.65625q-0.984375 0.828125 -2.09375 0.828125q-0.8125 0 -1.265625 -0.40625q-0.453125 -0.40625 -0.453125 -1.0q0 -0.65625 0.59375 -1.140625q0.609375 -0.5 1.75 -0.5q0.3125 0 0.671875 0.046875q0.375 0.03125 0.796875 0.125l0 -0.734375q0 -0.375 -0.34375 -0.640625q-0.34375 -0.28125 -1.03125 -0.28125q-0.515625 0 -1.46875 0.3125q-0.171875 0.046875 -0.21875 0.046875q-0.09375 0 -0.15625 -0.0625q-0.0625 -0.0625 -0.0625 -0.15625q0 -0.09375 0.0625 -0.140625q0.0625 -0.09375 0.609375 -0.234375q0.828125 -0.21875 1.265625 -0.21875q0.84375 0 1.3125 0.421875q0.484375 0.421875 0.484375 0.953125l0 2.984375l0.609375 0q0.171875 0 0.234375 0.0625q0.078125 0.0625 0.078125 0.171875q0 0.09375 -0.078125 0.15625q-0.0625 0.0625 -0.234375 0.0625l-1.0625 0zm0 -2.25q-0.3125 -0.09375 -0.671875 -0.125q-0.34375 -0.046875 -0.734375 -0.046875q-0.984375 0 -1.546875 0.421875q-0.421875 0.3125 -0.421875 0.765625q0 0.40625 0.3125 0.6875q0.328125 0.265625 0.9375 0.265625q0.59375 0 1.09375 -0.21875q0.5 -0.234375 1.03125 -0.75l0 -1.0zm3.8510742 -2.40625l0 0.6875q0.46875 -0.484375 0.84375 -0.65625q0.390625 -0.1875 0.875 -0.1875q0.515625 0 0.9375 0.21875q0.296875 0.15625 0.53125 0.53125q0.25 0.375 0.25 0.765625l0 2.84375l0.390625 0q0.15625 0 0.21875 0.0625q0.078125 0.0625 0.078125 0.171875q0 0.09375 -0.078125 0.15625q-0.0625 0.0625 -0.21875 0.0625l-1.21875 0q-0.15625 0 -0.234375 -0.0625q-0.0625 -0.0625 -0.0625 -0.15625q0 -0.109375 0.0625 -0.171875q0.078125 -0.0625 0.234375 -0.0625l0.375 0l0 -2.765625q0 -0.484375 -0.34375 -0.8125q-0.34375 -0.328125 -0.9375 -0.328125q-0.4375 0 -0.765625 0.1875q-0.328125 0.171875 -0.9375 0.890625l0 2.828125l0.515625 0q0.15625 0 0.21875 0.0625q0.078125 0.0625 0.078125 0.171875q0 0.09375 -0.078125 0.15625q-0.0625 0.0625 -0.21875 0.0625l-1.484375 0q-0.15625 0 -0.234375 -0.0625q-0.0625 -0.0625 -0.0625 -0.15625q0 -0.109375 0.0625 -0.171875q0.078125 -0.0625 0.234375 -0.0625l0.515625 0l0 -3.734375l-0.375 0q-0.171875 0 -0.25 -0.0625q-0.0625 -0.078125 -0.0625 -0.171875q0 -0.09375 0.0625 -0.15625q0.078125 -0.078125 0.25 -0.078125l0.828125 0zm9.569824 0.828125l0 -0.828125l1.0625 0q0.15625 0 0.21875 0.078125q0.078125 0.0625 0.078125 0.15625q0 0.09375 -0.078125 0.171875q-0.0625 0.0625 -0.21875 0.0625l-0.609375 0l0 4.5q0 0.453125 -0.1875 0.8125q-0.125 0.234375 -0.4375 0.484375q-0.296875 0.25 -0.546875 0.359375q-0.25 0.109375 -0.65625 0.109375l-1.28125 0q-0.15625 0 -0.234375 -0.0625q-0.0625 -0.0625 -0.0625 -0.171875q0 -0.09375 0.0625 -0.171875q0.078125 -0.0625 0.234375 -0.0625l1.296875 0.015625q0.390625 0 0.703125 -0.203125q0.328125 -0.203125 0.546875 -0.59375q0.109375 -0.234375 0.109375 -0.578125l0 -1.359375q-0.71875 1.0 -1.859375 1.0q-0.9375 0 -1.609375 -0.6875q-0.671875 -0.703125 -0.671875 -1.671875q0 -0.96875 0.671875 -1.65625q0.671875 -0.6875 1.609375 -0.6875q1.140625 0 1.859375 0.984375zm0 1.359375q0 -0.796875 -0.546875 -1.34375q-0.53125 -0.546875 -1.296875 -0.546875q-0.75 0 -1.296875 0.5625q-0.546875 0.546875 -0.546875 1.328125q0 0.796875 0.546875 1.359375q0.546875 0.546875 1.296875 0.546875q0.765625 0 1.296875 -0.546875q0.546875 -0.5625 0.546875 -1.359375zm5.319824 -4.265625l0 6.28125l1.765625 0q0.171875 0 0.234375 0.0625q0.078125 0.0625 0.078125 0.171875q0 0.09375 -0.078125 0.15625q-0.0625 0.0625 -0.234375 0.0625l-3.984375 0q-0.171875 0 -0.25 -0.0625q-0.0625 -0.0625 -0.0625 -0.15625q0 -0.109375 0.0625 -0.171875q0.078125 -0.0625 0.25 -0.0625l1.765625 0l0 -5.828125l-1.296875 0q-0.171875 0 -0.25 -0.0625q-0.0625 -0.0625 -0.0625 -0.171875q0 -0.09375 0.0625 -0.15625q0.078125 -0.0625 0.25 -0.0625l1.75 0zm8.804199 4.515625l-4.59375 0q0.125 0.875 0.734375 1.40625q0.625 0.53125 1.53125 0.53125q0.5 0 1.046875 -0.15625q0.5625 -0.171875 0.90625 -0.4375q0.109375 -0.09375 0.171875 -0.09375q0.09375 0 0.15625 0.078125q0.0625 0.0625 0.0625 0.15625q0 0.09375 -0.078125 0.171875q-0.265625 0.265625 -0.921875 0.5q-0.65625 0.234375 -1.34375 0.234375q-1.171875 0 -1.953125 -0.75q-0.765625 -0.765625 -0.765625 -1.84375q0 -0.984375 0.71875 -1.6875q0.734375 -0.703125 1.8125 -0.703125q1.109375 0 1.8125 0.71875q0.71875 0.71875 0.703125 1.875zm-0.453125 -0.453125q-0.125 -0.75 -0.703125 -1.21875q-0.578125 -0.46875 -1.359375 -0.46875q-0.796875 0 -1.359375 0.46875q-0.5625 0.453125 -0.703125 1.21875l4.125 0z" fill-rule="nonzero"/></g></svg>