<svg version="1.1" viewBox="0.0 0.0 960.0 540.0" fill="none" stroke="none" stroke-linecap="square" stroke-miterlimit="10" xmlns:xlink="http://www.w3.org/1999/xlink" xmlns="http://www.w3.org/2000/svg"><clipPath id="g2a24603c1d3_0_0.0"><path d="m0 0l960.0 0l0 540.0l-960.0 0l0 -540.0z" clip-rule="nonzero"/></clipPath><g clip-path="url(#g2a24603c1d3_0_0.0)"><path fill="#ffffff" d="m0 0l960.0 0l0 540.0l-960.0 0z" fill-rule="evenodd"/><path fill="#000000" fill-opacity="0.0" d="m352.37796 360.14172l29.29132 3.6535645" fill-rule="evenodd"/><path stroke="#595959" stroke-width="1.0" stroke-linejoin="round" stroke-linecap="butt" stroke-dasharray="1.0,3.0" d="m352.37796 360.14172l29.29132 3.6535645" fill-rule="evenodd"/><path fill="#000000" fill-opacity="0.0" d="m296.03674 352.39896l0 -64.0" fill-rule="evenodd"/><path stroke="#cccccc" stroke-width="1.0" stroke-linejoin="round" stroke-linecap="butt" d="m296.03674 352.39896l0 -60.572937" fill-rule="evenodd"/><path fill="#cccccc" stroke="#cccccc" stroke-width="1.0" stroke-linecap="butt" d="m296.03674 291.82605l1.1245728 1.1245728l-1.1245728 -3.0897827l-1.1245728 3.0897827z" fill-rule="evenodd"/><path fill="#000000" fill-opacity="0.0" d="m295.958 352.18634l56.06299 8.2204895" fill-rule="evenodd"/><path stroke="#cccccc" stroke-width="1.0" stroke-linejoin="round" stroke-linecap="butt" d="m295.958 352.18634l52.67215 7.7232666" fill-rule="evenodd"/><path fill="#cccccc" stroke="#cccccc" stroke-width="1.0" stroke-linecap="butt" d="m348.63016 359.90964l-1.2758179 0.9495239l3.2202148 -0.6644287l-2.893921 -1.5609436z" fill-rule="evenodd"/><path fill="#000000" fill-opacity="0.0" d="m296.03937 352.08923l-46.67717 25.7323" fill-rule="evenodd"/><path stroke="#cccccc" stroke-width="1.0" stroke-linejoin="round" stroke-linecap="butt" d="m296.03937 352.08923l-43.67592 24.077759" fill-rule="evenodd"/><path fill="#cccccc" stroke="#cccccc" stroke-width="1.0" stroke-linecap="butt" d="m252.36345 376.167l0.4419098 -1.527771l-2.1629028 2.476532l3.248764 -0.50683594z" fill-rule="evenodd"/><path fill="#000000" fill-opacity="0.0" d="m271.48032 275.89502l23.055115 0l0 32.31494l-23.055115 0z" fill-rule="evenodd"/><path fill="#595959" d="m283.80844 295.135l-2.09375 -4.1875l-0.140625 0q-0.15625 0 -0.234375 -0.0625q-0.0625 -0.078125 -0.0625 -0.171875q0 -0.0625 0.03125 -0.125q0.046875 -0.0625 0.09375 -0.078125q0.0625 -0.03125 0.171875 -0.03125l1.25 0q0.15625 0 0.21875 0.078125q0.078125 0.0625 0.078125 0.15625q0 0.09375 -0.078125 0.171875q-0.0625 0.0625 -0.21875 0.0625l-0.609375 0l1.84375 3.6875l1.8125 -3.6875l-0.609375 0q-0.15625 0 -0.234375 -0.0625q-0.0625 -0.078125 -0.0625 -0.171875q0 -0.09375 0.0625 -0.15625q0.078125 -0.078125 0.234375 -0.078125l1.234375 0q0.15625 0 0.21875 0.078125q0.078125 0.0625 0.078125 0.15625q0 0.078125 -0.046875 0.140625q-0.03125 0.046875 -0.09375 0.078125q-0.046875 0.015625 -0.296875 0.015625l-2.859375 5.8125l0.703125 0q0.171875 0 0.234375 0.0625q0.0625 0.0625 0.0625 0.15625q0 0.09375 -0.0625 0.15625q-0.0625 0.078125 -0.234375 0.078125l-2.59375 0q-0.15625 0 -0.234375 -0.0625q-0.0625 -0.0625 -0.0625 -0.171875q0 -0.09375 0.0625 -0.15625q0.078125 -0.0625 0.234375 -0.0625l1.40625 0l0.796875 -1.625z" fill-rule="nonzero"/><path fill="#000000" fill-opacity="0.0" d="m322.48032 351.89502l23.055115 0l0 32.31494l-23.055115 0z" fill-rule="evenodd"/><path fill="#595959" d="m335.0897 368.6975l2.0625 1.984375q0.203125 0 0.25 0.03125q0.0625 0.015625 0.09375 0.078125q0.046875 0.046875 0.046875 0.125q0 0.09375 -0.0625 0.15625q-0.0625 0.0625 -0.234375 0.0625l-1.453125 0q-0.171875 0 -0.25 -0.0625q-0.0625 -0.0625 -0.0625 -0.15625q0 -0.109375 0.0625 -0.171875q0.078125 -0.0625 0.25 -0.0625l0.75 0l-1.765625 -1.671875l-1.734375 1.671875l0.75 0q0.15625 0 0.21875 0.0625q0.078125 0.0625 0.078125 0.171875q0 0.09375 -0.078125 0.15625q-0.0625 0.0625 -0.21875 0.0625l-1.46875 0q-0.15625 0 -0.234375 -0.0625q-0.0625 -0.0625 -0.0625 -0.15625q0 -0.078125 0.03125 -0.125q0.046875 -0.0625 0.09375 -0.078125q0.046875 -0.03125 0.25 -0.03125l2.078125 -1.984375l-1.84375 -1.75q-0.1875 0 -0.25 -0.015625q-0.046875 -0.03125 -0.09375 -0.09375q-0.03125 -0.0625 -0.03125 -0.125q0 -0.09375 0.0625 -0.15625q0.078125 -0.078125 0.25 -0.078125l1.234375 0q0.15625 0 0.21875 0.078125q0.078125 0.0625 0.078125 0.15625q0 0.09375 -0.078125 0.171875q-0.0625 0.0625 -0.21875 0.0625l-0.546875 0l1.515625 1.453125l1.53125 -1.453125l-0.53125 0q-0.15625 0 -0.234375 -0.0625q-0.078125 -0.078125 -0.078125 -0.171875q0 -0.09375 0.0625 -0.15625q0.078125 -0.078125 0.25 -0.078125l1.234375 0q0.15625 0 0.21875 0.078125q0.078125 0.0625 0.078125 0.15625q0 0.0625 -0.046875 0.125q-0.03125 0.0625 -0.09375 0.09375q-0.046875 0.015625 -0.234375 0.015625l-1.84375 1.75z" fill-rule="nonzero"/><path fill="#000000" fill-opacity="0.0" d="m242.979 339.39633l23.055115 0l0 32.31494l-23.055115 0z" fill-rule="evenodd"/><path fill="#595959" d="m257.26025 353.98007l0 0.40625l-3.390625 3.796875l3.0625 0l0 -0.625q0 -0.15625 0.0625 -0.21875q0.0625 -0.078125 0.15625 -0.078125q0.109375 0 0.171875 0.078125q0.0625 0.0625 0.0625 0.21875l-0.015625 1.078125l-4.125 0l0 -0.40625l3.375 -3.78125l-2.8125 0l0 0.609375q0 0.15625 -0.0625 0.234375q-0.0625 0.0625 -0.15625 0.0625q-0.109375 0 -0.171875 -0.0625q-0.0625 -0.078125 -0.0625 -0.234375l0 -1.078125l3.90625 0z" fill-rule="nonzero"/><path fill="#000000" fill-opacity="0.0" d="m155.40683 244.20735l0 -64.0" fill-rule="evenodd"/><path stroke="#cccccc" stroke-width="1.0" stroke-linejoin="round" stroke-linecap="butt" d="m155.40683 244.20735l0 -60.57292" fill-rule="evenodd"/><path fill="#cccccc" stroke="#cccccc" stroke-width="1.0" stroke-linecap="butt" d="m155.40683 183.63443l1.1245728 1.124588l-1.1245728 -3.0897675l-1.124588 3.0897675z" fill-rule="evenodd"/><path fill="#000000" fill-opacity="0.0" d="m155.32808 243.99475l39.84253 27.149597" fill-rule="evenodd"/><path stroke="#cccccc" stroke-width="1.0" stroke-linejoin="round" stroke-linecap="butt" d="m155.32808 243.99475l37.010437 25.219788" fill-rule="evenodd"/><path fill="#cccccc" stroke="#cccccc" stroke-width="1.0" stroke-linecap="butt" d="m192.33853 269.2145l-1.5626068 0.29608154l3.1865997 0.8105469l-1.9200592 -2.66922z" fill-rule="evenodd"/><path fill="#000000" fill-opacity="0.0" d="m155.40945 243.89764l54.771652 -15.244095" fill-rule="evenodd"/><path stroke="#cccccc" stroke-width="1.0" stroke-linejoin="round" stroke-linecap="butt" d="m155.40945 243.89764l51.470062 -14.325195" fill-rule="evenodd"/><path fill="#cccccc" stroke="#cccccc" stroke-width="1.0" stroke-linecap="butt" d="m206.8795 229.57245l-0.78186035 1.3849335l2.6750946 -1.9118652l-3.2781677 -0.25494385z" fill-rule="evenodd"/><path fill="#000000" fill-opacity="0.0" d="m130.85039 167.70341l23.05513 0l0 32.314957l-23.05513 0z" fill-rule="evenodd"/><path fill="#595959" d="m145.13164 182.28716l0 0.40625l-3.390625 3.796875l3.0625 0l0 -0.625q0 -0.15625 0.0625 -0.21875q0.0625 -0.078125 0.15625 -0.078125q0.109375 0 0.171875 0.078125q0.0625 0.0625 0.0625 0.21875l-0.015625 1.078125l-4.125 0l0 -0.40625l3.375 -3.78125l-2.8125 0l0 0.609375q0 0.15625 -0.0625 0.234375q-0.0625 0.0625 -0.15625 0.0625q-0.109375 0 -0.171875 -0.0625q-0.0625 -0.078125 -0.0625 -0.234375l0 -1.078125l3.90625 0z" fill-rule="nonzero"/><path fill="#000000" fill-opacity="0.0" d="m163.85039 253.20473l23.05513 0l0 32.314957l-23.05513 0z" fill-rule="evenodd"/><path fill="#595959" d="m176.45976 270.00723l2.0625 1.984375q0.203125 0 0.25 0.03125q0.0625 0.015625 0.09375 0.078125q0.046875 0.046875 0.046875 0.125q0 0.09375 -0.0625 0.15625q-0.0625 0.0625 -0.234375 0.0625l-1.453125 0q-0.171875 0 -0.25 -0.0625q-0.0625 -0.0625 -0.0625 -0.15625q0 -0.109375 0.0625 -0.171875q0.078125 -0.0625 0.25 -0.0625l0.75 0l-1.765625 -1.671875l-1.734375 1.671875l0.75 0q0.15625 0 0.21875 0.0625q0.078125 0.0625 0.078125 0.171875q0 0.09375 -0.078125 0.15625q-0.0625 0.0625 -0.21875 0.0625l-1.46875 0q-0.15625 0 -0.234375 -0.0625q-0.0625 -0.0625 -0.0625 -0.15625q0 -0.078125 0.03125 -0.125q0.046875 -0.0625 0.09375 -0.078125q0.046875 -0.03125 0.25 -0.03125l2.078125 -1.984375l-1.84375 -1.75q-0.1875 0 -0.25 -0.015625q-0.046875 -0.03125 -0.09375 -0.09375q-0.03125 -0.0625 -0.03125 -0.125q0 -0.09375 0.0625 -0.15625q0.078125 -0.078125 0.25 -0.078125l1.234375 0q0.15625 0 0.21875 0.078125q0.078125 0.0625 0.078125 0.15625q0 0.09375 -0.078125 0.171875q-0.0625 0.0625 -0.21875 0.0625l-0.546875 0l1.515625 1.453125l1.53125 -1.453125l-0.53125 0q-0.15625 0 -0.234375 -0.0625q-0.078125 -0.078125 -0.078125 -0.171875q0 -0.09375 0.0625 -0.15625q0.078125 -0.078125 0.25 -0.078125l1.234375 0q0.15625 0 0.21875 0.078125q0.078125 0.0625 0.078125 0.15625q0 0.0625 -0.046875 0.125q-0.03125 0.0625 -0.09375 0.09375q-0.046875 0.015625 -0.234375 0.015625l-1.84375 1.75z" fill-rule="nonzero"/><path fill="#000000" fill-opacity="0.0" d="m185.34908 201.70866l23.05513 0l0 32.314957l-23.05513 0z" fill-rule="evenodd"/><path fill="#595959" d="m197.6772 220.94865l-2.09375 -4.1875l-0.140625 0q-0.15625 0 -0.234375 -0.0625q-0.0625 -0.078125 -0.0625 -0.171875q0 -0.0625 0.03125 -0.125q0.046875 -0.0625 0.09375 -0.078125q0.0625 -0.03125 0.171875 -0.03125l1.25 0q0.15625 0 0.21875 0.078125q0.078125 0.0625 0.078125 0.15625q0 0.09375 -0.078125 0.171875q-0.0625 0.0625 -0.21875 0.0625l-0.609375 0l1.84375 3.6875l1.8125 -3.6875l-0.609375 0q-0.15625 0 -0.234375 -0.0625q-0.0625 -0.078125 -0.0625 -0.171875q0 -0.09375 0.0625 -0.15625q0.078125 -0.078125 0.234375 -0.078125l1.234375 0q0.15625 0 0.21875 0.078125q0.078125 0.0625 0.078125 0.15625q0 0.078125 -0.046875 0.140625q-0.03125 0.046875 -0.09375 0.078125q-0.046875 0.015625 -0.296875 0.015625l-2.859375 5.8125l0.703125 0q0.171875 0 0.234375 0.0625q0.0625 0.0625 0.0625 0.15625q0 0.09375 -0.0625 0.15625q-0.0625 0.078125 -0.234375 0.078125l-2.59375 0q-0.15625 0 -0.234375 -0.0625q-0.0625 -0.0625 -0.0625 -0.171875q0 -0.09375 0.0625 -0.15625q0.078125 -0.0625 0.234375 -0.0625l1.40625 0l0.796875 -1.625z" fill-rule="nonzero"/><path fill="#000000" fill-opacity="0.0" d="m72.002625 214.68504l88.0 0l0 45.259842l-88.0 0z" fill-rule="evenodd"/><path fill="#595959" d="m89.063416 229.26878l0 1.140625q0.875 -0.796875 1.3125 -1.015625q0.4375 -0.234375 0.8125 -0.234375q0.40625 0 0.75 0.28125q0.34375 0.265625 0.34375 0.40625q0 0.09375 -0.078125 0.171875q-0.0625 0.0625 -0.15625 0.0625q-0.0625 0 -0.09375 -0.015625q-0.03125 -0.03125 -0.140625 -0.125q-0.1875 -0.1875 -0.328125 -0.25q-0.140625 -0.078125 -0.265625 -0.078125q-0.296875 0 -0.71875 0.234375q-0.421875 0.234375 -1.4375 1.15625l0 2.46875l2.0 0q0.15625 0 0.21875 0.0625q0.078125 0.0625 0.078125 0.171875q0 0.09375 -0.078125 0.15625q-0.0625 0.0625 -0.21875 0.0625l-3.546875 0q-0.15625 0 -0.234375 -0.0625q-0.0625 -0.0625 -0.0625 -0.15625q0 -0.09375 0.0625 -0.15625q0.0625 -0.0625 0.234375 -0.0625l1.09375 0l0 -3.75l-0.828125 0q-0.171875 0 -0.25 -0.0625q-0.0625 -0.078125 -0.0625 -0.171875q0 -0.09375 0.0625 -0.15625q0.078125 -0.078125 0.25 -0.078125l1.28125 0zm9.569824 2.4375l-4.59375 0q0.125 0.875 0.734375 1.40625q0.625 0.53125 1.53125 0.53125q0.5 0 1.046875 -0.15625q0.5625 -0.171875 0.90625 -0.4375q0.109375 -0.09375 0.171875 -0.09375q0.09375 0 0.15625 0.078125q0.0625 0.0625 0.0625 0.15625q0 0.09375 -0.078125 0.171875q-0.265625 0.265625 -0.921875 0.5q-0.65625 0.234375 -1.34375 0.234375q-1.171875 0 -1.953125 -0.75q-0.765625 -0.765625 -0.765625 -1.84375q0 -0.984375 0.71875 -1.6875q0.734375 -0.703125 1.8125 -0.703125q1.109375 0 1.8125 0.71875q0.71875 0.71875 0.703125 1.875zm-0.453125 -0.453125q-0.125 -0.75 -0.703125 -1.21875q-0.578125 -0.46875 -1.359375 -0.46875q-0.796875 0 -1.359375 0.46875q-0.5625 0.453125 -0.703125 1.21875l4.125 0zm4.319824 -1.515625l0 3.734375l1.984375 0q0.15625 0 0.21875 0.0625q0.078125 0.0625 0.078125 0.171875q0 0.09375 -0.078125 0.15625q-0.0625 0.0625 -0.21875 0.0625l-3.53125 0q-0.15625 0 -0.234375 -0.0625q-0.0625 -0.0625 -0.0625 -0.15625q0 -0.109375 0.0625 -0.171875q0.078125 -0.0625 0.234375 -0.0625l1.09375 0l0 -3.734375l-0.984375 0q-0.15625 0 -0.234375 -0.0625q-0.0625 -0.078125 -0.0625 -0.171875q0 -0.09375 0.0625 -0.15625q0.078125 -0.078125 0.234375 -0.078125l0.984375 0l0 -0.671875q0 -0.578125 0.453125 -0.984375q0.46875 -0.421875 1.234375 -0.421875q0.640625 0 1.359375 0.109375q0.28125 0.046875 0.328125 0.109375q0.0625 0.046875 0.0625 0.15625q0 0.09375 -0.0625 0.15625q-0.0625 0.0625 -0.171875 0.0625q-0.046875 0 -0.140625 -0.015625q-0.8125 -0.125 -1.375 -0.125q-0.59375 0 -0.921875 0.296875q-0.3125 0.28125 -0.3125 0.65625l0 0.671875l2.109375 0q0.171875 0 0.234375 0.078125q0.078125 0.0625 0.078125 0.15625q0 0.09375 -0.078125 0.171875q-0.0625 0.0625 -0.234375 0.0625l-2.109375 0zm9.335449 1.96875l-4.59375 0q0.125 0.875 0.734375 1.40625q0.625 0.53125 1.53125 0.53125q0.5 0 1.046875 -0.15625q0.5625 -0.171875 0.90625 -0.4375q0.109375 -0.09375 0.171875 -0.09375q0.09375 0 0.15625 0.078125q0.0625 0.0625 0.0625 0.15625q0 0.09375 -0.078125 0.171875q-0.265625 0.265625 -0.921875 0.5q-0.65625 0.234375 -1.34375 0.234375q-1.171875 0 -1.953125 -0.75q-0.765625 -0.765625 -0.765625 -1.84375q0 -0.984375 0.71875 -1.6875q0.734375 -0.703125 1.8125 -0.703125q1.109375 0 1.8125 0.71875q0.71875 0.71875 0.703125 1.875zm-0.453125 -0.453125q-0.125 -0.75 -0.703125 -1.21875q-0.578125 -0.46875 -1.359375 -0.46875q-0.796875 0 -1.359375 0.46875q-0.5625 0.453125 -0.703125 1.21875l4.125 0zm4.085449 -1.984375l0 1.140625q0.875 -0.796875 1.3125 -1.015625q0.4375 -0.234375 0.8125 -0.234375q0.40625 0 0.75 0.28125q0.34375 0.265625 0.34375 0.40625q0 0.09375 -0.078125 0.171875q-0.0625 0.0625 -0.15625 0.0625q-0.0625 0 -0.09375 -0.015625q-0.03125 -0.03125 -0.140625 -0.125q-0.1875 -0.1875 -0.328125 -0.25q-0.140625 -0.078125 -0.265625 -0.078125q-0.296875 0 -0.71875 0.234375q-0.421875 0.234375 -1.4375 1.15625l0 2.46875l2.0 0q0.15625 0 0.21875 0.0625q0.078125 0.0625 0.078125 0.171875q0 0.09375 -0.078125 0.15625q-0.0625 0.0625 -0.21875 0.0625l-3.546875 0q-0.15625 0 -0.234375 -0.0625q-0.0625 -0.0625 -0.0625 -0.15625q0 -0.09375 0.0625 -0.15625q0.0625 -0.0625 0.234375 -0.0625l1.09375 0l0 -3.75l-0.828125 0q-0.171875 0 -0.25 -0.0625q-0.0625 -0.078125 -0.0625 -0.171875q0 -0.09375 0.0625 -0.15625q0.078125 -0.078125 0.25 -0.078125l1.28125 0zm9.569824 2.4375l-4.59375 0q0.125 0.875 0.734375 1.40625q0.625 0.53125 1.53125 0.53125q0.5 0 1.046875 -0.15625q0.5625 -0.171875 0.90625 -0.4375q0.109375 -0.09375 0.171875 -0.09375q0.09375 0 0.15625 0.078125q0.0625 0.0625 0.0625 0.15625q0 0.09375 -0.078125 0.171875q-0.265625 0.265625 -0.921875 0.5q-0.65625 0.234375 -1.34375 0.234375q-1.171875 0 -1.953125 -0.75q-0.765625 -0.765625 -0.765625 -1.84375q0 -0.984375 0.71875 -1.6875q0.734375 -0.703125 1.8125 -0.703125q1.109375 0 1.8125 0.71875q0.71875 0.71875 0.703125 1.875zm-0.453125 -0.453125q-0.125 -0.75 -0.703125 -1.21875q-0.578125 -0.46875 -1.359375 -0.46875q-0.796875 0 -1.359375 0.46875q-0.5625 0.453125 -0.703125 1.21875l4.125 0zm3.1635742 -1.984375l0 0.6875q0.46875 -0.484375 0.84375 -0.65625q0.390625 -0.1875 0.875 -0.1875q0.515625 0 0.9375 0.21875q0.296875 0.15625 0.53125 0.53125q0.25 0.375 0.25 0.765625l0 2.84375l0.390625 0q0.15625 0 0.21875 0.0625q0.078125 0.0625 0.078125 0.171875q0 0.09375 -0.078125 0.15625q-0.0625 0.0625 -0.21875 0.0625l-1.21875 0q-0.15625 0 -0.234375 -0.0625q-0.0625 -0.0625 -0.0625 -0.15625q0 -0.109375 0.0625 -0.171875q0.078125 -0.0625 0.234375 -0.0625l0.375 0l0 -2.765625q0 -0.484375 -0.34375 -0.8125q-0.34375 -0.328125 -0.9375 -0.328125q-0.4375 0 -0.765625 0.1875q-0.328125 0.171875 -0.9375 0.890625l0 2.828125l0.515625 0q0.15625 0 0.21875 0.0625q0.078125 0.0625 0.078125 0.171875q0 0.09375 -0.078125 0.15625q-0.0625 0.0625 -0.21875 0.0625l-1.484375 0q-0.15625 0 -0.234375 -0.0625q-0.0625 -0.0625 -0.0625 -0.15625q0 -0.109375 0.0625 -0.171875q0.078125 -0.0625 0.234375 -0.0625l0.515625 0l0 -3.734375l-0.375 0q-0.171875 0 -0.25 -0.0625q-0.0625 -0.078125 -0.0625 -0.171875q0 -0.09375 0.0625 -0.15625q0.078125 -0.078125 0.25 -0.078125l0.828125 0zm9.944824 0.46875l0 -0.15625q0 -0.171875 0.0625 -0.234375q0.0625 -0.078125 0.15625 -0.078125q0.109375 0 0.171875 0.078125q0.0625 0.0625 0.0625 0.234375l0 1.015625q0 0.171875 -0.0625 0.25q-0.0625 0.0625 -0.171875 0.0625q-0.09375 0 -0.15625 -0.0625q-0.0625 -0.0625 -0.0625 -0.203125q-0.03125 -0.390625 -0.5 -0.734375q-0.46875 -0.34375 -1.265625 -0.34375q-1.015625 0 -1.53125 0.640625q-0.515625 0.625 -0.515625 1.4375q0 0.875 0.5625 1.4375q0.578125 0.5625 1.5 0.5625q0.515625 0 1.0625 -0.1875q0.546875 -0.1875 0.984375 -0.625q0.125 -0.109375 0.203125 -0.109375q0.09375 0 0.15625 0.0625q0.0625 0.0625 0.0625 0.15625q0 0.234375 -0.546875 0.59375q-0.875 0.5625 -1.953125 0.5625q-1.078125 0 -1.78125 -0.6875q-0.703125 -0.703125 -0.703125 -1.765625q0 -1.09375 0.71875 -1.8125q0.71875 -0.71875 1.796875 -0.71875q1.046875 0 1.75 0.625zm7.147949 1.96875l-4.59375 0q0.125 0.875 0.734375 1.40625q0.625 0.53125 1.53125 0.53125q0.5 0 1.046875 -0.15625q0.5625 -0.171875 0.90625 -0.4375q0.109375 -0.09375 0.171875 -0.09375q0.09375 0 0.15625 0.078125q0.0625 0.0625 0.0625 0.15625q0 0.09375 -0.078125 0.171875q-0.265625 0.265625 -0.921875 0.5q-0.65625 0.234375 -1.34375 0.234375q-1.171875 0 -1.953125 -0.75q-0.765625 -0.765625 -0.765625 -1.84375q0 -0.984375 0.71875 -1.6875q0.734375 -0.703125 1.8125 -0.703125q1.109375 0 1.8125 0.71875q0.71875 0.71875 0.703125 1.875zm-0.453125 -0.453125q-0.125 -0.75 -0.703125 -1.21875q-0.578125 -0.46875 -1.359375 -0.46875q-0.796875 0 -1.359375 0.46875q-0.5625 0.453125 -0.703125 1.21875l4.125 0z" fill-rule="nonzero"/><path fill="#595959" d="m102.49994 242.53754l0 3.734375l1.984375 0q0.15625 0 0.21875 0.0625q0.078125 0.0625 0.078125 0.171875q0 0.09375 -0.078125 0.15625q-0.0625 0.0625 -0.21875 0.0625l-3.53125 0q-0.15625 0 -0.234375 -0.0625q-0.0625 -0.0625 -0.0625 -0.15625q0 -0.109375 0.0625 -0.171875q0.078125 -0.0625 0.234375 -0.0625l1.09375 0l0 -3.734375l-0.984375 0q-0.15625 0 -0.234375 -0.0625q-0.0625 -0.078125 -0.0625 -0.171875q0 -0.09375 0.0625 -0.15625q0.078125 -0.078125 0.234375 -0.078125l0.984375 0l0 -0.671875q0 -0.578125 0.453125 -0.984375q0.46875 -0.421875 1.234375 -0.421875q0.640625 0 1.359375 0.109375q0.28125 0.046875 0.328125 0.109375q0.0625 0.046875 0.0625 0.15625q0 0.09375 -0.0625 0.15625q-0.0625 0.0625 -0.171875 0.0625q-0.046875 0 -0.140625 -0.015625q-0.8125 -0.125 -1.375 -0.125q-0.59375 0 -0.921875 0.296875q-0.3125 0.28125 -0.3125 0.65625l0 0.671875l2.109375 0q0.171875 0 0.234375 0.078125q0.078125 0.0625 0.078125 0.15625q0 0.09375 -0.078125 0.171875q-0.0625 0.0625 -0.234375 0.0625l-2.109375 0zm6.366699 -0.46875l0 1.140625q0.875 -0.796875 1.3125 -1.015625q0.4375 -0.234375 0.8125 -0.234375q0.40625 0 0.75 0.28125q0.34375 0.265625 0.34375 0.40625q0 0.09375 -0.078125 0.171875q-0.0625 0.0625 -0.15625 0.0625q-0.0625 0 -0.09375 -0.015625q-0.03125 -0.03125 -0.140625 -0.125q-0.1875 -0.1875 -0.328125 -0.25q-0.140625 -0.078125 -0.265625 -0.078125q-0.296875 0 -0.71875 0.234375q-0.421875 0.234375 -1.4375 1.15625l0 2.46875l2.0 0q0.15625 0 0.21875 0.0625q0.078125 0.0625 0.078125 0.171875q0 0.09375 -0.078125 0.15625q-0.0625 0.0625 -0.21875 0.0625l-3.546875 0q-0.15625 0 -0.234375 -0.0625q-0.0625 -0.0625 -0.0625 -0.15625q0 -0.09375 0.0625 -0.15625q0.0625 -0.0625 0.234375 -0.0625l1.09375 0l0 -3.75l-0.828125 0q-0.171875 0 -0.25 -0.0625q-0.0625 -0.078125 -0.0625 -0.171875q0 -0.09375 0.0625 -0.15625q0.078125 -0.078125 0.25 -0.078125l1.28125 0zm8.429199 4.65625l0 -0.65625q-0.984375 0.828125 -2.09375 0.828125q-0.8125 0 -1.265625 -0.40625q-0.453125 -0.40625 -0.453125 -1.0q0 -0.65625 0.59375 -1.140625q0.609375 -0.5 1.75 -0.5q0.3125 0 0.671875 0.046875q0.375 0.03125 0.796875 0.125l0 -0.734375q0 -0.375 -0.34375 -0.640625q-0.34375 -0.28125 -1.03125 -0.28125q-0.515625 0 -1.46875 0.3125q-0.171875 0.046875 -0.21875 0.046875q-0.09375 0 -0.15625 -0.0625q-0.0625 -0.0625 -0.0625 -0.15625q0 -0.09375 0.0625 -0.140625q0.0625 -0.09375 0.609375 -0.234375q0.828125 -0.21875 1.265625 -0.21875q0.84375 0 1.3125 0.421875q0.484375 0.421875 0.484375 0.953125l0 2.984375l0.609375 0q0.171875 0 0.234375 0.0625q0.078125 0.0625 0.078125 0.171875q0 0.09375 -0.078125 0.15625q-0.0625 0.0625 -0.234375 0.0625l-1.0625 0zm0 -2.25q-0.3125 -0.09375 -0.671875 -0.125q-0.34375 -0.046875 -0.734375 -0.046875q-0.984375 0 -1.546875 0.421875q-0.421875 0.3125 -0.421875 0.765625q0 0.40625 0.3125 0.6875q0.328125 0.265625 0.9375 0.265625q0.59375 0 1.09375 -0.21875q0.5 -0.234375 1.03125 -0.75l0 -1.0zm3.2573242 -2.40625l0 0.46875q0.578125 -0.625 1.15625 -0.625q0.34375 0 0.609375 0.1875q0.265625 0.1875 0.4375 0.5625q0.296875 -0.375 0.609375 -0.5625q0.3125 -0.1875 0.625 -0.1875q0.484375 0 0.78125 0.3125q0.375 0.40625 0.375 0.890625l0 3.15625l0.375 0q0.171875 0 0.234375 0.0625q0.078125 0.0625 0.078125 0.171875q0 0.09375 -0.078125 0.15625q-0.0625 0.0625 -0.234375 0.0625l-0.828125 0l0 -3.5625q0 -0.34375 -0.21875 -0.5625q-0.203125 -0.234375 -0.46875 -0.234375q-0.25 0 -0.53125 0.1875q-0.265625 0.1875 -0.609375 0.734375l0 2.984375l0.375 0q0.15625 0 0.21875 0.0625q0.078125 0.0625 0.078125 0.171875q0 0.09375 -0.078125 0.15625q-0.0625 0.0625 -0.21875 0.0625l-0.84375 0l0 -3.53125q0 -0.359375 -0.21875 -0.59375q-0.203125 -0.234375 -0.46875 -0.234375q-0.234375 0 -0.46875 0.15625q-0.328125 0.21875 -0.6875 0.765625l0 2.984375l0.375 0q0.15625 0 0.21875 0.0625q0.078125 0.0625 0.078125 0.171875q0 0.09375 -0.078125 0.15625q-0.0625 0.0625 -0.21875 0.0625l-1.21875 0q-0.15625 0 -0.234375 -0.0625q-0.0625 -0.0625 -0.0625 -0.15625q0 -0.109375 0.0625 -0.171875q0.078125 -0.0625 0.234375 -0.0625l0.390625 0l0 -3.734375l-0.390625 0q-0.15625 0 -0.234375 -0.0625q-0.0625 -0.078125 -0.0625 -0.171875q0 -0.09375 0.0625 -0.15625q0.078125 -0.078125 0.234375 -0.078125l0.84375 0zm11.085449 2.4375l-4.59375 0q0.125 0.875 0.734375 1.40625q0.625 0.53125 1.53125 0.53125q0.5 0 1.046875 -0.15625q0.5625 -0.171875 0.90625 -0.4375q0.109375 -0.09375 0.171875 -0.09375q0.09375 0 0.15625 0.078125q0.0625 0.0625 0.0625 0.15625q0 0.09375 -0.078125 0.171875q-0.265625 0.265625 -0.921875 0.5q-0.65625 0.234375 -1.34375 0.234375q-1.171875 0 -1.953125 -0.75q-0.765625 -0.765625 -0.765625 -1.84375q0 -0.984375 0.71875 -1.6875q0.734375 -0.703125 1.8125 -0.703125q1.109375 0 1.8125 0.71875q0.71875 0.71875 0.703125 1.875zm-0.453125 -0.453125q-0.125 -0.75 -0.703125 -1.21875q-0.578125 -0.46875 -1.359375 -0.46875q-0.796875 0 -1.359375 0.46875q-0.5625 0.453125 -0.703125 1.21875l4.125 0z" fill-rule="nonzero"/><path fill="#000000" fill-opacity="0.0" d="m253.50131 360.18896l88.0 0l0 45.259857l-88.0 0z" fill-rule="evenodd"/><path fill="#595959" d="m277.39755 375.2415l0 3.734375l1.984375 0q0.15625 0 0.21875 0.0625q0.078125 0.0625 0.078125 0.171875q0 0.09375 -0.078125 0.15625q-0.0625 0.0625 -0.21875 0.0625l-3.53125 0q-0.15625 0 -0.234375 -0.0625q-0.0625 -0.0625 -0.0625 -0.15625q0 -0.109375 0.0625 -0.171875q0.078125 -0.0625 0.234375 -0.0625l1.09375 0l0 -3.734375l-0.984375 0q-0.15625 0 -0.234375 -0.0625q-0.0625 -0.078125 -0.0625 -0.171875q0 -0.09375 0.0625 -0.15625q0.078125 -0.078125 0.234375 -0.078125l0.984375 0l0 -0.671875q0 -0.578125 0.453125 -0.984375q0.46875 -0.421875 1.234375 -0.421875q0.640625 0 1.359375 0.109375q0.28125 0.046875 0.328125 0.109375q0.0625 0.046875 0.0625 0.15625q0 0.09375 -0.0625 0.15625q-0.0625 0.0625 -0.171875 0.0625q-0.046875 0 -0.140625 -0.015625q-0.8125 -0.125 -1.375 -0.125q-0.59375 0 -0.921875 0.296875q-0.3125 0.28125 -0.3125 0.65625l0 0.671875l2.109375 0q0.171875 0 0.234375 0.078125q0.078125 0.0625 0.078125 0.15625q0 0.09375 -0.078125 0.171875q-0.0625 0.0625 -0.234375 0.0625l-2.109375 0zm6.366699 -0.46875l0 1.140625q0.875 -0.796875 1.3125 -1.015625q0.4375 -0.234375 0.8125 -0.234375q0.40625 0 0.75 0.28125q0.34375 0.265625 0.34375 0.40625q0 0.09375 -0.078125 0.171875q-0.0625 0.0625 -0.15625 0.0625q-0.0625 0 -0.09375 -0.015625q-0.03125 -0.03125 -0.140625 -0.125q-0.1875 -0.1875 -0.328125 -0.25q-0.140625 -0.078125 -0.265625 -0.078125q-0.296875 0 -0.71875 0.234375q-0.421875 0.234375 -1.4375 1.15625l0 2.46875l2.0 0q0.15625 0 0.21875 0.0625q0.078125 0.0625 0.078125 0.171875q0 0.09375 -0.078125 0.15625q-0.0625 0.0625 -0.21875 0.0625l-3.546875 0q-0.15625 0 -0.234375 -0.0625q-0.0625 -0.0625 -0.0625 -0.15625q0 -0.09375 0.0625 -0.15625q0.0625 -0.0625 0.234375 -0.0625l1.09375 0l0 -3.75l-0.828125 0q-0.171875 0 -0.25 -0.0625q-0.0625 -0.078125 -0.0625 -0.171875q0 -0.09375 0.0625 -0.15625q0.078125 -0.078125 0.25 -0.078125l1.28125 0zm8.679199 4.65625l0 -0.65625q-0.921875 0.828125 -2.0 0.828125q-0.65625 0 -1.0 -0.359375q-0.453125 -0.46875 -0.453125 -1.09375l0 -2.90625l-0.59375 0q-0.171875 0 -0.25 -0.0625q-0.0625 -0.078125 -0.0625 -0.171875q0 -0.09375 0.0625 -0.15625q0.078125 -0.078125 0.25 -0.078125l1.046875 0l0 3.375q0 0.4375 0.28125 0.71875q0.28125 0.28125 0.703125 0.28125q1.09375 0 2.015625 -1.0l0 -2.90625l-0.828125 0q-0.171875 0 -0.234375 -0.0625q-0.0625 -0.078125 -0.0625 -0.171875q0 -0.09375 0.0625 -0.15625q0.0625 -0.078125 0.234375 -0.078125l1.28125 0l0 4.203125l0.375 0q0.171875 0 0.234375 0.0625q0.078125 0.0625 0.078125 0.171875q0 0.09375 -0.078125 0.15625q-0.0625 0.0625 -0.234375 0.0625l-0.828125 0zm6.554199 -4.359375q0 -0.15625 0.0625 -0.21875q0.0625 -0.078125 0.15625 -0.078125q0.109375 0 0.171875 0.078125q0.0625 0.0625 0.0625 0.234375l0 0.765625q0 0.171875 -0.0625 0.25q-0.0625 0.0625 -0.171875 0.0625q-0.09375 0 -0.15625 -0.0625q-0.0625 -0.0625 -0.0625 -0.203125q-0.03125 -0.3125 -0.34375 -0.53125q-0.4375 -0.296875 -1.15625 -0.296875q-0.765625 0 -1.1875 0.3125q-0.3125 0.234375 -0.3125 0.515625q0 0.3125 0.375 0.53125q0.265625 0.15625 0.984375 0.234375q0.9375 0.09375 1.296875 0.234375q0.53125 0.1875 0.78125 0.515625q0.25 0.328125 0.25 0.71875q0 0.578125 -0.546875 1.03125q-0.546875 0.4375 -1.625 0.4375q-1.0625 0 -1.75 -0.53125q0 0.171875 -0.03125 0.234375q-0.015625 0.046875 -0.078125 0.09375q-0.046875 0.03125 -0.109375 0.03125q-0.109375 0 -0.171875 -0.0625q-0.0625 -0.078125 -0.0625 -0.234375l0 -0.9375q0 -0.15625 0.0625 -0.21875q0.0625 -0.078125 0.171875 -0.078125q0.09375 0 0.15625 0.078125q0.0625 0.0625 0.0625 0.171875q0 0.25 0.125 0.40625q0.1875 0.265625 0.59375 0.4375q0.421875 0.15625 1.015625 0.15625q0.875 0 1.296875 -0.3125q0.4375 -0.328125 0.4375 -0.703125q0 -0.421875 -0.421875 -0.671875q-0.453125 -0.25 -1.296875 -0.328125q-0.828125 -0.09375 -1.203125 -0.234375q-0.359375 -0.140625 -0.5625 -0.421875q-0.203125 -0.28125 -0.203125 -0.59375q0 -0.578125 0.5625 -0.921875q0.578125 -0.34375 1.359375 -0.34375q0.9375 0 1.53125 0.453125zm4.179199 -0.296875l2.453125 0q0.15625 0 0.21875 0.078125q0.078125 0.0625 0.078125 0.15625q0 0.09375 -0.078125 0.171875q-0.0625 0.0625 -0.21875 0.0625l-2.453125 0l0 3.0q0 0.390625 0.3125 0.65625q0.3125 0.25 0.921875 0.25q0.453125 0 0.984375 -0.125q0.53125 -0.140625 0.828125 -0.3125q0.109375 -0.078125 0.1875 -0.078125q0.078125 0 0.140625 0.078125q0.0625 0.0625 0.0625 0.15625q0 0.078125 -0.0625 0.15625q-0.171875 0.171875 -0.84375 0.375q-0.65625 0.203125 -1.265625 0.203125q-0.78125 0 -1.25 -0.359375q-0.46875 -0.375 -0.46875 -1.0l0 -3.0l-0.84375 0q-0.15625 0 -0.234375 -0.0625q-0.0625 -0.078125 -0.0625 -0.171875q0 -0.09375 0.0625 -0.15625q0.078125 -0.078125 0.234375 -0.078125l0.84375 0l0 -1.328125q0 -0.15625 0.0625 -0.21875q0.0625 -0.078125 0.15625 -0.078125q0.109375 0 0.171875 0.078125q0.0625 0.0625 0.0625 0.21875l0 1.328125zm9.069824 4.65625l0 -0.65625q-0.921875 0.828125 -2.0 0.828125q-0.65625 0 -1.0 -0.359375q-0.453125 -0.46875 -0.453125 -1.09375l0 -2.90625l-0.59375 0q-0.171875 0 -0.25 -0.0625q-0.0625 -0.078125 -0.0625 -0.171875q0 -0.09375 0.0625 -0.15625q0.078125 -0.078125 0.25 -0.078125l1.046875 0l0 3.375q0 0.4375 0.28125 0.71875q0.28125 0.28125 0.703125 0.28125q1.09375 0 2.015625 -1.0l0 -2.90625l-0.828125 0q-0.171875 0 -0.234375 -0.0625q-0.0625 -0.078125 -0.0625 -0.171875q0 -0.09375 0.0625 -0.15625q0.0625 -0.078125 0.234375 -0.078125l1.28125 0l0 4.203125l0.375 0q0.171875 0 0.234375 0.0625q0.078125 0.0625 0.078125 0.171875q0 0.09375 -0.078125 0.15625q-0.0625 0.0625 -0.234375 0.0625l-0.828125 0zm3.0073242 -4.65625l0 0.46875q0.578125 -0.625 1.15625 -0.625q0.34375 0 0.609375 0.1875q0.265625 0.1875 0.4375 0.5625q0.296875 -0.375 0.609375 -0.5625q0.3125 -0.1875 0.625 -0.1875q0.484375 0 0.78125 0.3125q0.375 0.40625 0.375 0.890625l0 3.15625l0.375 0q0.171875 0 0.234375 0.0625q0.078125 0.0625 0.078125 0.171875q0 0.09375 -0.078125 0.15625q-0.0625 0.0625 -0.234375 0.0625l-0.828125 0l0 -3.5625q0 -0.34375 -0.21875 -0.5625q-0.203125 -0.234375 -0.46875 -0.234375q-0.25 0 -0.53125 0.1875q-0.265625 0.1875 -0.609375 0.734375l0 2.984375l0.375 0q0.15625 0 0.21875 0.0625q0.078125 0.0625 0.078125 0.171875q0 0.09375 -0.078125 0.15625q-0.0625 0.0625 -0.21875 0.0625l-0.84375 0l0 -3.53125q0 -0.359375 -0.21875 -0.59375q-0.203125 -0.234375 -0.46875 -0.234375q-0.234375 0 -0.46875 0.15625q-0.328125 0.21875 -0.6875 0.765625l0 2.984375l0.375 0q0.15625 0 0.21875 0.0625q0.078125 0.0625 0.078125 0.171875q0 0.09375 -0.078125 0.15625q-0.0625 0.0625 -0.21875 0.0625l-1.21875 0q-0.15625 0 -0.234375 -0.0625q-0.0625 -0.0625 -0.0625 -0.15625q0 -0.109375 0.0625 -0.171875q0.078125 -0.0625 0.234375 -0.0625l0.390625 0l0 -3.734375l-0.390625 0q-0.15625 0 -0.234375 -0.0625q-0.0625 -0.078125 -0.0625 -0.171875q0 -0.09375 0.0625 -0.15625q0.078125 -0.078125 0.234375 -0.078125l0.84375 0z" fill-rule="nonzero"/><path fill="#595959" d="m283.99863 388.04147l0 3.734375l1.984375 0q0.15625 0 0.21875 0.0625q0.078125 0.0625 0.078125 0.171875q0 0.09375 -0.078125 0.15625q-0.0625 0.0625 -0.21875 0.0625l-3.53125 0q-0.15625 0 -0.234375 -0.0625q-0.0625 -0.0625 -0.0625 -0.15625q0 -0.109375 0.0625 -0.171875q0.078125 -0.0625 0.234375 -0.0625l1.09375 0l0 -3.734375l-0.984375 0q-0.15625 0 -0.234375 -0.0625q-0.0625 -0.078125 -0.0625 -0.171875q0 -0.09375 0.0625 -0.15625q0.078125 -0.078125 0.234375 -0.078125l0.984375 0l0 -0.671875q0 -0.578125 0.453125 -0.984375q0.46875 -0.421875 1.234375 -0.421875q0.640625 0 1.359375 0.109375q0.28125 0.046875 0.328125 0.109375q0.0625 0.046875 0.0625 0.15625q0 0.09375 -0.0625 0.15625q-0.0625 0.0625 -0.171875 0.0625q-0.046875 0 -0.140625 -0.015625q-0.8125 -0.125 -1.375 -0.125q-0.59375 0 -0.921875 0.296875q-0.3125 0.28125 -0.3125 0.65625l0 0.671875l2.109375 0q0.171875 0 0.234375 0.078125q0.078125 0.0625 0.078125 0.15625q0 0.09375 -0.078125 0.171875q-0.0625 0.0625 -0.234375 0.0625l-2.109375 0zm6.366699 -0.46875l0 1.140625q0.875 -0.796875 1.3125 -1.015625q0.4375 -0.234375 0.8125 -0.234375q0.40625 0 0.75 0.28125q0.34375 0.265625 0.34375 0.40625q0 0.09375 -0.078125 0.171875q-0.0625 0.0625 -0.15625 0.0625q-0.0625 0 -0.09375 -0.015625q-0.03125 -0.03125 -0.140625 -0.125q-0.1875 -0.1875 -0.328125 -0.25q-0.140625 -0.078125 -0.265625 -0.078125q-0.296875 0 -0.71875 0.234375q-0.421875 0.234375 -1.4375 1.15625l0 2.46875l2.0 0q0.15625 0 0.21875 0.0625q0.078125 0.0625 0.078125 0.171875q0 0.09375 -0.078125 0.15625q-0.0625 0.0625 -0.21875 0.0625l-3.546875 0q-0.15625 0 -0.234375 -0.0625q-0.0625 -0.0625 -0.0625 -0.15625q0 -0.09375 0.0625 -0.15625q0.0625 -0.0625 0.234375 -0.0625l1.09375 0l0 -3.75l-0.828125 0q-0.171875 0 -0.25 -0.0625q-0.0625 -0.078125 -0.0625 -0.171875q0 -0.09375 0.0625 -0.15625q0.078125 -0.078125 0.25 -0.078125l1.28125 0zm8.429199 4.65625l0 -0.65625q-0.984375 0.828125 -2.09375 0.828125q-0.8125 0 -1.265625 -0.40625q-0.453125 -0.40625 -0.453125 -1.0q0 -0.65625 0.59375 -1.140625q0.609375 -0.5 1.75 -0.5q0.3125 0 0.671875 0.046875q0.375 0.03125 0.796875 0.125l0 -0.734375q0 -0.375 -0.34375 -0.640625q-0.34375 -0.28125 -1.03125 -0.28125q-0.515625 0 -1.46875 0.3125q-0.171875 0.046875 -0.21875 0.046875q-0.09375 0 -0.15625 -0.0625q-0.0625 -0.0625 -0.0625 -0.15625q0 -0.09375 0.0625 -0.140625q0.0625 -0.09375 0.609375 -0.234375q0.828125 -0.21875 1.265625 -0.21875q0.84375 0 1.3125 0.421875q0.484375 0.421875 0.484375 0.953125l0 2.984375l0.609375 0q0.171875 0 0.234375 0.0625q0.078125 0.0625 0.078125 0.171875q0 0.09375 -0.078125 0.15625q-0.0625 0.0625 -0.234375 0.0625l-1.0625 0zm0 -2.25q-0.3125 -0.09375 -0.671875 -0.125q-0.34375 -0.046875 -0.734375 -0.046875q-0.984375 0 -1.546875 0.421875q-0.421875 0.3125 -0.421875 0.765625q0 0.40625 0.3125 0.6875q0.328125 0.265625 0.9375 0.265625q0.59375 0 1.09375 -0.21875q0.5 -0.234375 1.03125 -0.75l0 -1.0zm3.2573242 -2.40625l0 0.46875q0.578125 -0.625 1.15625 -0.625q0.34375 0 0.609375 0.1875q0.265625 0.1875 0.4375 0.5625q0.296875 -0.375 0.609375 -0.5625q0.3125 -0.1875 0.625 -0.1875q0.484375 0 0.78125 0.3125q0.375 0.40625 0.375 0.890625l0 3.15625l0.375 0q0.171875 0 0.234375 0.0625q0.078125 0.0625 0.078125 0.171875q0 0.09375 -0.078125 0.15625q-0.0625 0.0625 -0.234375 0.0625l-0.828125 0l0 -3.5625q0 -0.34375 -0.21875 -0.5625q-0.203125 -0.234375 -0.46875 -0.234375q-0.25 0 -0.53125 0.1875q-0.265625 0.1875 -0.609375 0.734375l0 2.984375l0.375 0q0.15625 0 0.21875 0.0625q0.078125 0.0625 0.078125 0.171875q0 0.09375 -0.078125 0.15625q-0.0625 0.0625 -0.21875 0.0625l-0.84375 0l0 -3.53125q0 -0.359375 -0.21875 -0.59375q-0.203125 -0.234375 -0.46875 -0.234375q-0.234375 0 -0.46875 0.15625q-0.328125 0.21875 -0.6875 0.765625l0 2.984375l0.375 0q0.15625 0 0.21875 0.0625q0.078125 0.0625 0.078125 0.171875q0 0.09375 -0.078125 0.15625q-0.0625 0.0625 -0.21875 0.0625l-1.21875 0q-0.15625 0 -0.234375 -0.0625q-0.0625 -0.0625 -0.0625 -0.15625q0 -0.109375 0.0625 -0.171875q0.078125 -0.0625 0.234375 -0.0625l0.390625 0l0 -3.734375l-0.390625 0q-0.15625 0 -0.234375 -0.0625q-0.0625 -0.078125 -0.0625 -0.171875q0 -0.09375 0.0625 -0.15625q0.078125 -0.078125 0.234375 -0.078125l0.84375 0zm11.085449 2.4375l-4.59375 0q0.125 0.875 0.734375 1.40625q0.625 0.53125 1.53125 0.53125q0.5 0 1.046875 -0.15625q0.5625 -0.171875 0.90625 -0.4375q0.109375 -0.09375 0.171875 -0.09375q0.09375 0 0.15625 0.078125q0.0625 0.0625 0.0625 0.15625q0 0.09375 -0.078125 0.171875q-0.265625 0.265625 -0.921875 0.5q-0.65625 0.234375 -1.34375 0.234375q-1.171875 0 -1.953125 -0.75q-0.765625 -0.765625 -0.765625 -1.84375q0 -0.984375 0.71875 -1.6875q0.734375 -0.703125 1.8125 -0.703125q1.109375 0 1.8125 0.71875q0.71875 0.71875 0.703125 1.875zm-0.453125 -0.453125q-0.125 -0.75 -0.703125 -1.21875q-0.578125 -0.46875 -1.359375 -0.46875q-0.796875 0 -1.359375 0.46875q-0.5625 0.453125 -0.703125 1.21875l4.125 0z" fill-rule="nonzero"/><path fill="#000000" fill-opacity="0.0" d="m183.6693 323.80054l-25.007874 -72.000015" fill-rule="evenodd"/><path stroke="#595959" stroke-width="1.0" stroke-linejoin="round" stroke-linecap="butt" stroke-dasharray="1.0,3.0" d="m183.6693 323.80054l-25.007874 -72.000015" fill-rule="evenodd"/><path fill="#000000" fill-opacity="0.0" d="m289.16797 349.80054l-114.99211 -31.527557" fill-rule="evenodd"/><path stroke="#595959" stroke-width="1.0" stroke-linejoin="round" stroke-linecap="butt" stroke-dasharray="1.0,3.0" d="m289.16797 349.80054l-114.99211 -31.527557" fill-rule="evenodd"/><path fill="#ffffff" d="m160.16798 326.0551l0 0c0 -7.0448914 10.970779 -12.75589 24.503937 -12.75589l0 0c13.533142 0 24.503937 5.7109985 24.503937 12.75589l0 0c0 7.0448914 -10.970795 12.75592 -24.503937 12.75592l0 0c-13.533157 0 -24.503937 -5.711029 -24.503937 -12.75592z" fill-rule="evenodd"/><path stroke="#cccccc" stroke-width="1.0" stroke-linejoin="round" stroke-linecap="butt" d="m160.16798 326.0551l0 0c0 -7.0448914 10.970779 -12.75589 24.503937 -12.75589l0 0c13.533142 0 24.503937 5.7109985 24.503937 12.75589l0 0c0 7.0448914 -10.970795 12.75592 -24.503937 12.75592l0 0c-13.533157 0 -24.503937 -5.711029 -24.503937 -12.75592z" fill-rule="evenodd"/><path fill="#595959" d="m174.2979 327.21698l0 2.125l1.546875 0q0.15625 0 0.21875 0.0625q0.078125 0.0625 0.078125 0.171875q0 0.09375 -0.078125 0.15625q-0.0625 0.0625 -0.21875 0.0625l-2.609375 0q-0.171875 0 -0.234375 -0.0625q-0.0625 -0.0625 -0.0625 -0.15625q0 -0.109375 0.0625 -0.171875q0.0625 -0.0625 0.234375 -0.0625l0.609375 0l0 -5.375l-0.609375 0q-0.171875 0 -0.234375 -0.0625q-0.0625 -0.0625 -0.0625 -0.171875q0 -0.09375 0.0625 -0.15625q0.0625 -0.0625 0.234375 -0.0625l2.625 0q0.921875 0 1.5 0.546875q0.59375 0.546875 0.59375 1.28125q0 0.4375 -0.1875 0.796875q-0.1875 0.34375 -0.453125 0.53125q-0.40625 0.3125 -0.84375 0.4375q-0.3125 0.109375 -0.765625 0.109375l-1.40625 0zm0 -0.453125l1.4375 0q0.5 0 0.9375 -0.21875q0.4375 -0.21875 0.625 -0.546875q0.203125 -0.328125 0.203125 -0.65625q0 -0.53125 -0.453125 -0.953125q-0.453125 -0.421875 -1.15625 -0.421875l-1.59375 0l0 2.796875zm10.101074 0.71875q0 1.03125 -0.75 1.765625q-0.734375 0.71875 -1.78125 0.71875q-1.046875 0 -1.78125 -0.734375q-0.734375 -0.734375 -0.734375 -1.75q0 -1.03125 0.734375 -1.765625q0.734375 -0.734375 1.78125 -0.734375q1.046875 0 1.78125 0.734375q0.75 0.71875 0.75 1.765625zm-0.46875 0q0 -0.84375 -0.609375 -1.4375q-0.59375 -0.609375 -1.453125 -0.609375q-0.859375 0 -1.46875 0.609375q-0.59375 0.59375 -0.59375 1.4375q0 0.828125 0.59375 1.4375q0.609375 0.59375 1.46875 0.59375q0.859375 0 1.453125 -0.59375q0.609375 -0.59375 0.609375 -1.4375zm6.038574 -2.046875q0 -0.15625 0.0625 -0.21875q0.0625 -0.078125 0.15625 -0.078125q0.109375 0 0.171875 0.078125q0.0625 0.0625 0.0625 0.234375l0 0.765625q0 0.171875 -0.0625 0.25q-0.0625 0.0625 -0.171875 0.0625q-0.09375 0 -0.15625 -0.0625q-0.0625 -0.0625 -0.0625 -0.203125q-0.03125 -0.3125 -0.34375 -0.53125q-0.4375 -0.296875 -1.15625 -0.296875q-0.765625 0 -1.1875 0.3125q-0.3125 0.234375 -0.3125 0.515625q0 0.3125 0.375 0.53125q0.265625 0.15625 0.984375 0.234375q0.9375 0.09375 1.296875 0.234375q0.53125 0.1875 0.78125 0.515625q0.25 0.328125 0.25 0.71875q0 0.578125 -0.546875 1.03125q-0.546875 0.4375 -1.625 0.4375q-1.0625 0 -1.75 -0.53125q0 0.171875 -0.03125 0.234375q-0.015625 0.046875 -0.078125 0.09375q-0.046875 0.03125 -0.109375 0.03125q-0.109375 0 -0.171875 -0.0625q-0.0625 -0.078125 -0.0625 -0.234375l0 -0.9375q0 -0.15625 0.0625 -0.21875q0.0625 -0.078125 0.171875 -0.078125q0.09375 0 0.15625 0.078125q0.0625 0.0625 0.0625 0.171875q0 0.25 0.125 0.40625q0.1875 0.265625 0.59375 0.4375q0.421875 0.15625 1.015625 0.15625q0.875 0 1.296875 -0.3125q0.4375 -0.328125 0.4375 -0.703125q0 -0.421875 -0.421875 -0.671875q-0.453125 -0.25 -1.296875 -0.328125q-0.828125 -0.09375 -1.203125 -0.234375q-0.359375 -0.140625 -0.5625 -0.421875q-0.203125 -0.28125 -0.203125 -0.59375q0 -0.578125 0.5625 -0.921875q0.578125 -0.34375 1.359375 -0.34375q0.9375 0 1.53125 0.453125zm7.538574 2.140625l-4.59375 0q0.125 0.875 0.734375 1.40625q0.625 0.53125 1.53125 0.53125q0.5 0 1.046875 -0.15625q0.5625 -0.171875 0.90625 -0.4375q0.109375 -0.09375 0.171875 -0.09375q0.09375 0 0.15625 0.078125q0.0625 0.0625 0.0625 0.15625q0 0.09375 -0.078125 0.171875q-0.265625 0.265625 -0.921875 0.5q-0.65625 0.234375 -1.34375 0.234375q-1.171875 0 -1.953125 -0.75q-0.765625 -0.765625 -0.765625 -1.84375q0 -0.984375 0.71875 -1.6875q0.734375 -0.703125 1.8125 -0.703125q1.109375 0 1.8125 0.71875q0.71875 0.71875 0.703125 1.875zm-0.453125 -0.453125q-0.125 -0.75 -0.703125 -1.21875q-0.578125 -0.46875 -1.359375 -0.46875q-0.796875 0 -1.359375 0.46875q-0.5625 0.453125 -0.703125 1.21875l4.125 0z" fill-rule="nonzero"/><path fill="#eeeeee" d="m296.81628 351.61154l139.0 -112.49869l33.118103 61.519684z" fill-rule="evenodd"/><path fill="#eeeeee" d="m425.81628 264.36212l0 0c0 -20.299728 16.174133 -36.755905 36.125977 -36.755905l0 0c9.581207 0 18.769989 3.8724823 25.544922 10.765549c6.774933 6.8930664 10.581055 16.24208 10.581055 25.990356l0 0c0 20.299713 -16.174164 36.75589 -36.125977 36.75589l0 0c-19.951843 0 -36.125977 -16.456177 -36.125977 -36.75589z" fill-rule="evenodd"/><path fill="#000000" fill-opacity="0.0" d="m362.3176 298.33334c2.833313 1.6176758 13.458435 5.206024 17.0 9.706024c3.5415344 4.5 3.5411072 14.411652 4.2493286 17.293976" fill-rule="evenodd"/><path stroke="#cccccc" stroke-width="1.0" stroke-linejoin="round" stroke-linecap="butt" d="m365.42007 299.78918l0.25106812 0.11035156c1.4498291 0.6342163 3.1542664 1.375061 4.8808594 2.2059326c3.4531555 1.6618042 6.9948425 3.683899 8.7655945 5.933899c1.770752 2.25 2.6560364 5.8529053 3.1871643 9.253601c0.13278198 0.8501892 0.24343872 1.6877136 0.34020996 2.4883118c0.048431396 0.40029907 0.09338379 0.79138184 0.13586426 1.1701965l0.109375 0.98809814" fill-rule="evenodd"/><path fill="#cccccc" stroke="#cccccc" stroke-width="1.0" stroke-linecap="butt" d="m365.42007 299.78918l1.4957886 -0.5403137l-3.2748413 -0.29449463l2.3193665 2.3306274z" fill-rule="evenodd"/><path fill="#cccccc" stroke="#cccccc" stroke-width="1.0" stroke-linecap="butt" d="m383.0902 321.93958l-1.2700806 -0.9572449l1.543457 2.9033203l0.6838684 -3.216156z" fill-rule="evenodd"/><path fill="#000000" fill-opacity="0.0" d="m332.81366 272.95538l41.480316 0l0 32.314972l-41.480316 0z" fill-rule="evenodd"/><path fill="#595959" d="m344.81366 288.00787l0 3.734375l1.984375 0q0.15625 0 0.21875 0.0625q0.078125 0.0625 0.078125 0.171875q0 0.09375 -0.078125 0.15625q-0.0625 0.0625 -0.21875 0.0625l-3.53125 0q-0.15625 0 -0.234375 -0.0625q-0.0625 -0.0625 -0.0625 -0.15625q0 -0.109375 0.0625 -0.171875q0.078125 -0.0625 0.234375 -0.0625l1.09375 0l0 -3.734375l-0.984375 0q-0.15625 0 -0.234375 -0.0625q-0.0625 -0.078125 -0.0625 -0.171875q0 -0.09375 0.0625 -0.15625q0.078125 -0.078125 0.234375 -0.078125l0.984375 0l0 -0.671875q0 -0.578125 0.453125 -0.984375q0.46875 -0.421875 1.234375 -0.421875q0.640625 0 1.359375 0.109375q0.28125 0.046875 0.328125 0.109375q0.0625 0.046875 0.0625 0.15625q0 0.09375 -0.0625 0.15625q-0.0625 0.0625 -0.171875 0.0625q-0.046875 0 -0.140625 -0.015625q-0.8125 -0.125 -1.375 -0.125q-0.59375 0 -0.921875 0.296875q-0.3125 0.28125 -0.3125 0.65625l0 0.671875l2.109375 0q0.171875 0 0.234375 0.078125q0.078125 0.0625 0.078125 0.15625q0 0.09375 -0.078125 0.171875q-0.0625 0.0625 -0.234375 0.0625l-2.109375 0zm9.429199 1.875q0 1.03125 -0.75 1.765625q-0.734375 0.71875 -1.78125 0.71875q-1.046875 0 -1.78125 -0.734375q-0.734375 -0.734375 -0.734375 -1.75q0 -1.03125 0.734375 -1.765625q0.734375 -0.734375 1.78125 -0.734375q1.046875 0 1.78125 0.734375q0.75 0.71875 0.75 1.765625zm-0.46875 0q0 -0.84375 -0.609375 -1.4375q-0.59375 -0.609375 -1.453125 -0.609375q-0.859375 0 -1.46875 0.609375q-0.59375 0.59375 -0.59375 1.4375q0 0.828125 0.59375 1.4375q0.609375 0.59375 1.46875 0.59375q0.859375 0 1.453125 -0.59375q0.609375 -0.59375 0.609375 -1.4375zm4.944824 2.3125l-0.765625 0l-1.859375 -4.1875l-0.453125 0q-0.171875 0 -0.25 -0.0625q-0.0625 -0.078125 -0.0625 -0.171875q0 -0.09375 0.0625 -0.15625q0.078125 -0.078125 0.25 -0.078125l1.6875 0q0.15625 0 0.21875 0.078125q0.078125 0.0625 0.078125 0.15625q0 0.09375 -0.078125 0.171875q-0.0625 0.0625 -0.21875 0.0625l-0.75 0l1.65625 3.734375l0.203125 0l1.609375 -3.734375l-0.75 0q-0.15625 0 -0.234375 -0.0625q-0.0625 -0.078125 -0.0625 -0.171875q0 -0.09375 0.0625 -0.15625q0.078125 -0.078125 0.234375 -0.078125l1.703125 0q0.171875 0 0.234375 0.078125q0.0625 0.0625 0.0625 0.15625q0 0.09375 -0.0625 0.171875q-0.0625 0.0625 -0.234375 0.0625l-0.453125 0l-1.828125 4.1875z" fill-rule="nonzero"/><path fill="#000000" fill-opacity="0.0" d="m449.0761 248.46194l23.937012 1.6377869l-2.204712 32.251984l-23.937012 -1.6378174z" fill-rule="evenodd"/><path fill="#b7b7b7" d="m460.46524 265.59747l-0.1545105 2.2603455q-0.010681152 0.15588379 -0.07833862 0.22955322q-0.06661987 0.05810547 -0.17575073 0.050628662q-0.09353638 -0.006378174 -0.15161133 -0.07299805q-0.057037354 -0.082214355 -0.04638672 -0.23809814l0.1545105 -2.260376l-1.9953308 -0.13650513q-0.17144775 -0.011749268 -0.22955322 -0.07836914q-0.05810547 -0.06661987 -0.051696777 -0.16012573q0.007446289 -0.10913086 0.07406616 -0.16723633q0.06661987 -0.05807495 0.23809814 -0.0463562l1.9953308 0.13653564l0.15237427 -2.2291565q0.011749268 -0.17147827 0.07833862 -0.22958374q0.06661987 -0.05807495 0.16015625 -0.051696777q0.10913086 0.0074768066 0.16720581 0.07409668q0.05810547 0.06661987 0.04638672 0.23809814l-0.15237427 2.229187l1.9953308 0.13650513q0.15588379 0.010681152 0.21395874 0.077301025q0.07369995 0.06768799 0.066223145 0.17678833q-0.006378174 0.09353638 -0.08859253 0.15057373q-0.06661987 0.05807495 -0.22250366 0.047424316l-1.9953308 -0.13653564z" fill-rule="nonzero"/><path fill="#000000" fill-opacity="0.0" d="m383.91077 361.2546l127.40158 -53.795288" fill-rule="evenodd"/><path stroke="#cccccc" stroke-width="1.0" stroke-linejoin="round" stroke-linecap="butt" d="m387.0679 359.92148l121.08728 -51.12906" fill-rule="evenodd"/><path fill="#cccccc" stroke="#cccccc" stroke-width="1.0" stroke-linecap="butt" d="m387.06793 359.92148l0.59854126 -1.4734802l-2.4089355 2.237915l3.2838745 -0.16586304z" fill-rule="evenodd"/><path fill="#cccccc" stroke="#cccccc" stroke-width="1.0" stroke-linecap="butt" d="m508.15515 308.79242l-0.59854126 1.4734802l2.408966 -2.237915l-3.2838745 0.16589355z" fill-rule="evenodd"/><path fill="#000000" fill-opacity="0.0" d="m434.3727 329.1496l64.0 0l0 32.314972l-64.0 0z" fill-rule="evenodd"/><path fill="#595959" d="m446.90396 341.65524l0 6.28125l1.765625 0q0.171875 0 0.234375 0.0625q0.078125 0.0625 0.078125 0.171875q0 0.09375 -0.078125 0.15625q-0.0625 0.0625 -0.234375 0.0625l-3.984375 0q-0.171875 0 -0.25 -0.0625q-0.0625 -0.0625 -0.0625 -0.15625q0 -0.109375 0.0625 -0.171875q0.078125 -0.0625 0.25 -0.0625l1.765625 0l0 -5.828125l-1.296875 0q-0.171875 0 -0.25 -0.0625q-0.0625 -0.0625 -0.0625 -0.171875q0 -0.09375 0.0625 -0.15625q0.078125 -0.0625 0.25 -0.0625l1.75 0zm8.804199 4.515625l-4.59375 0q0.125 0.875 0.734375 1.40625q0.625 0.53125 1.53125 0.53125q0.5 0 1.046875 -0.15625q0.5625 -0.171875 0.90625 -0.4375q0.109375 -0.09375 0.171875 -0.09375q0.09375 0 0.15625 0.078125q0.0625 0.0625 0.0625 0.15625q0 0.09375 -0.078125 0.171875q-0.265625 0.265625 -0.921875 0.5q-0.65625 0.234375 -1.34375 0.234375q-1.171875 0 -1.953125 -0.75q-0.765625 -0.765625 -0.765625 -1.84375q0 -0.984375 0.71875 -1.6875q0.734375 -0.703125 1.8125 -0.703125q1.109375 0 1.8125 0.71875q0.71875 0.71875 0.703125 1.875zm-0.453125 -0.453125q-0.125 -0.75 -0.703125 -1.21875q-0.578125 -0.46875 -1.359375 -0.46875q-0.796875 0 -1.359375 0.46875q-0.5625 0.453125 -0.703125 1.21875l4.125 0zm3.1635742 -1.984375l0 0.6875q0.46875 -0.484375 0.84375 -0.65625q0.390625 -0.1875 0.875 -0.1875q0.515625 0 0.9375 0.21875q0.296875 0.15625 0.53125 0.53125q0.25 0.375 0.25 0.765625l0 2.84375l0.390625 0q0.15625 0 0.21875 0.0625q0.078125 0.0625 0.078125 0.171875q0 0.09375 -0.078125 0.15625q-0.0625 0.0625 -0.21875 0.0625l-1.21875 0q-0.15625 0 -0.234375 -0.0625q-0.0625 -0.0625 -0.0625 -0.15625q0 -0.109375 0.0625 -0.171875q0.078125 -0.0625 0.234375 -0.0625l0.375 0l0 -2.765625q0 -0.484375 -0.34375 -0.8125q-0.34375 -0.328125 -0.9375 -0.328125q-0.4375 0 -0.765625 0.1875q-0.328125 0.171875 -0.9375 0.890625l0 2.828125l0.515625 0q0.15625 0 0.21875 0.0625q0.078125 0.0625 0.078125 0.171875q0 0.09375 -0.078125 0.15625q-0.0625 0.0625 -0.21875 0.0625l-1.484375 0q-0.15625 0 -0.234375 -0.0625q-0.0625 -0.0625 -0.0625 -0.15625q0 -0.109375 0.0625 -0.171875q0.078125 -0.0625 0.234375 -0.0625l0.515625 0l0 -3.734375l-0.375 0q-0.171875 0 -0.25 -0.0625q-0.0625 -0.078125 -0.0625 -0.171875q0 -0.09375 0.0625 -0.15625q0.078125 -0.078125 0.25 -0.078125l0.828125 0zm9.569824 0.828125l0 -0.828125l1.0625 0q0.15625 0 0.21875 0.078125q0.078125 0.0625 0.078125 0.15625q0 0.09375 -0.078125 0.171875q-0.0625 0.0625 -0.21875 0.0625l-0.609375 0l0 4.5q0 0.453125 -0.1875 0.8125q-0.125 0.234375 -0.4375 0.484375q-0.296875 0.25 -0.546875 0.359375q-0.25 0.109375 -0.65625 0.109375l-1.28125 0q-0.15625 0 -0.234375 -0.0625q-0.0625 -0.0625 -0.0625 -0.171875q0 -0.09375 0.0625 -0.171875q0.078125 -0.0625 0.234375 -0.0625l1.296875 0.015625q0.390625 0 0.703125 -0.203125q0.328125 -0.203125 0.546875 -0.59375q0.109375 -0.234375 0.109375 -0.578125l0 -1.359375q-0.71875 1.0 -1.859375 1.0q-0.9375 0 -1.609375 -0.6875q-0.671875 -0.703125 -0.671875 -1.671875q0 -0.96875 0.671875 -1.65625q0.671875 -0.6875 1.609375 -0.6875q1.140625 0 1.859375 0.984375zm0 1.359375q0 -0.796875 -0.546875 -1.34375q-0.53125 -0.546875 -1.296875 -0.546875q-0.75 0 -1.296875 0.5625q-0.546875 0.546875 -0.546875 1.328125q0 0.796875 0.546875 1.359375q0.546875 0.546875 1.296875 0.546875q0.765625 0 1.296875 -0.546875q0.546875 -0.5625 0.546875 -1.359375zm4.163574 -2.1875l2.453125 0q0.15625 0 0.21875 0.078125q0.078125 0.0625 0.078125 0.15625q0 0.09375 -0.078125 0.171875q-0.0625 0.0625 -0.21875 0.0625l-2.453125 0l0 3.0q0 0.390625 0.3125 0.65625q0.3125 0.25 0.921875 0.25q0.453125 0 0.984375 -0.125q0.53125 -0.140625 0.828125 -0.3125q0.109375 -0.078125 0.1875 -0.078125q0.078125 0 0.140625 0.078125q0.0625 0.0625 0.0625 0.15625q0 0.078125 -0.0625 0.15625q-0.171875 0.171875 -0.84375 0.375q-0.65625 0.203125 -1.265625 0.203125q-0.78125 0 -1.25 -0.359375q-0.46875 -0.375 -0.46875 -1.0l0 -3.0l-0.84375 0q-0.15625 0 -0.234375 -0.0625q-0.0625 -0.078125 -0.0625 -0.171875q0 -0.09375 0.0625 -0.15625q0.078125 -0.078125 0.234375 -0.078125l0.84375 0l0 -1.328125q0 -0.15625 0.0625 -0.21875q0.0625 -0.078125 0.15625 -0.078125q0.109375 0 0.171875 0.078125q0.0625 0.0625 0.0625 0.21875l0 1.328125zm6.038574 -2.078125l0 2.765625q0.4375 -0.46875 0.828125 -0.65625q0.390625 -0.1875 0.890625 -0.1875q0.515625 0 0.875 0.1875q0.375 0.1875 0.625 0.578125q0.25 0.375 0.25 0.796875l0 2.796875l0.5 0q0.171875 0 0.234375 0.0625q0.0625 0.0625 0.0625 0.171875q0 0.09375 -0.0625 0.15625q-0.0625 0.0625 -0.234375 0.0625l-1.46875 0q-0.15625 0 -0.234375 -0.0625q-0.0625 -0.0625 -0.0625 -0.15625q0 -0.109375 0.0625 -0.171875q0.078125 -0.0625 0.234375 -0.0625l0.515625 0l0 -2.765625q0 -0.484375 -0.359375 -0.8125q-0.34375 -0.328125 -0.984375 -0.328125q-0.484375 0 -0.84375 0.234375q-0.25 0.171875 -0.828125 0.8125l0 2.859375l0.515625 0q0.15625 0 0.21875 0.0625q0.078125 0.0625 0.078125 0.171875q0 0.09375 -0.078125 0.15625q-0.0625 0.0625 -0.21875 0.0625l-1.46875 0q-0.171875 0 -0.25 -0.0625q-0.0625 -0.0625 -0.0625 -0.15625q0 -0.109375 0.0625 -0.171875q0.078125 -0.0625 0.25 -0.0625l0.5 0l0 -5.828125l-0.609375 0q-0.15625 0 -0.234375 -0.0625q-0.0625 -0.0625 -0.0625 -0.171875q0 -0.09375 0.0625 -0.15625q0.078125 -0.0625 0.234375 -0.0625l1.0625 0z" fill-rule="nonzero"/><path fill="#000000" fill-opacity="0.0" d="m296.75592 351.60367l165.3858 -87.18109" fill-rule="evenodd"/><path stroke="#0000ff" stroke-width="1.0" stroke-linejoin="round" stroke-linecap="butt" stroke-dasharray="4.0,3.0" d="m296.75592 351.60367l165.3858 -87.18109" fill-rule="evenodd"/><path fill="#000000" fill-opacity="0.0" d="m449.0761 248.46194l23.937012 1.6377869l-2.204712 32.251984l-23.937012 -1.6378174z" fill-rule="evenodd"/><path fill="#b7b7b7" d="m460.46524 265.59747l-0.1545105 2.2603455q-0.010681152 0.15588379 -0.07833862 0.22955322q-0.06661987 0.05810547 -0.17575073 0.050628662q-0.09353638 -0.006378174 -0.15161133 -0.07299805q-0.057037354 -0.082214355 -0.04638672 -0.23809814l0.1545105 -2.260376l-1.9953308 -0.13650513q-0.17144775 -0.011749268 -0.22955322 -0.07836914q-0.05810547 -0.06661987 -0.051696777 -0.16012573q0.007446289 -0.10913086 0.07406616 -0.16723633q0.06661987 -0.05807495 0.23809814 -0.0463562l1.9953308 0.13653564l0.15237427 -2.2291565q0.011749268 -0.17147827 0.07833862 -0.22958374q0.06661987 -0.05807495 0.16015625 -0.051696777q0.10913086 0.0074768066 0.16720581 0.07409668q0.05810547 0.06661987 0.04638672 0.23809814l-0.15237427 2.229187l1.9953308 0.13650513q0.15588379 0.010681152 0.21395874 0.077301025q0.07369995 0.06768799 0.066223145 0.17678833q-0.006378174 0.09353638 -0.08859253 0.15057373q-0.06661987 0.05807495 -0.22250366 0.047424316l-1.9953308 -0.13653564z" fill-rule="nonzero"/><path fill="#000000" fill-opacity="0.0" d="m440.90936 234.82687l0 0c11.868835 -8.907867 27.85257 -9.499023 40.319427 -1.4911957c12.466858 8.0078125 18.888397 22.990494 16.198517 37.794296c-2.689911 14.803772 -13.945648 26.426208 -28.393005 29.317932l-6.892578 -36.02533z" fill-rule="evenodd"/><path fill="#000000" fill-opacity="0.0" d="m440.90936 234.82687l0 0c11.868835 -8.907867 27.85257 -9.499023 40.319427 -1.4911957c12.466858 8.0078125 18.888397 22.990494 16.198517 37.794296c-2.689911 14.803772 -13.945648 26.426208 -28.393005 29.317932" fill-rule="evenodd"/><path stroke="#595959" stroke-width="1.0" stroke-linejoin="round" stroke-linecap="butt" d="m440.90936 234.82687l0 0c11.868835 -8.907867 27.85257 -9.499023 40.319427 -1.4911957c12.466858 8.0078125 18.888397 22.990494 16.198517 37.794296c-2.689911 14.803772 -13.945648 26.426208 -28.393005 29.317932" fill-rule="evenodd"/><path fill="#000000" fill-opacity="0.0" d="m441.13385 234.63255l-144.39108 116.97899l174.39108 -51.77951" fill-rule="evenodd"/><path stroke="#595959" stroke-width="1.0" stroke-linejoin="round" stroke-linecap="butt" d="m441.13385 234.63255l-144.39108 116.97899l174.39108 -51.77951" fill-rule="evenodd"/><path fill="#000000" fill-opacity="0.0" d="m465.82162 300.91058c-14.875061 1.6757507 -29.205444 -6.2648315 -35.957855 -19.924591c-6.752411 -13.659729 -4.509369 -30.171173 5.6282043 -41.430557l26.400421 24.867142z" fill-rule="evenodd"/><path fill="#000000" fill-opacity="0.0" d="m465.82162 300.91058c-14.875061 1.6757507 -29.205444 -6.2648315 -35.957855 -19.924591c-6.752411 -13.659729 -4.509369 -30.171173 5.6282043 -41.430557" fill-rule="evenodd"/><path stroke="#cccccc" stroke-width="1.0" stroke-linejoin="round" stroke-linecap="butt" stroke-dasharray="4.0,3.0" d="m465.82162 300.91058c-14.875061 1.6757507 -29.205444 -6.2648315 -35.957855 -19.924591c-6.752411 -13.659729 -4.509369 -30.171173 5.6282043 -41.430557" fill-rule="evenodd"/><path fill="#000000" fill-opacity="0.0" d="m476.81628 300.03937l37.51178 5.6062927" fill-rule="evenodd"/><path stroke="#595959" stroke-width="1.0" stroke-linejoin="round" stroke-linecap="butt" stroke-dasharray="1.0,3.0" d="m476.81628 300.03937l37.51178 5.6062927" fill-rule="evenodd"/><path fill="#000000" fill-opacity="0.0" d="m296.09372 352.46835l54.236237 -28.37796" fill-rule="evenodd"/><path stroke="#0000ff" stroke-width="2.0" stroke-linejoin="round" stroke-linecap="butt" d="m296.09372 352.46835l48.163116 -25.200317" fill-rule="evenodd"/><path fill="#0000ff" stroke="#0000ff" stroke-width="2.0" stroke-linecap="butt" d="m344.25684 327.26804l-0.9501343 3.035553l4.432617 -4.8576965l-6.5180664 0.87197876z" fill-rule="evenodd"/><path fill="#000000" fill-opacity="0.0" d="m341.979 309.89502l35.370087 0l0 32.31494l-35.370087 0z" fill-rule="evenodd"/><path fill="#0000ff" d="m356.4165 326.58813l-4.453125 0l0 -0.96875l4.453125 0l0 0.96875zm3.5822754 1.484375l1.875 0q0.015625 -0.296875 0.15625 -0.4375q0.15625 -0.15625 0.375 -0.15625q0.234375 0 0.375 0.171875q0.15625 0.15625 0.15625 0.53125l0 0.953125l-4.640625 0l0 -0.890625l2.8125 -2.765625l-1.640625 0l0 0.109375q0 0.375 -0.15625 0.546875q-0.140625 0.15625 -0.375 0.15625q-0.234375 0 -0.390625 -0.15625q-0.140625 -0.171875 -0.140625 -0.546875l0 -1.171875l4.40625 0l0 0.875l-2.8125 2.78125z" fill-rule="nonzero"/></g></svg>