<svg version="1.1" viewBox="0.0 0.0 960.0 540.0" fill="none" stroke="none" stroke-linecap="square" stroke-miterlimit="10" xmlns:xlink="http://www.w3.org/1999/xlink" xmlns="http://www.w3.org/2000/svg"><clipPath id="g2a24603c1d3_0_124.0"><path d="m0 0l960.0 0l0 540.0l-960.0 0l0 -540.0z" clip-rule="nonzero"/></clipPath><g clip-path="url(#g2a24603c1d3_0_124.0)"><path fill="#ffffff" d="m0 0l960.0 0l0 540.0l-960.0 0z" fill-rule="evenodd"/><path fill="#2fa1ff" fill-opacity="0.175" d="m205.88977 374.39896l90.0 -23.24936l19.0 68.0l13.750641 -0.75064087l15.748047 -2.4986877l14.750641 -4.0l12.249359 -4.0l12.750641 -7.0l6.7506714 -5.5013123l3.2493286 -8.748047l3.7506714 -11.750641l1.7506409 -10.0l0.49868774 -13.750671l-0.75064087 -12.750641l-3.4986877 -15.748047l-4.5013123 -12.251953l-6.249359 -12.0l-5.0 -7.0l-3.0 -3.4986877l-5.4986877 -4.0l-11.750641 -4.7506714l-16.0 -4.2493286l-18.0 -3.0l-20.0 -1.2493591l-18.750671 0l-18.498688 0.7480469l-21.501297 3.5013123l-17.0 4.2493286l-12.750656 5.249359l-4.7480316 13.251953l-3.5013123 10.249359l-2.4986877 10.498688l-1.7506561 11.501312l-0.50131226 12.498688l-0.24934387 15.251953z" fill-rule="evenodd"/><path fill="#000000" fill-opacity="0.0" d="m192.0 352.0l0 0c0 -57.437622 46.562393 -104.0 104.0 -104.0l0 0c27.58252 0 54.03531 10.957123 73.53909 30.460907c19.503784 19.503784 30.460907 45.956573 30.460907 73.53909l0 0c0 57.437622 -46.562378 104.0 -104.0 104.0l0 0c-57.437607 0 -104.0 -46.562378 -104.0 -104.0z" fill-rule="evenodd"/><path stroke="#cccccc" stroke-width="1.0" stroke-linejoin="round" stroke-linecap="butt" stroke-dasharray="4.0,3.0" d="m192.0 352.0l0 0c0 -57.437622 46.562393 -104.0 104.0 -104.0l0 0c27.58252 0 54.03531 10.957123 73.53909 30.460907c19.503784 19.503784 30.460907 45.956573 30.460907 73.53909l0 0c0 57.437622 -46.562378 104.0 -104.0 104.0l0 0c-57.437607 0 -104.0 -46.562378 -104.0 -104.0z" fill-rule="evenodd"/><path fill="#000000" fill-opacity="0.0" d="m382.7083 337.5852c-30.785156 -11.064819 -92.7489 -14.38266 -140.47379 -7.5216675c-47.72487 6.8609924 -64.23097 21.459747 -37.41986 33.095856l91.18533 -11.904785z" fill-rule="evenodd"/><path fill="#000000" fill-opacity="0.0" d="m382.7083 337.5852c-30.785156 -11.064819 -92.7489 -14.38266 -140.47379 -7.5216675c-47.72487 6.8609924 -64.23097 21.459747 -37.41986 33.095856" fill-rule="evenodd"/><path stroke="#cccccc" stroke-width="1.0" stroke-linejoin="round" stroke-linecap="butt" d="m382.70828 337.5852c-30.785126 -11.064789 -92.74887 -14.38266 -140.47374 -7.5216675c-23.862457 3.430481 -39.920197 8.795441 -46.66095 14.757233c-3.3703613 2.980957 -4.411499 6.111084 -2.9343262 9.223236c0.7385864 1.5560913 2.1067352 3.1076965 4.1280823 4.633911c1.0106812 0.7630615 2.1846619 1.5198364 3.524887 2.2676086c0.67012024 0.37390137 1.3817902 0.74554443 2.1354218 1.114624l0.13954163 0.06732178" fill-rule="evenodd"/><path fill="#cccccc" stroke="#cccccc" stroke-width="1.0" stroke-linecap="butt" d="m202.5672 362.12747l-0.7672882 0.2843933l1.686203 0.1375122l-1.2033081 -1.189209z" fill-rule="evenodd"/><path fill="#000000" fill-opacity="0.0" d="m396.68378 291.8772l0 0c9.472504 17.251892 14.664246 36.6727 15.109131 56.518738l-115.59085 2.7851562z" fill-rule="evenodd"/><path fill="#000000" fill-opacity="0.0" d="m396.68378 291.8772l0 0c9.472504 17.251892 14.664246 36.6727 15.109131 56.518738" fill-rule="evenodd"/><path stroke="#d9d9d9" stroke-width="1.0" stroke-linejoin="round" stroke-linecap="butt" d="m397.85117 294.05734l0.13641357 0.26000977c0.14172363 0.27267456 0.28237915 0.5458679 0.42199707 0.81954956c0.5584717 1.0947876 1.1000977 2.1975708 1.6247864 3.308014c1.0493774 2.2208557 2.0309753 4.4721985 2.9438477 6.7506104c1.8257446 4.556885 3.376648 9.222015 4.6454773 13.968262c2.5375977 9.492432 3.9467773 19.309113 4.16922 29.232117" fill-rule="evenodd"/><path fill="#d9d9d9" stroke="#d9d9d9" stroke-width="1.0" stroke-linecap="butt" d="m397.85117 294.05734l0.78326416 0.236969l-1.2605591 -1.1283569l0.24035645 1.6746521z" fill-rule="evenodd"/><path fill="#000000" fill-opacity="0.0" d="m206.09602 374.72812l0 0c-14.206985 11.75296 -7.229889 25.231812 17.929169 34.63681c25.159058 9.405029 64.01222 13.058563 99.84172 9.38855l-28.024384 -31.525146z" fill-rule="evenodd"/><path fill="#000000" fill-opacity="0.0" d="m206.09602 374.72812l0 0c-14.206985 11.75296 -7.229889 25.231812 17.929169 34.63681c25.159058 9.405029 64.01222 13.058563 99.84172 9.38855" fill-rule="evenodd"/><path stroke="#cccccc" stroke-width="1.0" stroke-linejoin="round" stroke-linecap="butt" stroke-dasharray="4.0,3.0" d="m206.09602 374.72812l0 0c-14.206985 11.75296 -7.229889 25.231812 17.929169 34.63681c25.159058 9.405029 64.01222 13.058563 99.84172 9.38855" fill-rule="evenodd"/><path fill="#000000" fill-opacity="0.0" d="m212.13461 290.23965l0 0c-6.2133636 9.251953 3.8732452 18.830597 26.50496 25.170135c22.63173 6.3395386 54.41835 8.490326 83.52696 5.6517334l-25.83319 -25.400116z" fill-rule="evenodd"/><path fill="#000000" fill-opacity="0.0" d="m212.13461 290.23965l0 0c-6.2133636 9.251953 3.8732452 18.830597 26.50496 25.170135c22.63173 6.3395386 54.41835 8.490326 83.52696 5.6517334" fill-rule="evenodd"/><path stroke="#cccccc" stroke-width="1.0" stroke-linejoin="round" stroke-linecap="butt" stroke-dasharray="4.0,3.0" d="m212.13461 290.23965l0 0c-6.2133636 9.251953 3.8732452 18.830597 26.50496 25.170135c22.63173 6.3395386 54.41835 8.490326 83.52696 5.6517334" fill-rule="evenodd"/><path fill="#000000" fill-opacity="0.0" d="m107.90026 335.45932l0 -64.0" fill-rule="evenodd"/><path stroke="#cccccc" stroke-width="1.0" stroke-linejoin="round" stroke-linecap="butt" d="m107.90026 335.45932l0 -60.572906" fill-rule="evenodd"/><path fill="#cccccc" stroke="#cccccc" stroke-width="1.0" stroke-linecap="butt" d="m107.90026 274.8864l1.124588 1.1245728l-1.124588 -3.0897522l-1.1245804 3.0897522z" fill-rule="evenodd"/><path fill="#000000" fill-opacity="0.0" d="m107.821526 335.2467l39.84252 27.149628" fill-rule="evenodd"/><path stroke="#cccccc" stroke-width="1.0" stroke-linejoin="round" stroke-linecap="butt" d="m107.821526 335.2467l37.010445 25.219788" fill-rule="evenodd"/><path fill="#cccccc" stroke="#cccccc" stroke-width="1.0" stroke-linecap="butt" d="m144.83197 360.4665l-1.5626068 0.29605103l3.1865997 0.8105774l-1.9200592 -2.6692505z" fill-rule="evenodd"/><path fill="#000000" fill-opacity="0.0" d="m107.902885 335.1496l54.77166 -15.24408" fill-rule="evenodd"/><path stroke="#cccccc" stroke-width="1.0" stroke-linejoin="round" stroke-linecap="butt" d="m107.902885 335.1496l51.470055 -14.325195" fill-rule="evenodd"/><path fill="#cccccc" stroke="#cccccc" stroke-width="1.0" stroke-linecap="butt" d="m159.37294 320.8244l-0.78186035 1.3849487l2.6750946 -1.9118652l-3.2781677 -0.25494385z" fill-rule="evenodd"/><path fill="#000000" fill-opacity="0.0" d="m83.343834 258.95538l23.055115 0l0 32.314972l-23.055115 0z" fill-rule="evenodd"/><path fill="#595959" d="m97.625084 273.53912l0 0.40625l-3.390625 3.796875l3.0625 0l0 -0.625q0 -0.15625 0.0625 -0.21875q0.0625 -0.078125 0.15625 -0.078125q0.109375 0 0.171875 0.078125q0.0625 0.0625 0.0625 0.21875l-0.015625 1.078125l-4.125 0l0 -0.40625l3.375 -3.78125l-2.8125 0l0 0.609375q0 0.15625 -0.0625 0.234375q-0.0625 0.0625 -0.15625 0.0625q-0.109375 0 -0.171875 -0.0625q-0.0625 -0.078125 -0.0625 -0.234375l0 -1.078125l3.90625 0z" fill-rule="nonzero"/><path fill="#000000" fill-opacity="0.0" d="m116.343834 344.4567l23.055122 0l0 32.314972l-23.055122 0z" fill-rule="evenodd"/><path fill="#595959" d="m128.9532 361.2592l2.0625 1.984375q0.203125 0 0.25 0.03125q0.0625 0.015625 0.09375 0.078125q0.046875 0.046875 0.046875 0.125q0 0.09375 -0.0625 0.15625q-0.0625 0.0625 -0.234375 0.0625l-1.453125 0q-0.171875 0 -0.25 -0.0625q-0.0625 -0.0625 -0.0625 -0.15625q0 -0.109375 0.0625 -0.171875q0.078125 -0.0625 0.25 -0.0625l0.75 0l-1.765625 -1.671875l-1.7343674 1.671875l0.75 0q0.15625 0 0.21875 0.0625q0.078125 0.0625 0.078125 0.171875q0 0.09375 -0.078125 0.15625q-0.0625 0.0625 -0.21875 0.0625l-1.46875 0q-0.15625 0 -0.234375 -0.0625q-0.0625 -0.0625 -0.0625 -0.15625q0 -0.078125 0.03125 -0.125q0.046875 -0.0625 0.09375 -0.078125q0.046875 -0.03125 0.25 -0.03125l2.0781174 -1.984375l-1.8437424 -1.75q-0.1875 0 -0.25 -0.015625q-0.046875 -0.03125 -0.09375 -0.09375q-0.03125 -0.0625 -0.03125 -0.125q0 -0.09375 0.0625 -0.15625q0.078125 -0.078125 0.25 -0.078125l1.234375 0q0.15625 0 0.21875 0.078125q0.078125 0.0625 0.078125 0.15625q0 0.09375 -0.078125 0.171875q-0.0625 0.0625 -0.21875 0.0625l-0.546875 0l1.5156174 1.453125l1.53125 -1.453125l-0.53125 0q-0.15625 0 -0.234375 -0.0625q-0.078125 -0.078125 -0.078125 -0.171875q0 -0.09375 0.0625 -0.15625q0.078125 -0.078125 0.25 -0.078125l1.234375 0q0.15625 0 0.21875 0.078125q0.078125 0.0625 0.078125 0.15625q0 0.0625 -0.046875 0.125q-0.03125 0.0625 -0.09375 0.09375q-0.046875 0.015625 -0.234375 0.015625l-1.84375 1.75z" fill-rule="nonzero"/><path fill="#000000" fill-opacity="0.0" d="m137.84251 292.96063l23.05513 0l0 32.314972l-23.05513 0z" fill-rule="evenodd"/><path fill="#595959" d="m150.17064 312.20062l-2.09375 -4.1875l-0.140625 0q-0.15625 0 -0.234375 -0.0625q-0.0625 -0.078125 -0.0625 -0.171875q0 -0.0625 0.03125 -0.125q0.046875 -0.0625 0.09375 -0.078125q0.0625 -0.03125 0.171875 -0.03125l1.25 0q0.15625 0 0.21875 0.078125q0.078125 0.0625 0.078125 0.15625q0 0.09375 -0.078125 0.171875q-0.0625 0.0625 -0.21875 0.0625l-0.609375 0l1.84375 3.6875l1.8125 -3.6875l-0.609375 0q-0.15625 0 -0.234375 -0.0625q-0.0625 -0.078125 -0.0625 -0.171875q0 -0.09375 0.0625 -0.15625q0.078125 -0.078125 0.234375 -0.078125l1.234375 0q0.15625 0 0.21875 0.078125q0.078125 0.0625 0.078125 0.15625q0 0.078125 -0.046875 0.140625q-0.03125 0.046875 -0.09375 0.078125q-0.046875 0.015625 -0.296875 0.015625l-2.859375 5.8125l0.703125 0q0.171875 0 0.234375 0.0625q0.0625 0.0625 0.0625 0.15625q0 0.09375 -0.0625 0.15625q-0.0625 0.078125 -0.234375 0.078125l-2.59375 0q-0.15625 0 -0.234375 -0.0625q-0.0625 -0.0625 -0.0625 -0.171875q0 -0.09375 0.0625 -0.15625q0.078125 -0.0625 0.234375 -0.0625l1.40625 0l0.796875 -1.625z" fill-rule="nonzero"/><path fill="#000000" fill-opacity="0.0" d="m35.496063 306.937l88.0 0l0 38.771637l-88.0 0z" fill-rule="evenodd"/><path fill="#595959" d="m59.908173 320.22638l0 0.828125q0.640625 -0.578125 0.953125 -0.734375q0.3125 -0.171875 0.59375 -0.171875q0.28125 0 0.53125 0.203125q0.265625 0.1875 0.265625 0.296875q0 0.078125 -0.0625 0.125q-0.046875 0.046875 -0.109375 0.046875q-0.046875 0 -0.078125 -0.015625q-0.015625 -0.015625 -0.09375 -0.09375q-0.140625 -0.125 -0.25 -0.171875q-0.09375 -0.0625 -0.1875 -0.0625q-0.21875 0 -0.53125 0.171875q-0.296875 0.171875 -1.03125 0.84375l0 1.796875l1.453125 0q0.109375 0 0.15625 0.046875q0.0625 0.046875 0.0625 0.109375q0 0.078125 -0.0625 0.125q-0.046875 0.046875 -0.15625 0.046875l-2.578125 0q-0.125 0 -0.171875 -0.046875q-0.046875 -0.046875 -0.046875 -0.109375q0 -0.078125 0.046875 -0.109375q0.046875 -0.046875 0.171875 -0.046875l0.796875 0l0 -2.734375l-0.609375 0q-0.125 0 -0.171875 -0.046875q-0.046875 -0.046875 -0.046875 -0.125q0 -0.078125 0.046875 -0.125q0.046875 -0.046875 0.171875 -0.046875l0.9375 0zm6.9570312 1.78125l-3.34375 0q0.09375 0.625 0.53125 1.015625q0.453125 0.390625 1.109375 0.390625q0.375 0 0.765625 -0.109375q0.40625 -0.125 0.671875 -0.328125q0.0625 -0.0625 0.125 -0.0625q0.0625 0 0.109375 0.046875q0.046875 0.046875 0.046875 0.125q0 0.0625 -0.0625 0.125q-0.1875 0.1875 -0.671875 0.359375q-0.46875 0.171875 -0.984375 0.171875q-0.84375 0 -1.40625 -0.546875q-0.5625 -0.5625 -0.5625 -1.34375q0 -0.71875 0.53125 -1.21875q0.53125 -0.515625 1.3125 -0.515625q0.796875 0 1.3125 0.53125q0.53125 0.515625 0.515625 1.359375zm-0.328125 -0.34375q-0.09375 -0.53125 -0.515625 -0.875q-0.40625 -0.34375 -0.984375 -0.34375q-0.578125 0 -1.0 0.34375q-0.40625 0.328125 -0.5 0.875l3.0 0zm3.1445312 -1.09375l0 2.71875l1.4375 0q0.125 0 0.171875 0.046875q0.046875 0.046875 0.046875 0.109375q0 0.078125 -0.046875 0.125q-0.046875 0.046875 -0.171875 0.046875l-2.5625 0q-0.125 0 -0.171875 -0.046875q-0.046875 -0.046875 -0.046875 -0.125q0 -0.0625 0.046875 -0.109375q0.046875 -0.046875 0.171875 -0.046875l0.796875 0l0 -2.71875l-0.71875 0q-0.109375 0 -0.171875 -0.046875q-0.046875 -0.046875 -0.046875 -0.125q0 -0.078125 0.046875 -0.125q0.0625 -0.046875 0.171875 -0.046875l0.71875 0l0 -0.484375q0 -0.421875 0.328125 -0.71875q0.34375 -0.3125 0.890625 -0.3125q0.46875 0 1.0 0.09375q0.1875 0.03125 0.234375 0.078125q0.046875 0.03125 0.046875 0.109375q0 0.0625 -0.046875 0.109375q-0.046875 0.046875 -0.125 0.046875q-0.03125 0 -0.109375 -0.015625q-0.59375 -0.09375 -1.0 -0.09375q-0.421875 0 -0.65625 0.21875q-0.234375 0.203125 -0.234375 0.484375l0 0.484375l1.53125 0q0.125 0 0.171875 0.046875q0.046875 0.046875 0.046875 0.125q0 0.078125 -0.046875 0.125q-0.046875 0.046875 -0.171875 0.046875l-1.53125 0zm6.7851562 1.4375l-3.34375 0q0.09375 0.625 0.53125 1.015625q0.453125 0.390625 1.109375 0.390625q0.375 0 0.765625 -0.109375q0.40625 -0.125 0.671875 -0.328125q0.0625 -0.0625 0.125 -0.0625q0.0625 0 0.109375 0.046875q0.046875 0.046875 0.046875 0.125q0 0.0625 -0.0625 0.125q-0.1875 0.1875 -0.671875 0.359375q-0.46875 0.171875 -0.984375 0.171875q-0.84375 0 -1.40625 -0.546875q-0.5625 -0.5625 -0.5625 -1.34375q0 -0.71875 0.53125 -1.21875q0.53125 -0.515625 1.3125 -0.515625q0.796875 0 1.3125 0.53125q0.53125 0.515625 0.515625 1.359375zm-0.328125 -0.34375q-0.09375 -0.53125 -0.515625 -0.875q-0.40625 -0.34375 -0.984375 -0.34375q-0.578125 0 -1.0 0.34375q-0.40625 0.328125 -0.5 0.875l3.0 0zm2.9726562 -1.4375l0 0.828125q0.640625 -0.578125 0.953125 -0.734375q0.3125 -0.171875 0.59375 -0.171875q0.28125 0 0.53125 0.203125q0.265625 0.1875 0.265625 0.296875q0 0.078125 -0.0625 0.125q-0.046875 0.046875 -0.109375 0.046875q-0.046875 0 -0.078125 -0.015625q-0.015625 -0.015625 -0.09375 -0.09375q-0.140625 -0.125 -0.25 -0.171875q-0.09375 -0.0625 -0.1875 -0.0625q-0.21875 0 -0.53125 0.171875q-0.296875 0.171875 -1.03125 0.84375l0 1.796875l1.453125 0q0.109375 0 0.15625 0.046875q0.0625 0.046875 0.0625 0.109375q0 0.078125 -0.0625 0.125q-0.046875 0.046875 -0.15625 0.046875l-2.578125 0q-0.125 0 -0.171875 -0.046875q-0.046875 -0.046875 -0.046875 -0.109375q0 -0.078125 0.046875 -0.109375q0.046875 -0.046875 0.171875 -0.046875l0.796875 0l0 -2.734375l-0.609375 0q-0.125 0 -0.171875 -0.046875q-0.046875 -0.046875 -0.046875 -0.125q0 -0.078125 0.046875 -0.125q0.046875 -0.046875 0.171875 -0.046875l0.9375 0zm6.9570312 1.78125l-3.34375 0q0.09375 0.625 0.53125 1.015625q0.453125 0.390625 1.109375 0.390625q0.375 0 0.765625 -0.109375q0.40625 -0.125 0.671875 -0.328125q0.0625 -0.0625 0.125 -0.0625q0.0625 0 0.109375 0.046875q0.046875 0.046875 0.046875 0.125q0 0.0625 -0.0625 0.125q-0.1875 0.1875 -0.671875 0.359375q-0.46875 0.171875 -0.984375 0.171875q-0.84375 0 -1.40625 -0.546875q-0.5625 -0.5625 -0.5625 -1.34375q0 -0.71875 0.53125 -1.21875q0.53125 -0.515625 1.3125 -0.515625q0.796875 0 1.3125 0.53125q0.53125 0.515625 0.515625 1.359375zm-0.328125 -0.34375q-0.09375 -0.53125 -0.515625 -0.875q-0.40625 -0.34375 -0.984375 -0.34375q-0.578125 0 -1.0 0.34375q-0.40625 0.328125 -0.5 0.875l3.0 0zm2.3007812 -1.4375l0 0.5q0.34375 -0.34375 0.609375 -0.46875q0.28125 -0.140625 0.640625 -0.140625q0.375 0 0.671875 0.15625q0.21875 0.125 0.390625 0.390625q0.1875 0.265625 0.1875 0.5625l0 2.0625l0.28125 0q0.109375 0 0.15625 0.046875q0.0625 0.046875 0.0625 0.109375q0 0.078125 -0.0625 0.125q-0.046875 0.046875 -0.15625 0.046875l-0.875 0q-0.125 0 -0.1875 -0.046875q-0.046875 -0.046875 -0.046875 -0.125q0 -0.0625 0.046875 -0.109375q0.0625 -0.046875 0.1875 -0.046875l0.265625 0l0 -2.015625q0 -0.34375 -0.25 -0.578125q-0.25 -0.25 -0.6875 -0.25q-0.3125 0 -0.5625 0.140625q-0.234375 0.125 -0.671875 0.640625l0 2.0625l0.375 0q0.109375 0 0.15625 0.046875q0.0625 0.046875 0.0625 0.109375q0 0.078125 -0.0625 0.125q-0.046875 0.046875 -0.15625 0.046875l-1.078125 0q-0.109375 0 -0.171875 -0.046875q-0.046875 -0.046875 -0.046875 -0.125q0 -0.0625 0.046875 -0.109375q0.0625 -0.046875 0.171875 -0.046875l0.375 0l0 -2.71875l-0.28125 0q-0.109375 0 -0.171875 -0.046875q-0.046875 -0.046875 -0.046875 -0.125q0 -0.078125 0.046875 -0.125q0.0625 -0.046875 0.171875 -0.046875l0.609375 0zm7.2226562 0.34375l0 -0.109375q0 -0.125 0.046875 -0.171875q0.046875 -0.0625 0.125 -0.0625q0.078125 0 0.125 0.0625q0.046875 0.046875 0.046875 0.171875l0 0.734375q-0.015625 0.125 -0.0625 0.171875q-0.03125 0.046875 -0.109375 0.046875q-0.0625 0 -0.109375 -0.03125q-0.046875 -0.046875 -0.0625 -0.15625q-0.015625 -0.28125 -0.359375 -0.53125q-0.34375 -0.25 -0.921875 -0.25q-0.734375 0 -1.109375 0.46875q-0.375 0.453125 -0.375 1.03125q0 0.640625 0.40625 1.0625q0.421875 0.40625 1.09375 0.40625q0.375 0 0.765625 -0.140625q0.40625 -0.140625 0.734375 -0.453125q0.078125 -0.078125 0.140625 -0.078125q0.0625 0 0.109375 0.046875q0.046875 0.046875 0.046875 0.109375q0 0.171875 -0.390625 0.421875q-0.640625 0.421875 -1.421875 0.421875q-0.796875 0 -1.3125 -0.5q-0.5 -0.515625 -0.5 -1.28125q0 -0.796875 0.515625 -1.3125q0.53125 -0.53125 1.3125 -0.53125q0.765625 0 1.265625 0.453125zm5.2070312 1.4375l-3.34375 0q0.09375 0.625 0.53125 1.015625q0.453125 0.390625 1.109375 0.390625q0.375 0 0.765625 -0.109375q0.40625 -0.125 0.671875 -0.328125q0.0625 -0.0625 0.125 -0.0625q0.0625 0 0.109375 0.046875q0.046875 0.046875 0.046875 0.125q0 0.0625 -0.0625 0.125q-0.1875 0.1875 -0.671875 0.359375q-0.46875 0.171875 -0.984375 0.171875q-0.84375 0 -1.40625 -0.546875q-0.5625 -0.5625 -0.5625 -1.34375q0 -0.71875 0.53125 -1.21875q0.53125 -0.515625 1.3125 -0.515625q0.796875 0 1.3125 0.53125q0.53125 0.515625 0.515625 1.359375zm-0.328125 -0.34375q-0.09375 -0.53125 -0.515625 -0.875q-0.40625 -0.34375 -0.984375 -0.34375q-0.578125 0 -1.0 0.34375q-0.40625 0.328125 -0.5 0.875l3.0 0z" fill-rule="nonzero"/><path fill="#595959" d="m69.68161 330.17014l0 2.71875l1.4375 0q0.125 0 0.171875 0.046875q0.046875 0.046875 0.046875 0.109375q0 0.078125 -0.046875 0.125q-0.046875 0.046875 -0.171875 0.046875l-2.5625 0q-0.125 0 -0.171875 -0.046875q-0.046875 -0.046875 -0.046875 -0.125q0 -0.0625 0.046875 -0.109375q0.046875 -0.046875 0.171875 -0.046875l0.796875 0l0 -2.71875l-0.71875 0q-0.109375 0 -0.171875 -0.046875q-0.046875 -0.046875 -0.046875 -0.125q0 -0.078125 0.046875 -0.125q0.0625 -0.046875 0.171875 -0.046875l0.71875 0l0 -0.484375q0 -0.421875 0.328125 -0.71875q0.34375 -0.3125 0.890625 -0.3125q0.46875 0 1.0 0.09375q0.1875 0.03125 0.234375 0.078125q0.046875 0.03125 0.046875 0.109375q0 0.0625 -0.046875 0.109375q-0.046875 0.046875 -0.125 0.046875q-0.03125 0 -0.109375 -0.015625q-0.59375 -0.09375 -1.0 -0.09375q-0.421875 0 -0.65625 0.21875q-0.234375 0.203125 -0.234375 0.484375l0 0.484375l1.53125 0q0.125 0 0.171875 0.046875q0.046875 0.046875 0.046875 0.125q0 0.078125 -0.046875 0.125q-0.046875 0.046875 -0.171875 0.046875l-1.53125 0zm4.6289062 -0.34375l0 0.828125q0.640625 -0.578125 0.953125 -0.734375q0.3125 -0.171875 0.59375 -0.171875q0.28125 0 0.53125 0.203125q0.265625 0.1875 0.265625 0.296875q0 0.078125 -0.0625 0.125q-0.046875 0.046875 -0.109375 0.046875q-0.046875 0 -0.078125 -0.015625q-0.015625 -0.015625 -0.09375 -0.09375q-0.140625 -0.125 -0.25 -0.171875q-0.09375 -0.0625 -0.1875 -0.0625q-0.21875 0 -0.53125 0.171875q-0.296875 0.171875 -1.03125 0.84375l0 1.796875l1.453125 0q0.109375 0 0.15625 0.046875q0.0625 0.046875 0.0625 0.109375q0 0.078125 -0.0625 0.125q-0.046875 0.046875 -0.15625 0.046875l-2.578125 0q-0.125 0 -0.171875 -0.046875q-0.046875 -0.046875 -0.046875 -0.109375q0 -0.078125 0.046875 -0.109375q0.046875 -0.046875 0.171875 -0.046875l0.796875 0l0 -2.734375l-0.609375 0q-0.125 0 -0.171875 -0.046875q-0.046875 -0.046875 -0.046875 -0.125q0 -0.078125 0.046875 -0.125q0.046875 -0.046875 0.171875 -0.046875l0.9375 0zm6.1289062 3.390625l0 -0.46875q-0.71875 0.59375 -1.53125 0.59375q-0.578125 0 -0.921875 -0.296875q-0.328125 -0.296875 -0.328125 -0.734375q0 -0.46875 0.4375 -0.828125q0.4375 -0.359375 1.28125 -0.359375q0.21875 0 0.484375 0.03125q0.265625 0.03125 0.578125 0.09375l0 -0.53125q0 -0.265625 -0.25 -0.46875q-0.25 -0.203125 -0.75 -0.203125q-0.375 0 -1.078125 0.21875q-0.125 0.046875 -0.15625 0.046875q-0.0625 0 -0.109375 -0.046875q-0.046875 -0.046875 -0.046875 -0.125q0 -0.0625 0.046875 -0.09375q0.046875 -0.0625 0.4375 -0.171875q0.609375 -0.15625 0.921875 -0.15625q0.625 0 0.96875 0.3125q0.34375 0.296875 0.34375 0.6875l0 2.171875l0.4375 0q0.125 0 0.171875 0.046875q0.0625 0.046875 0.0625 0.109375q0 0.078125 -0.0625 0.125q-0.046875 0.046875 -0.171875 0.046875l-0.765625 0zm0 -1.640625q-0.234375 -0.0625 -0.5 -0.09375q-0.25 -0.03125 -0.53125 -0.03125q-0.71875 0 -1.109375 0.3125q-0.3125 0.234375 -0.3125 0.546875q0 0.296875 0.234375 0.5q0.234375 0.203125 0.671875 0.203125q0.4375 0 0.796875 -0.171875q0.359375 -0.171875 0.75 -0.53125l0 -0.734375zm2.3632812 -1.75l0 0.34375q0.421875 -0.453125 0.84375 -0.453125q0.25 0 0.4375 0.140625q0.203125 0.125 0.328125 0.40625q0.21875 -0.28125 0.4375 -0.40625q0.234375 -0.140625 0.453125 -0.140625q0.359375 0 0.5625 0.234375q0.28125 0.296875 0.28125 0.640625l0 2.296875l0.28125 0q0.109375 0 0.15625 0.046875q0.0625 0.046875 0.0625 0.109375q0 0.078125 -0.0625 0.125q-0.046875 0.046875 -0.15625 0.046875l-0.609375 0l0 -2.59375q0 -0.25 -0.15625 -0.40625q-0.140625 -0.171875 -0.34375 -0.171875q-0.1875 0 -0.390625 0.140625q-0.1875 0.125 -0.4375 0.53125l0 2.171875l0.265625 0q0.125 0 0.171875 0.046875q0.046875 0.046875 0.046875 0.109375q0 0.078125 -0.046875 0.125q-0.046875 0.046875 -0.171875 0.046875l-0.609375 0l0 -2.5625q0 -0.265625 -0.15625 -0.4375q-0.140625 -0.171875 -0.34375 -0.171875q-0.171875 0 -0.34375 0.109375q-0.234375 0.171875 -0.5 0.5625l0 2.171875l0.28125 0q0.109375 0 0.15625 0.046875q0.0625 0.046875 0.0625 0.109375q0 0.078125 -0.0625 0.125q-0.046875 0.046875 -0.15625 0.046875l-0.890625 0q-0.109375 0 -0.171875 -0.046875q-0.046875 -0.046875 -0.046875 -0.125q0 -0.0625 0.046875 -0.109375q0.0625 -0.046875 0.171875 -0.046875l0.28125 0l0 -2.71875l-0.28125 0q-0.109375 0 -0.171875 -0.046875q-0.046875 -0.046875 -0.046875 -0.125q0 -0.078125 0.046875 -0.125q0.0625 -0.046875 0.171875 -0.046875l0.609375 0zm8.066406 1.78125l-3.34375 0q0.09375 0.625 0.53125 1.015625q0.453125 0.390625 1.109375 0.390625q0.375 0 0.765625 -0.109375q0.40625 -0.125 0.671875 -0.328125q0.0625 -0.0625 0.125 -0.0625q0.0625 0 0.109375 0.046875q0.046875 0.046875 0.046875 0.125q0 0.0625 -0.0625 0.125q-0.1875 0.1875 -0.671875 0.359375q-0.46875 0.171875 -0.984375 0.171875q-0.84375 0 -1.40625 -0.546875q-0.5625 -0.5625 -0.5625 -1.34375q0 -0.71875 0.53125 -1.21875q0.53125 -0.515625 1.3125 -0.515625q0.796875 0 1.3125 0.53125q0.53125 0.515625 0.515625 1.359375zm-0.328125 -0.34375q-0.09375 -0.53125 -0.515625 -0.875q-0.40625 -0.34375 -0.984375 -0.34375q-0.578125 0 -1.0 0.34375q-0.40625 0.328125 -0.5 0.875l3.0 0z" fill-rule="nonzero"/><path fill="#000000" fill-opacity="0.0" d="m321.26462 375.26892l0 0c32.18222 -1.918457 58.588257 -7.376648 71.08066 -14.692535c12.492401 -7.3158875 9.57196 -15.611511 -7.8612976 -22.330444l-88.48398 13.008667z" fill-rule="evenodd"/><path fill="#000000" fill-opacity="0.0" d="m321.26462 375.26892l0 0c32.18222 -1.918457 58.588257 -7.376648 71.08066 -14.692535c12.492401 -7.3158875 9.57196 -15.611511 -7.8612976 -22.330444" fill-rule="evenodd"/><path stroke="#cccccc" stroke-width="1.0" stroke-linejoin="round" stroke-linecap="butt" d="m323.7328 375.11346l0.5317383 -0.034729004c0.99417114 -0.06680298 1.9824524 -0.13705444 2.964569 -0.21063232c1.9642944 -0.14712524 3.9040222 -0.30770874 5.8171997 -0.4812622c3.8263855 -0.34710693 7.5466003 -0.7463074 11.144806 -1.1941833c7.1963806 -0.8957825 13.904633 -1.9865417 19.997498 -3.2459717c12.185883 -2.5188293 21.910492 -5.7123413 28.156677 -9.37027c12.492401 -7.315918 9.57196 -15.611511 -7.861267 -22.330505" fill-rule="evenodd"/><path fill="#cccccc" stroke="#cccccc" stroke-width="1.0" stroke-linecap="butt" d="m323.73276 375.11346l0.5411377 -0.6138611l-1.5502625 0.6773987l1.6229858 0.47756958z" fill-rule="evenodd"/><path fill="#000000" fill-opacity="0.0" d="m296.0 351.2546l25.13385 23.905487" fill-rule="evenodd"/><path stroke="#cccccc" stroke-width="1.0" stroke-linejoin="round" stroke-linecap="butt" stroke-dasharray="1.0,3.0" d="m296.0 351.2546l25.13385 23.905487" fill-rule="evenodd"/><path fill="#000000" fill-opacity="0.0" d="m296.02362 351.16534l88.31497 -13.165344" fill-rule="evenodd"/><path stroke="#cccccc" stroke-width="1.0" stroke-linejoin="round" stroke-linecap="butt" stroke-dasharray="1.0,3.0" d="m296.02362 351.16534l88.31497 -13.165344" fill-rule="evenodd"/><path fill="#000000" fill-opacity="0.0" d="m296.0 351.2546l19.181091 68.59842" fill-rule="evenodd"/><path stroke="#000000" stroke-width="1.0" stroke-linejoin="round" stroke-linecap="butt" d="m296.0 351.2546l19.181091 68.59842" fill-rule="evenodd"/><path fill="#000000" fill-opacity="0.0" d="m205.7227 374.66498l0 0c-4.348572 -31.69104 0.051956177 -65.13107 11.876007 -90.24695l45.364548 65.98093z" fill-rule="evenodd"/><path fill="#000000" fill-opacity="0.0" d="m205.7227 374.66498l0 0c-4.348572 -31.69104 0.051956177 -65.13107 11.876007 -90.24695" fill-rule="evenodd"/><path stroke="#000000" stroke-width="1.0" stroke-linejoin="round" stroke-linecap="butt" d="m205.7227 374.66498l0 0c-4.348572 -31.69104 0.051956177 -65.13107 11.876007 -90.24695" fill-rule="evenodd"/><path fill="#000000" fill-opacity="0.0" d="m217.08534 284.84393l0 0c17.832901 -10.606415 57.473373 -16.265137 96.34569 -13.7535095c38.872314 2.5116577 67.11304 12.556366 68.6387 24.413574c1.5256348 11.857178 -24.050842 22.518219 -62.16339 25.91153l-24.922089 -24.914215z" fill-rule="evenodd"/><path fill="#000000" fill-opacity="0.0" d="m217.08534 284.84393l0 0c17.832901 -10.606415 57.473373 -16.265137 96.34569 -13.7535095c38.872314 2.5116577 67.11304 12.556366 68.6387 24.413574c1.5256348 11.857178 -24.050842 22.518219 -62.16339 25.91153" fill-rule="evenodd"/><path stroke="#000000" stroke-width="1.0" stroke-linejoin="round" stroke-linecap="butt" d="m217.08534 284.84393l0 0c17.832901 -10.606415 57.473373 -16.265137 96.34569 -13.7535095c38.872314 2.5116577 67.11304 12.556366 68.6387 24.413574c1.5256348 11.857178 -24.050842 22.518219 -62.16339 25.91153" fill-rule="evenodd"/><path fill="#000000" fill-opacity="0.0" d="m315.02625 419.51437l0 0c43.252625 -2.8961487 75.29843 -15.333954 77.98749 -30.26892l-96.74863 -2.0066223z" fill-rule="evenodd"/><path fill="#000000" fill-opacity="0.0" d="m315.02625 419.51437l0 0c43.252625 -2.8961487 75.29843 -15.333954 77.98749 -30.26892" fill-rule="evenodd"/><path stroke="#000000" stroke-width="1.0" stroke-linejoin="round" stroke-linecap="butt" d="m315.02625 419.51437l0 0c43.252625 -2.8961487 75.29843 -15.333954 77.98749 -30.26892" fill-rule="evenodd"/><path fill="#000000" fill-opacity="0.0" d="m296.0 351.2546l24.283478 -29.606323" fill-rule="evenodd"/><path stroke="#000000" stroke-width="1.0" stroke-linejoin="round" stroke-linecap="butt" d="m296.0 351.2546l24.283478 -29.606323" fill-rule="evenodd"/><path fill="#000000" fill-opacity="0.0" d="m296.0 351.2546l-78.92914 -66.4252" fill-rule="evenodd"/><path stroke="#000000" stroke-width="1.0" stroke-linejoin="round" stroke-linecap="butt" d="m296.0 351.2546l-78.92914 -66.4252" fill-rule="evenodd"/><path fill="#000000" fill-opacity="0.0" d="m296.0 351.2546l-90.267715 23.40155" fill-rule="evenodd"/><path stroke="#000000" stroke-width="1.0" stroke-linejoin="round" stroke-linecap="butt" d="m296.0 351.2546l-90.267715 23.40155" fill-rule="evenodd"/><path fill="#000000" fill-opacity="0.0" d="m380.63626 291.83252l0 0c20.287872 28.71753 24.875824 65.78287 12.209198 98.636505l-96.97937 -37.912598z" fill-rule="evenodd"/><path fill="#000000" fill-opacity="0.0" d="m380.63626 291.83252l0 0c20.287872 28.71753 24.875824 65.78287 12.209198 98.636505" fill-rule="evenodd"/><path stroke="#000000" stroke-width="1.0" stroke-linejoin="round" stroke-linecap="butt" d="m380.63626 291.83252l0 0c20.287872 28.71753 24.875824 65.78287 12.209198 98.636505" fill-rule="evenodd"/><path fill="#000000" fill-opacity="0.0" d="m320.2678 321.64636l0 0c2.6537476 34.05179 0.72976685 71.15982 -5.091797 98.20639l-19.658936 -67.45642z" fill-rule="evenodd"/><path fill="#000000" fill-opacity="0.0" d="m320.2678 321.64636l0 0c2.6537476 34.05179 0.72976685 71.15982 -5.091797 98.20639" fill-rule="evenodd"/><path stroke="#000000" stroke-width="1.0" stroke-linejoin="round" stroke-linecap="butt" d="m320.2678 321.64636l0 0c2.6537476 34.05179 0.72976685 71.15982 -5.091797 98.20639" fill-rule="evenodd"/><path fill="#000000" fill-opacity="0.0" d="m296.0 351.2546l-91.40158 11.496063" fill-rule="evenodd"/><path stroke="#cccccc" stroke-width="1.0" stroke-linejoin="round" stroke-linecap="butt" stroke-dasharray="1.0,3.0" d="m296.0 351.2546l-91.40158 11.496063" fill-rule="evenodd"/><path fill="#000000" fill-opacity="0.0" d="m295.87927 351.44882l0 -64.0" fill-rule="evenodd"/><path stroke="#cccccc" stroke-width="1.0" stroke-linejoin="round" stroke-linecap="butt" d="m295.87927 351.44882l0 -60.572906" fill-rule="evenodd"/><path fill="#cccccc" stroke="#cccccc" stroke-width="1.0" stroke-linecap="butt" d="m295.87927 290.87592l1.1245728 1.1245728l-1.1245728 -3.0897522l-1.1246033 3.0897522z" fill-rule="evenodd"/><path fill="#000000" fill-opacity="0.0" d="m295.80054 351.2362l56.944855 -8.566925" fill-rule="evenodd"/><path stroke="#cccccc" stroke-width="1.0" stroke-linejoin="round" stroke-linecap="butt" d="m295.80054 351.2362l53.55594 -8.057068" fill-rule="evenodd"/><path fill="#cccccc" stroke="#cccccc" stroke-width="1.0" stroke-linecap="butt" d="m349.35645 343.17914l-0.9447632 1.2793579l2.888092 -1.5717163l-3.2226868 -0.6524048z" fill-rule="evenodd"/><path fill="#000000" fill-opacity="0.0" d="m295.8924 351.1391l-33.51181 -14.236206" fill-rule="evenodd"/><path stroke="#cccccc" stroke-width="1.0" stroke-linejoin="round" stroke-linecap="butt" d="m295.8924 351.1391l-30.357544 -12.89624" fill-rule="evenodd"/><path fill="#cccccc" stroke="#cccccc" stroke-width="1.0" stroke-linecap="butt" d="m265.53485 338.24286l1.474762 -0.59536743l-3.2835083 -0.17300415l2.4040833 2.2431335z" fill-rule="evenodd"/><path fill="#000000" fill-opacity="0.0" d="m278.0735 271.4462l23.055115 0l0 29.070862l-23.055115 0z" fill-rule="evenodd"/><path fill="#595959" d="m290.91724 284.73557l0 0.296875l-2.46875 2.765625l2.21875 0l0 -0.453125q0 -0.125 0.046875 -0.171875q0.046875 -0.046875 0.125 -0.046875q0.078125 0 0.125 0.046875q0.046875 0.046875 0.046875 0.171875l-0.015625 0.78125l-3.0 0l0 -0.296875l2.453125 -2.75l-2.046875 0l0 0.4375q0 0.125 -0.046875 0.171875q-0.046875 0.046875 -0.109375 0.046875q-0.078125 0 -0.125 -0.046875q-0.046875 -0.046875 -0.046875 -0.171875l0 -0.78125l2.84375 0z" fill-rule="nonzero"/><path fill="#000000" fill-opacity="0.0" d="m331.57217 320.69815l23.055115 0l0 29.070892l-23.055115 0z" fill-rule="evenodd"/><path fill="#595959" d="m343.19717 335.61255l1.5 1.4375q0.15625 0 0.1875 0.015625q0.046875 0.015625 0.078125 0.0625q0.03125 0.03125 0.03125 0.078125q0 0.078125 -0.0625 0.125q-0.046875 0.046875 -0.171875 0.046875l-1.046875 0q-0.125 0 -0.171875 -0.046875q-0.046875 -0.046875 -0.046875 -0.125q0 -0.0625 0.046875 -0.109375q0.046875 -0.046875 0.171875 -0.046875l0.546875 0l-1.28125 -1.21875l-1.265625 1.21875l0.546875 0q0.109375 0 0.15625 0.046875q0.0625 0.046875 0.0625 0.109375q0 0.078125 -0.0625 0.125q-0.046875 0.046875 -0.15625 0.046875l-1.078125 0q-0.109375 0 -0.171875 -0.046875q-0.046875 -0.046875 -0.046875 -0.125q0 -0.046875 0.03125 -0.078125q0.03125 -0.046875 0.0625 -0.0625q0.046875 -0.015625 0.1875 -0.015625l1.515625 -1.4375l-1.34375 -1.28125q-0.140625 0 -0.1875 -0.015625q-0.03125 -0.015625 -0.0625 -0.0625q-0.015625 -0.046875 -0.015625 -0.09375q0 -0.078125 0.046875 -0.125q0.046875 -0.046875 0.171875 -0.046875l0.890625 0q0.125 0 0.171875 0.046875q0.046875 0.046875 0.046875 0.125q0 0.078125 -0.046875 0.125q-0.046875 0.046875 -0.171875 0.046875l-0.390625 0l1.109375 1.0625l1.109375 -1.0625l-0.390625 0q-0.109375 0 -0.171875 -0.046875q-0.046875 -0.046875 -0.046875 -0.125q0 -0.078125 0.046875 -0.125q0.046875 -0.046875 0.171875 -0.046875l0.890625 0q0.125 0 0.171875 0.046875q0.046875 0.046875 0.046875 0.125q0 0.046875 -0.03125 0.09375q-0.015625 0.046875 -0.0625 0.0625q-0.03125 0.015625 -0.171875 0.015625l-1.34375 1.28125z" fill-rule="nonzero"/><path fill="#000000" fill-opacity="0.0" d="m251.32283 329.95013l23.05513 0l0 29.070862l-23.05513 0z" fill-rule="evenodd"/><path fill="#595959" d="m262.74472 346.63013l-1.515625 -3.046875l-0.109375 0q-0.109375 0 -0.171875 -0.046875q-0.046875 -0.046875 -0.046875 -0.125q0 -0.046875 0.03125 -0.078125q0.03125 -0.046875 0.0625 -0.0625q0.046875 -0.03125 0.125 -0.03125l0.90625 0q0.109375 0 0.15625 0.046875q0.0625 0.046875 0.0625 0.125q0 0.078125 -0.0625 0.125q-0.046875 0.046875 -0.15625 0.046875l-0.4375 0l1.328125 2.6875l1.328125 -2.6875l-0.4375 0q-0.125 0 -0.171875 -0.046875q-0.046875 -0.046875 -0.046875 -0.125q0 -0.078125 0.046875 -0.125q0.046875 -0.046875 0.171875 -0.046875l0.890625 0q0.125 0 0.171875 0.046875q0.046875 0.046875 0.046875 0.125q0 0.046875 -0.03125 0.09375q-0.03125 0.046875 -0.078125 0.0625q-0.03125 0.015625 -0.203125 0.015625l-2.078125 4.234375l0.5 0q0.125 0 0.171875 0.03125q0.046875 0.046875 0.046875 0.125q0 0.078125 -0.046875 0.125q-0.046875 0.046875 -0.171875 0.046875l-1.890625 0q-0.109375 0 -0.171875 -0.046875q-0.046875 -0.046875 -0.046875 -0.125q0 -0.078125 0.046875 -0.125q0.0625 -0.03125 0.171875 -0.03125l1.03125 0l0.578125 -1.1875z" fill-rule="nonzero"/><path fill="#000000" fill-opacity="0.0" d="m401.24933 288.18634l66.39371 0l0 38.771667l-66.39371 0z" fill-rule="evenodd"/><path fill="#595959" d="m428.15128 301.47574l0 0.34375q0.421875 -0.453125 0.84375 -0.453125q0.25 0 0.4375 0.140625q0.203125 0.125 0.328125 0.40625q0.21875 -0.28125 0.4375 -0.40625q0.234375 -0.140625 0.453125 -0.140625q0.359375 0 0.5625 0.234375q0.28125 0.296875 0.28125 0.640625l0 2.296875l0.28125 0q0.109375 0 0.15625 0.046875q0.0625 0.046875 0.0625 0.109375q0 0.078125 -0.0625 0.125q-0.046875 0.046875 -0.15625 0.046875l-0.609375 0l0 -2.59375q0 -0.25 -0.15625 -0.40625q-0.140625 -0.171875 -0.34375 -0.171875q-0.1875 0 -0.390625 0.140625q-0.1875 0.125 -0.4375 0.53125l0 2.171875l0.265625 0q0.125 0 0.171875 0.046875q0.046875 0.046875 0.046875 0.109375q0 0.078125 -0.046875 0.125q-0.046875 0.046875 -0.171875 0.046875l-0.609375 0l0 -2.5625q0 -0.265625 -0.15625 -0.4375q-0.140625 -0.171875 -0.34375 -0.171875q-0.171875 0 -0.34375 0.109375q-0.234375 0.171875 -0.5 0.5625l0 2.171875l0.28125 0q0.109375 0 0.15625 0.046875q0.0625 0.046875 0.0625 0.109375q0 0.078125 -0.0625 0.125q-0.046875 0.046875 -0.15625 0.046875l-0.890625 0q-0.109375 0 -0.171875 -0.046875q-0.046875 -0.046875 -0.046875 -0.125q0 -0.0625 0.046875 -0.109375q0.0625 -0.046875 0.171875 -0.046875l0.28125 0l0 -2.71875l-0.28125 0q-0.109375 0 -0.171875 -0.046875q-0.046875 -0.046875 -0.046875 -0.125q0 -0.078125 0.046875 -0.125q0.0625 -0.046875 0.171875 -0.046875l0.609375 0zm7.2382812 3.390625l0 -0.46875q-0.71875 0.59375 -1.53125 0.59375q-0.578125 0 -0.921875 -0.296875q-0.328125 -0.296875 -0.328125 -0.734375q0 -0.46875 0.4375 -0.828125q0.4375 -0.359375 1.28125 -0.359375q0.21875 0 0.484375 0.03125q0.265625 0.03125 0.578125 0.09375l0 -0.53125q0 -0.265625 -0.25 -0.46875q-0.25 -0.203125 -0.75 -0.203125q-0.375 0 -1.078125 0.21875q-0.125 0.046875 -0.15625 0.046875q-0.0625 0 -0.109375 -0.046875q-0.046875 -0.046875 -0.046875 -0.125q0 -0.0625 0.046875 -0.09375q0.046875 -0.0625 0.4375 -0.171875q0.609375 -0.15625 0.921875 -0.15625q0.625 0 0.96875 0.3125q0.34375 0.296875 0.34375 0.6875l0 2.171875l0.4375 0q0.125 0 0.171875 0.046875q0.0625 0.046875 0.0625 0.109375q0 0.078125 -0.0625 0.125q-0.046875 0.046875 -0.171875 0.046875l-0.765625 0zm0 -1.640625q-0.234375 -0.0625 -0.5 -0.09375q-0.25 -0.03125 -0.53125 -0.03125q-0.71875 0 -1.109375 0.3125q-0.3125 0.234375 -0.3125 0.546875q0 0.296875 0.234375 0.5q0.234375 0.203125 0.671875 0.203125q0.4375 0 0.796875 -0.171875q0.359375 -0.171875 0.75 -0.53125l0 -0.734375zm4.0820312 -0.125l1.5 1.4375q0.15625 0 0.1875 0.015625q0.046875 0.015625 0.078125 0.0625q0.03125 0.03125 0.03125 0.078125q0 0.078125 -0.0625 0.125q-0.046875 0.046875 -0.171875 0.046875l-1.046875 0q-0.125 0 -0.171875 -0.046875q-0.046875 -0.046875 -0.046875 -0.125q0 -0.0625 0.046875 -0.109375q0.046875 -0.046875 0.171875 -0.046875l0.546875 0l-1.28125 -1.21875l-1.265625 1.21875l0.546875 0q0.109375 0 0.15625 0.046875q0.0625 0.046875 0.0625 0.109375q0 0.078125 -0.0625 0.125q-0.046875 0.046875 -0.15625 0.046875l-1.078125 0q-0.109375 0 -0.171875 -0.046875q-0.046875 -0.046875 -0.046875 -0.125q0 -0.046875 0.03125 -0.078125q0.03125 -0.046875 0.0625 -0.0625q0.046875 -0.015625 0.1875 -0.015625l1.515625 -1.4375l-1.34375 -1.28125q-0.140625 0 -0.1875 -0.015625q-0.03125 -0.015625 -0.0625 -0.0625q-0.015625 -0.046875 -0.015625 -0.09375q0 -0.078125 0.046875 -0.125q0.046875 -0.046875 0.171875 -0.046875l0.890625 0q0.125 0 0.171875 0.046875q0.046875 0.046875 0.046875 0.125q0 0.078125 -0.046875 0.125q-0.046875 0.046875 -0.171875 0.046875l-0.390625 0l1.109375 1.0625l1.109375 -1.0625l-0.390625 0q-0.109375 0 -0.171875 -0.046875q-0.046875 -0.046875 -0.046875 -0.125q0 -0.078125 0.046875 -0.125q0.046875 -0.046875 0.171875 -0.046875l0.890625 0q0.125 0 0.171875 0.046875q0.046875 0.046875 0.046875 0.125q0 0.046875 -0.03125 0.09375q-0.015625 0.046875 -0.0625 0.0625q-0.03125 0.015625 -0.171875 0.015625l-1.34375 1.28125z" fill-rule="nonzero"/><path fill="#595959" d="m417.01456 312.85696l-3.34375 0q0.09375 0.625 0.53125 1.015625q0.453125 0.390625 1.109375 0.390625q0.375 0 0.765625 -0.109375q0.40625 -0.125 0.671875 -0.328125q0.0625 -0.0625 0.125 -0.0625q0.0625 0 0.109375 0.046875q0.046875 0.046875 0.046875 0.125q0 0.0625 -0.0625 0.125q-0.1875 0.1875 -0.671875 0.359375q-0.46875 0.171875 -0.984375 0.171875q-0.84375 0 -1.40625 -0.546875q-0.5625 -0.5625 -0.5625 -1.34375q0 -0.71875 0.53125 -1.21875q0.53125 -0.515625 1.3125 -0.515625q0.796875 0 1.3125 0.53125q0.53125 0.515625 0.515625 1.359375zm-0.328125 -0.34375q-0.09375 -0.53125 -0.515625 -0.875q-0.40625 -0.34375 -0.984375 -0.34375q-0.578125 0 -1.0 0.34375q-0.40625 0.328125 -0.5 0.875l3.0 0zm3.5195312 -2.953125l0 4.578125l1.296875 0q0.125 0 0.171875 0.046875q0.046875 0.046875 0.046875 0.109375q0 0.078125 -0.046875 0.125q-0.046875 0.046875 -0.171875 0.046875l-2.90625 0q-0.125 0 -0.171875 -0.046875q-0.046875 -0.046875 -0.046875 -0.125q0 -0.0625 0.046875 -0.109375q0.046875 -0.046875 0.171875 -0.046875l1.28125 0l0 -4.25l-0.9375 0q-0.125 0 -0.171875 -0.046875q-0.046875 -0.046875 -0.046875 -0.109375q0 -0.078125 0.046875 -0.125q0.046875 -0.046875 0.171875 -0.046875l1.265625 0zm6.4101562 3.296875l-3.34375 0q0.09375 0.625 0.53125 1.015625q0.453125 0.390625 1.109375 0.390625q0.375 0 0.765625 -0.109375q0.40625 -0.125 0.671875 -0.328125q0.0625 -0.0625 0.125 -0.0625q0.0625 0 0.109375 0.046875q0.046875 0.046875 0.046875 0.125q0 0.0625 -0.0625 0.125q-0.1875 0.1875 -0.671875 0.359375q-0.46875 0.171875 -0.984375 0.171875q-0.84375 0 -1.40625 -0.546875q-0.5625 -0.5625 -0.5625 -1.34375q0 -0.71875 0.53125 -1.21875q0.53125 -0.515625 1.3125 -0.515625q0.796875 0 1.3125 0.53125q0.53125 0.515625 0.515625 1.359375zm-0.328125 -0.34375q-0.09375 -0.53125 -0.515625 -0.875q-0.40625 -0.34375 -0.984375 -0.34375q-0.578125 0 -1.0 0.34375q-0.40625 0.328125 -0.5 0.875l3.0 0zm3.6445312 1.953125l-0.546875 0l-1.359375 -3.046875l-0.328125 0q-0.125 0 -0.171875 -0.046875q-0.046875 -0.046875 -0.046875 -0.125q0 -0.078125 0.046875 -0.125q0.046875 -0.046875 0.171875 -0.046875l1.234375 0q0.109375 0 0.15625 0.046875q0.0625 0.046875 0.0625 0.125q0 0.078125 -0.0625 0.125q-0.046875 0.046875 -0.15625 0.046875l-0.546875 0l1.203125 2.71875l0.140625 0l1.1875 -2.71875l-0.546875 0q-0.125 0 -0.171875 -0.046875q-0.046875 -0.046875 -0.046875 -0.125q0 -0.078125 0.046875 -0.125q0.046875 -0.046875 0.171875 -0.046875l1.234375 0q0.109375 0 0.15625 0.046875q0.0625 0.046875 0.0625 0.125q0 0.078125 -0.0625 0.125q-0.046875 0.046875 -0.15625 0.046875l-0.34375 0l-1.328125 3.046875zm5.4570312 0l0 -0.46875q-0.71875 0.59375 -1.53125 0.59375q-0.578125 0 -0.921875 -0.296875q-0.328125 -0.296875 -0.328125 -0.734375q0 -0.46875 0.4375 -0.828125q0.4375 -0.359375 1.28125 -0.359375q0.21875 0 0.484375 0.03125q0.265625 0.03125 0.578125 0.09375l0 -0.53125q0 -0.265625 -0.25 -0.46875q-0.25 -0.203125 -0.75 -0.203125q-0.375 0 -1.078125 0.21875q-0.125 0.046875 -0.15625 0.046875q-0.0625 0 -0.109375 -0.046875q-0.046875 -0.046875 -0.046875 -0.125q0 -0.0625 0.046875 -0.09375q0.046875 -0.0625 0.4375 -0.171875q0.609375 -0.15625 0.921875 -0.15625q0.625 0 0.96875 0.3125q0.34375 0.296875 0.34375 0.6875l0 2.171875l0.4375 0q0.125 0 0.171875 0.046875q0.0625 0.046875 0.0625 0.109375q0 0.078125 -0.0625 0.125q-0.046875 0.046875 -0.171875 0.046875l-0.765625 0zm0 -1.640625q-0.234375 -0.0625 -0.5 -0.09375q-0.25 -0.03125 -0.53125 -0.03125q-0.71875 0 -1.109375 0.3125q-0.3125 0.234375 -0.3125 0.546875q0 0.296875 0.234375 0.5q0.234375 0.203125 0.671875 0.203125q0.4375 0 0.796875 -0.171875q0.359375 -0.171875 0.75 -0.53125l0 -0.734375zm3.1914062 -1.75l1.78125 0q0.109375 0 0.15625 0.046875q0.0625 0.046875 0.0625 0.125q0 0.078125 -0.0625 0.125q-0.046875 0.046875 -0.15625 0.046875l-1.78125 0l0 2.171875q0 0.296875 0.21875 0.484375q0.234375 0.1875 0.671875 0.1875q0.328125 0 0.71875 -0.09375q0.390625 -0.109375 0.609375 -0.234375q0.078125 -0.046875 0.125 -0.046875q0.0625 0 0.109375 0.046875q0.046875 0.046875 0.046875 0.125q0 0.046875 -0.046875 0.109375q-0.125 0.125 -0.609375 0.28125q-0.484375 0.140625 -0.921875 0.140625q-0.578125 0 -0.921875 -0.265625q-0.34375 -0.265625 -0.34375 -0.734375l0 -2.171875l-0.59375 0q-0.125 0 -0.171875 -0.046875q-0.046875 -0.046875 -0.046875 -0.125q0 -0.078125 0.046875 -0.125q0.046875 -0.046875 0.171875 -0.046875l0.59375 0l0 -0.96875q0 -0.109375 0.046875 -0.15625q0.046875 -0.0625 0.125 -0.0625q0.078125 0 0.125 0.0625q0.046875 0.046875 0.046875 0.15625l0 0.96875zm5.6289062 -1.671875l0 0.84375l-0.484375 0l0 -0.84375l0.484375 0zm0.015625 1.671875l0 3.0625l1.28125 0q0.125 0 0.171875 0.046875q0.0625 0.046875 0.0625 0.109375q0 0.078125 -0.0625 0.125q-0.046875 0.046875 -0.171875 0.046875l-2.90625 0q-0.109375 0 -0.171875 -0.046875q-0.046875 -0.046875 -0.046875 -0.125q0 -0.0625 0.046875 -0.109375q0.0625 -0.046875 0.171875 -0.046875l1.296875 0l0 -2.71875l-0.953125 0q-0.125 0 -0.1875 -0.046875q-0.046875 -0.046875 -0.046875 -0.125q0 -0.078125 0.046875 -0.125q0.0625 -0.046875 0.1875 -0.046875l1.28125 0zm6.4570312 1.703125q0 0.75 -0.546875 1.28125q-0.53125 0.53125 -1.28125 0.53125q-0.765625 0 -1.3125 -0.53125q-0.53125 -0.53125 -0.53125 -1.28125q0 -0.75 0.53125 -1.28125q0.546875 -0.53125 1.3125 -0.53125q0.75 0 1.28125 0.53125q0.546875 0.53125 0.546875 1.28125zm-0.328125 0q0 -0.609375 -0.4375 -1.046875q-0.4375 -0.4375 -1.0625 -0.4375q-0.625 0 -1.078125 0.4375q-0.4375 0.4375 -0.4375 1.046875q0 0.609375 0.4375 1.046875q0.453125 0.4375 1.078125 0.4375q0.625 0 1.0625 -0.4375q0.4375 -0.4375 0.4375 -1.046875zm2.2382812 -1.703125l0 0.5q0.34375 -0.34375 0.609375 -0.46875q0.28125 -0.140625 0.640625 -0.140625q0.375 0 0.671875 0.15625q0.21875 0.125 0.390625 0.390625q0.1875 0.265625 0.1875 0.5625l0 2.0625l0.28125 0q0.109375 0 0.15625 0.046875q0.0625 0.046875 0.0625 0.109375q0 0.078125 -0.0625 0.125q-0.046875 0.046875 -0.15625 0.046875l-0.875 0q-0.125 0 -0.1875 -0.046875q-0.046875 -0.046875 -0.046875 -0.125q0 -0.0625 0.046875 -0.109375q0.0625 -0.046875 0.1875 -0.046875l0.265625 0l0 -2.015625q0 -0.34375 -0.25 -0.578125q-0.25 -0.25 -0.6875 -0.25q-0.3125 0 -0.5625 0.140625q-0.234375 0.125 -0.671875 0.640625l0 2.0625l0.375 0q0.109375 0 0.15625 0.046875q0.0625 0.046875 0.0625 0.109375q0 0.078125 -0.0625 0.125q-0.046875 0.046875 -0.15625 0.046875l-1.078125 0q-0.109375 0 -0.171875 -0.046875q-0.046875 -0.046875 -0.046875 -0.125q0 -0.0625 0.046875 -0.109375q0.0625 -0.046875 0.171875 -0.046875l0.375 0l0 -2.71875l-0.28125 0q-0.109375 0 -0.171875 -0.046875q-0.046875 -0.046875 -0.046875 -0.125q0 -0.078125 0.046875 -0.125q0.0625 -0.046875 0.171875 -0.046875l0.609375 0z" fill-rule="nonzero"/><path fill="#000000" fill-opacity="0.0" d="m404.0315 394.4442l0 0c4.8907776 -13.102905 7.521759 -26.995209 7.772766 -41.042633l-115.6022 -2.2204895z" fill-rule="evenodd"/><path fill="#000000" fill-opacity="0.0" d="m404.0315 394.4442l0 0c4.8907776 -13.102905 7.521759 -26.995209 7.772766 -41.042633" fill-rule="evenodd"/><path stroke="#d9d9d9" stroke-width="1.0" stroke-linejoin="round" stroke-linecap="butt" d="m404.87225 392.11847l0.049743652 -0.14013672c0.2880249 -0.8249512 0.5671387 -1.6528015 0.83740234 -2.4834595c0.5404663 -1.6612854 1.0454407 -3.3336487 1.5145874 -5.0158997c0.9383545 -3.364502 1.733551 -6.7684326 2.3838196 -10.201874c1.3004456 -6.8668823 2.0209045 -13.851807 2.1464539 -20.875519" fill-rule="evenodd"/><path fill="#d9d9d9" stroke="#d9d9d9" stroke-width="1.0" stroke-linecap="butt" d="m404.87225 392.11847l-0.34747314 -0.74087524l0.0037231445 1.691803l1.0846252 -1.2983704z" fill-rule="evenodd"/><path fill="#000000" fill-opacity="0.0" d="m403.24408 356.6929l67.90552 0l0 38.771667l-67.90552 0z" fill-rule="evenodd"/><path fill="#595959" d="m430.90192 369.9823l0 0.34375q0.421875 -0.453125 0.84375 -0.453125q0.25 0 0.4375 0.140625q0.203125 0.125 0.328125 0.40625q0.21875 -0.28125 0.4375 -0.40625q0.234375 -0.140625 0.453125 -0.140625q0.359375 0 0.5625 0.234375q0.28125 0.296875 0.28125 0.640625l0 2.296875l0.28125 0q0.109375 0 0.15625 0.046875q0.0625 0.046875 0.0625 0.109375q0 0.078125 -0.0625 0.125q-0.046875 0.046875 -0.15625 0.046875l-0.609375 0l0 -2.59375q0 -0.25 -0.15625 -0.40625q-0.140625 -0.171875 -0.34375 -0.171875q-0.1875 0 -0.390625 0.140625q-0.1875 0.125 -0.4375 0.53125l0 2.171875l0.265625 0q0.125 0 0.171875 0.046875q0.046875 0.046875 0.046875 0.109375q0 0.078125 -0.046875 0.125q-0.046875 0.046875 -0.171875 0.046875l-0.609375 0l0 -2.5625q0 -0.265625 -0.15625 -0.4375q-0.140625 -0.171875 -0.34375 -0.171875q-0.171875 0 -0.34375 0.109375q-0.234375 0.171875 -0.5 0.5625l0 2.171875l0.28125 0q0.109375 0 0.15625 0.046875q0.0625 0.046875 0.0625 0.109375q0 0.078125 -0.0625 0.125q-0.046875 0.046875 -0.15625 0.046875l-0.890625 0q-0.109375 0 -0.171875 -0.046875q-0.046875 -0.046875 -0.046875 -0.125q0 -0.0625 0.046875 -0.109375q0.0625 -0.046875 0.171875 -0.046875l0.28125 0l0 -2.71875l-0.28125 0q-0.109375 0 -0.171875 -0.046875q-0.046875 -0.046875 -0.046875 -0.125q0 -0.078125 0.046875 -0.125q0.0625 -0.046875 0.171875 -0.046875l0.609375 0zm6.4570312 -1.671875l0 0.84375l-0.484375 0l0 -0.84375l0.484375 0zm0.015625 1.671875l0 3.0625l1.28125 0q0.125 0 0.171875 0.046875q0.0625 0.046875 0.0625 0.109375q0 0.078125 -0.0625 0.125q-0.046875 0.046875 -0.171875 0.046875l-2.90625 0q-0.109375 0 -0.171875 -0.046875q-0.046875 -0.046875 -0.046875 -0.125q0 -0.0625 0.046875 -0.109375q0.0625 -0.046875 0.171875 -0.046875l1.296875 0l0 -2.71875l-0.953125 0q-0.125 0 -0.1875 -0.046875q-0.046875 -0.046875 -0.046875 -0.125q0 -0.078125 0.046875 -0.125q0.0625 -0.046875 0.1875 -0.046875l1.28125 0zm3.5664062 0l0 0.5q0.34375 -0.34375 0.609375 -0.46875q0.28125 -0.140625 0.640625 -0.140625q0.375 0 0.671875 0.15625q0.21875 0.125 0.390625 0.390625q0.1875 0.265625 0.1875 0.5625l0 2.0625l0.28125 0q0.109375 0 0.15625 0.046875q0.0625 0.046875 0.0625 0.109375q0 0.078125 -0.0625 0.125q-0.046875 0.046875 -0.15625 0.046875l-0.875 0q-0.125 0 -0.1875 -0.046875q-0.046875 -0.046875 -0.046875 -0.125q0 -0.0625 0.046875 -0.109375q0.0625 -0.046875 0.1875 -0.046875l0.265625 0l0 -2.015625q0 -0.34375 -0.25 -0.578125q-0.25 -0.25 -0.6875 -0.25q-0.3125 0 -0.5625 0.140625q-0.234375 0.125 -0.671875 0.640625l0 2.0625l0.375 0q0.109375 0 0.15625 0.046875q0.0625 0.046875 0.0625 0.109375q0 0.078125 -0.0625 0.125q-0.046875 0.046875 -0.15625 0.046875l-1.078125 0q-0.109375 0 -0.171875 -0.046875q-0.046875 -0.046875 -0.046875 -0.125q0 -0.0625 0.046875 -0.109375q0.0625 -0.046875 0.171875 -0.046875l0.375 0l0 -2.71875l-0.28125 0q-0.109375 0 -0.171875 -0.046875q-0.046875 -0.046875 -0.046875 -0.125q0 -0.078125 0.046875 -0.125q0.0625 -0.046875 0.171875 -0.046875l0.609375 0z" fill-rule="nonzero"/><path fill="#595959" d="m419.7652 381.36353l-3.34375 0q0.09375 0.625 0.53125 1.015625q0.453125 0.390625 1.109375 0.390625q0.375 0 0.765625 -0.109375q0.40625 -0.125 0.671875 -0.328125q0.0625 -0.0625 0.125 -0.0625q0.0625 0 0.109375 0.046875q0.046875 0.046875 0.046875 0.125q0 0.0625 -0.0625 0.125q-0.1875 0.1875 -0.671875 0.359375q-0.46875 0.171875 -0.984375 0.171875q-0.84375 0 -1.40625 -0.546875q-0.5625 -0.5625 -0.5625 -1.34375q0 -0.71875 0.53125 -1.21875q0.53125 -0.515625 1.3125 -0.515625q0.796875 0 1.3125 0.53125q0.53125 0.515625 0.515625 1.359375zm-0.328125 -0.34375q-0.09375 -0.53125 -0.515625 -0.875q-0.40625 -0.34375 -0.984375 -0.34375q-0.578125 0 -1.0 0.34375q-0.40625 0.328125 -0.5 0.875l3.0 0zm3.5195312 -2.953125l0 4.578125l1.296875 0q0.125 0 0.171875 0.046875q0.046875 0.046875 0.046875 0.109375q0 0.078125 -0.046875 0.125q-0.046875 0.046875 -0.171875 0.046875l-2.90625 0q-0.125 0 -0.171875 -0.046875q-0.046875 -0.046875 -0.046875 -0.125q0 -0.0625 0.046875 -0.109375q0.046875 -0.046875 0.171875 -0.046875l1.28125 0l0 -4.25l-0.9375 0q-0.125 0 -0.171875 -0.046875q-0.046875 -0.046875 -0.046875 -0.109375q0 -0.078125 0.046875 -0.125q0.046875 -0.046875 0.171875 -0.046875l1.265625 0zm6.4101562 3.296875l-3.34375 0q0.09375 0.625 0.53125 1.015625q0.453125 0.390625 1.109375 0.390625q0.375 0 0.765625 -0.109375q0.40625 -0.125 0.671875 -0.328125q0.0625 -0.0625 0.125 -0.0625q0.0625 0 0.109375 0.046875q0.046875 0.046875 0.046875 0.125q0 0.0625 -0.0625 0.125q-0.1875 0.1875 -0.671875 0.359375q-0.46875 0.171875 -0.984375 0.171875q-0.84375 0 -1.40625 -0.546875q-0.5625 -0.5625 -0.5625 -1.34375q0 -0.71875 0.53125 -1.21875q0.53125 -0.515625 1.3125 -0.515625q0.796875 0 1.3125 0.53125q0.53125 0.515625 0.515625 1.359375zm-0.328125 -0.34375q-0.09375 -0.53125 -0.515625 -0.875q-0.40625 -0.34375 -0.984375 -0.34375q-0.578125 0 -1.0 0.34375q-0.40625 0.328125 -0.5 0.875l3.0 0zm3.6445312 1.953125l-0.546875 0l-1.359375 -3.046875l-0.328125 0q-0.125 0 -0.171875 -0.046875q-0.046875 -0.046875 -0.046875 -0.125q0 -0.078125 0.046875 -0.125q0.046875 -0.046875 0.171875 -0.046875l1.234375 0q0.109375 0 0.15625 0.046875q0.0625 0.046875 0.0625 0.125q0 0.078125 -0.0625 0.125q-0.046875 0.046875 -0.15625 0.046875l-0.546875 0l1.203125 2.71875l0.140625 0l1.1875 -2.71875l-0.546875 0q-0.125 0 -0.171875 -0.046875q-0.046875 -0.046875 -0.046875 -0.125q0 -0.078125 0.046875 -0.125q0.046875 -0.046875 0.171875 -0.046875l1.234375 0q0.109375 0 0.15625 0.046875q0.0625 0.046875 0.0625 0.125q0 0.078125 -0.0625 0.125q-0.046875 0.046875 -0.15625 0.046875l-0.34375 0l-1.328125 3.046875zm5.4570312 0l0 -0.46875q-0.71875 0.59375 -1.53125 0.59375q-0.578125 0 -0.921875 -0.296875q-0.328125 -0.296875 -0.328125 -0.734375q0 -0.46875 0.4375 -0.828125q0.4375 -0.359375 1.28125 -0.359375q0.21875 0 0.484375 0.03125q0.265625 0.03125 0.578125 0.09375l0 -0.53125q0 -0.265625 -0.25 -0.46875q-0.25 -0.203125 -0.75 -0.203125q-0.375 0 -1.078125 0.21875q-0.125 0.046875 -0.15625 0.046875q-0.0625 0 -0.109375 -0.046875q-0.046875 -0.046875 -0.046875 -0.125q0 -0.0625 0.046875 -0.09375q0.046875 -0.0625 0.4375 -0.171875q0.609375 -0.15625 0.921875 -0.15625q0.625 0 0.96875 0.3125q0.34375 0.296875 0.34375 0.6875l0 2.171875l0.4375 0q0.125 0 0.171875 0.046875q0.0625 0.046875 0.0625 0.109375q0 0.078125 -0.0625 0.125q-0.046875 0.046875 -0.171875 0.046875l-0.765625 0zm0 -1.640625q-0.234375 -0.0625 -0.5 -0.09375q-0.25 -0.03125 -0.53125 -0.03125q-0.71875 0 -1.109375 0.3125q-0.3125 0.234375 -0.3125 0.546875q0 0.296875 0.234375 0.5q0.234375 0.203125 0.671875 0.203125q0.4375 0 0.796875 -0.171875q0.359375 -0.171875 0.75 -0.53125l0 -0.734375zm3.1914062 -1.75l1.78125 0q0.109375 0 0.15625 0.046875q0.0625 0.046875 0.0625 0.125q0 0.078125 -0.0625 0.125q-0.046875 0.046875 -0.15625 0.046875l-1.78125 0l0 2.171875q0 0.296875 0.21875 0.484375q0.234375 0.1875 0.671875 0.1875q0.328125 0 0.71875 -0.09375q0.390625 -0.109375 0.609375 -0.234375q0.078125 -0.046875 0.125 -0.046875q0.0625 0 0.109375 0.046875q0.046875 0.046875 0.046875 0.125q0 0.046875 -0.046875 0.109375q-0.125 0.125 -0.609375 0.28125q-0.484375 0.140625 -0.921875 0.140625q-0.578125 0 -0.921875 -0.265625q-0.34375 -0.265625 -0.34375 -0.734375l0 -2.171875l-0.59375 0q-0.125 0 -0.171875 -0.046875q-0.046875 -0.046875 -0.046875 -0.125q0 -0.078125 0.046875 -0.125q0.046875 -0.046875 0.171875 -0.046875l0.59375 0l0 -0.96875q0 -0.109375 0.046875 -0.15625q0.046875 -0.0625 0.125 -0.0625q0.078125 0 0.125 0.0625q0.046875 0.046875 0.046875 0.15625l0 0.96875zm5.6289062 -1.671875l0 0.84375l-0.484375 0l0 -0.84375l0.484375 0zm0.015625 1.671875l0 3.0625l1.28125 0q0.125 0 0.171875 0.046875q0.0625 0.046875 0.0625 0.109375q0 0.078125 -0.0625 0.125q-0.046875 0.046875 -0.171875 0.046875l-2.90625 0q-0.109375 0 -0.171875 -0.046875q-0.046875 -0.046875 -0.046875 -0.125q0 -0.0625 0.046875 -0.109375q0.0625 -0.046875 0.171875 -0.046875l1.296875 0l0 -2.71875l-0.953125 0q-0.125 0 -0.1875 -0.046875q-0.046875 -0.046875 -0.046875 -0.125q0 -0.078125 0.046875 -0.125q0.0625 -0.046875 0.1875 -0.046875l1.28125 0zm6.4570312 1.703125q0 0.75 -0.546875 1.28125q-0.53125 0.53125 -1.28125 0.53125q-0.765625 0 -1.3125 -0.53125q-0.53125 -0.53125 -0.53125 -1.28125q0 -0.75 0.53125 -1.28125q0.546875 -0.53125 1.3125 -0.53125q0.75 0 1.28125 0.53125q0.546875 0.53125 0.546875 1.28125zm-0.328125 0q0 -0.609375 -0.4375 -1.046875q-0.4375 -0.4375 -1.0625 -0.4375q-0.625 0 -1.078125 0.4375q-0.4375 0.4375 -0.4375 1.046875q0 0.609375 0.4375 1.046875q0.453125 0.4375 1.078125 0.4375q0.625 0 1.0625 -0.4375q0.4375 -0.4375 0.4375 -1.046875zm2.2382812 -1.703125l0 0.5q0.34375 -0.34375 0.609375 -0.46875q0.28125 -0.140625 0.640625 -0.140625q0.375 0 0.671875 0.15625q0.21875 0.125 0.390625 0.390625q0.1875 0.265625 0.1875 0.5625l0 2.0625l0.28125 0q0.109375 0 0.15625 0.046875q0.0625 0.046875 0.0625 0.109375q0 0.078125 -0.0625 0.125q-0.046875 0.046875 -0.15625 0.046875l-0.875 0q-0.125 0 -0.1875 -0.046875q-0.046875 -0.046875 -0.046875 -0.125q0 -0.0625 0.046875 -0.109375q0.0625 -0.046875 0.1875 -0.046875l0.265625 0l0 -2.015625q0 -0.34375 -0.25 -0.578125q-0.25 -0.25 -0.6875 -0.25q-0.3125 0 -0.5625 0.140625q-0.234375 0.125 -0.671875 0.640625l0 2.0625l0.375 0q0.109375 0 0.15625 0.046875q0.0625 0.046875 0.0625 0.109375q0 0.078125 -0.0625 0.125q-0.046875 0.046875 -0.15625 0.046875l-1.078125 0q-0.109375 0 -0.171875 -0.046875q-0.046875 -0.046875 -0.046875 -0.125q0 -0.0625 0.046875 -0.109375q0.0625 -0.046875 0.171875 -0.046875l0.375 0l0 -2.71875l-0.28125 0q-0.109375 0 -0.171875 -0.046875q-0.046875 -0.046875 -0.046875 -0.125q0 -0.078125 0.046875 -0.125q0.0625 -0.046875 0.171875 -0.046875l0.609375 0z" fill-rule="nonzero"/><path fill="#000000" fill-opacity="0.0" d="m134.44357 438.9685l-21.984253 -90.99213" fill-rule="evenodd"/><path stroke="#595959" stroke-width="1.0" stroke-linejoin="round" stroke-linecap="butt" stroke-dasharray="1.0,3.0" d="m134.44357 438.9685l-21.984253 -90.99213" fill-rule="evenodd"/><path fill="#000000" fill-opacity="0.0" d="m331.5013 364.69028l59.874023 0l0 38.771667l-59.874023 0z" fill-rule="evenodd"/><path fill="#595959" d="m355.1434 377.97968l0 0.34375q0.421875 -0.453125 0.84375 -0.453125q0.25 0 0.4375 0.140625q0.203125 0.125 0.328125 0.40625q0.21875 -0.28125 0.4375 -0.40625q0.234375 -0.140625 0.453125 -0.140625q0.359375 0 0.5625 0.234375q0.28125 0.296875 0.28125 0.640625l0 2.296875l0.28125 0q0.109375 0 0.15625 0.046875q0.0625 0.046875 0.0625 0.109375q0 0.078125 -0.0625 0.125q-0.046875 0.046875 -0.15625 0.046875l-0.609375 0l0 -2.59375q0 -0.25 -0.15625 -0.40625q-0.140625 -0.171875 -0.34375 -0.171875q-0.1875 0 -0.390625 0.140625q-0.1875 0.125 -0.4375 0.53125l0 2.171875l0.265625 0q0.125 0 0.171875 0.046875q0.046875 0.046875 0.046875 0.109375q0 0.078125 -0.046875 0.125q-0.046875 0.046875 -0.171875 0.046875l-0.609375 0l0 -2.5625q0 -0.265625 -0.15625 -0.4375q-0.140625 -0.171875 -0.34375 -0.171875q-0.171875 0 -0.34375 0.109375q-0.234375 0.171875 -0.5 0.5625l0 2.171875l0.28125 0q0.109375 0 0.15625 0.046875q0.0625 0.046875 0.0625 0.109375q0 0.078125 -0.0625 0.125q-0.046875 0.046875 -0.15625 0.046875l-0.890625 0q-0.109375 0 -0.171875 -0.046875q-0.046875 -0.046875 -0.046875 -0.125q0 -0.0625 0.046875 -0.109375q0.0625 -0.046875 0.171875 -0.046875l0.28125 0l0 -2.71875l-0.28125 0q-0.109375 0 -0.171875 -0.046875q-0.046875 -0.046875 -0.046875 -0.125q0 -0.078125 0.046875 -0.125q0.0625 -0.046875 0.171875 -0.046875l0.609375 0zm6.4570312 -1.671875l0 0.84375l-0.484375 0l0 -0.84375l0.484375 0zm0.015625 1.671875l0 3.0625l1.28125 0q0.125 0 0.171875 0.046875q0.0625 0.046875 0.0625 0.109375q0 0.078125 -0.0625 0.125q-0.046875 0.046875 -0.171875 0.046875l-2.90625 0q-0.109375 0 -0.171875 -0.046875q-0.046875 -0.046875 -0.046875 -0.125q0 -0.0625 0.046875 -0.109375q0.0625 -0.046875 0.171875 -0.046875l1.296875 0l0 -2.71875l-0.953125 0q-0.125 0 -0.1875 -0.046875q-0.046875 -0.046875 -0.046875 -0.125q0 -0.078125 0.046875 -0.125q0.0625 -0.046875 0.1875 -0.046875l1.28125 0zm3.5664062 0l0 0.5q0.34375 -0.34375 0.609375 -0.46875q0.28125 -0.140625 0.640625 -0.140625q0.375 0 0.671875 0.15625q0.21875 0.125 0.390625 0.390625q0.1875 0.265625 0.1875 0.5625l0 2.0625l0.28125 0q0.109375 0 0.15625 0.046875q0.0625 0.046875 0.0625 0.109375q0 0.078125 -0.0625 0.125q-0.046875 0.046875 -0.15625 0.046875l-0.875 0q-0.125 0 -0.1875 -0.046875q-0.046875 -0.046875 -0.046875 -0.125q0 -0.0625 0.046875 -0.109375q0.0625 -0.046875 0.1875 -0.046875l0.265625 0l0 -2.015625q0 -0.34375 -0.25 -0.578125q-0.25 -0.25 -0.6875 -0.25q-0.3125 0 -0.5625 0.140625q-0.234375 0.125 -0.671875 0.640625l0 2.0625l0.375 0q0.109375 0 0.15625 0.046875q0.0625 0.046875 0.0625 0.109375q0 0.078125 -0.0625 0.125q-0.046875 0.046875 -0.15625 0.046875l-1.078125 0q-0.109375 0 -0.171875 -0.046875q-0.046875 -0.046875 -0.046875 -0.125q0 -0.0625 0.046875 -0.109375q0.0625 -0.046875 0.171875 -0.046875l0.375 0l0 -2.71875l-0.28125 0q-0.109375 0 -0.171875 -0.046875q-0.046875 -0.046875 -0.046875 -0.125q0 -0.078125 0.046875 -0.125q0.0625 -0.046875 0.171875 -0.046875l0.609375 0z" fill-rule="nonzero"/><path fill="#595959" d="m347.97934 390.97028l0 -0.46875q-0.71875 0.59375 -1.53125 0.59375q-0.578125 0 -0.921875 -0.296875q-0.328125 -0.296875 -0.328125 -0.734375q0 -0.46875 0.4375 -0.828125q0.4375 -0.359375 1.28125 -0.359375q0.21875 0 0.484375 0.03125q0.265625 0.03125 0.578125 0.09375l0 -0.53125q0 -0.265625 -0.25 -0.46875q-0.25 -0.203125 -0.75 -0.203125q-0.375 0 -1.078125 0.21875q-0.125 0.046875 -0.15625 0.046875q-0.0625 0 -0.109375 -0.046875q-0.046875 -0.046875 -0.046875 -0.125q0 -0.0625 0.046875 -0.09375q0.046875 -0.0625 0.4375 -0.171875q0.609375 -0.15625 0.921875 -0.15625q0.625 0 0.96875 0.3125q0.34375 0.296875 0.34375 0.6875l0 2.171875l0.4375 0q0.125 0 0.171875 0.046875q0.0625 0.046875 0.0625 0.109375q0 0.078125 -0.0625 0.125q-0.046875 0.046875 -0.171875 0.046875l-0.765625 0zm0 -1.640625q-0.234375 -0.0625 -0.5 -0.09375q-0.25 -0.03125 -0.53125 -0.03125q-0.71875 0 -1.109375 0.3125q-0.3125 0.234375 -0.3125 0.546875q0 0.296875 0.234375 0.5q0.234375 0.203125 0.671875 0.203125q0.4375 0 0.796875 -0.171875q0.359375 -0.171875 0.75 -0.53125l0 -0.734375zm5.3007812 -1.75l0 0.296875l-2.46875 2.765625l2.21875 0l0 -0.453125q0 -0.125 0.046875 -0.171875q0.046875 -0.046875 0.125 -0.046875q0.078125 0 0.125 0.046875q0.046875 0.046875 0.046875 0.171875l-0.015625 0.78125l-3.0 0l0 -0.296875l2.453125 -2.75l-2.046875 0l0 0.4375q0 0.125 -0.046875 0.171875q-0.046875 0.046875 -0.109375 0.046875q-0.078125 0 -0.125 -0.046875q-0.046875 -0.046875 -0.046875 -0.171875l0 -0.78125l2.84375 0zm3.5195312 -1.671875l0 0.84375l-0.484375 0l0 -0.84375l0.484375 0zm0.015625 1.671875l0 3.0625l1.28125 0q0.125 0 0.171875 0.046875q0.0625 0.046875 0.0625 0.109375q0 0.078125 -0.0625 0.125q-0.046875 0.046875 -0.171875 0.046875l-2.90625 0q-0.109375 0 -0.171875 -0.046875q-0.046875 -0.046875 -0.046875 -0.125q0 -0.0625 0.046875 -0.109375q0.0625 -0.046875 0.171875 -0.046875l1.296875 0l0 -2.71875l-0.953125 0q-0.125 0 -0.1875 -0.046875q-0.046875 -0.046875 -0.046875 -0.125q0 -0.078125 0.046875 -0.125q0.0625 -0.046875 0.1875 -0.046875l1.28125 0zm3.1289062 0l0 0.34375q0.421875 -0.453125 0.84375 -0.453125q0.25 0 0.4375 0.140625q0.203125 0.125 0.328125 0.40625q0.21875 -0.28125 0.4375 -0.40625q0.234375 -0.140625 0.453125 -0.140625q0.359375 0 0.5625 0.234375q0.28125 0.296875 0.28125 0.640625l0 2.296875l0.28125 0q0.109375 0 0.15625 0.046875q0.0625 0.046875 0.0625 0.109375q0 0.078125 -0.0625 0.125q-0.046875 0.046875 -0.15625 0.046875l-0.609375 0l0 -2.59375q0 -0.25 -0.15625 -0.40625q-0.140625 -0.171875 -0.34375 -0.171875q-0.1875 0 -0.390625 0.140625q-0.1875 0.125 -0.4375 0.53125l0 2.171875l0.265625 0q0.125 0 0.171875 0.046875q0.046875 0.046875 0.046875 0.109375q0 0.078125 -0.046875 0.125q-0.046875 0.046875 -0.171875 0.046875l-0.609375 0l0 -2.5625q0 -0.265625 -0.15625 -0.4375q-0.140625 -0.171875 -0.34375 -0.171875q-0.171875 0 -0.34375 0.109375q-0.234375 0.171875 -0.5 0.5625l0 2.171875l0.28125 0q0.109375 0 0.15625 0.046875q0.0625 0.046875 0.0625 0.109375q0 0.078125 -0.0625 0.125q-0.046875 0.046875 -0.15625 0.046875l-0.890625 0q-0.109375 0 -0.171875 -0.046875q-0.046875 -0.046875 -0.046875 -0.125q0 -0.0625 0.046875 -0.109375q0.0625 -0.046875 0.171875 -0.046875l0.28125 0l0 -2.71875l-0.28125 0q-0.109375 0 -0.171875 -0.046875q-0.046875 -0.046875 -0.046875 -0.125q0 -0.078125 0.046875 -0.125q0.0625 -0.046875 0.171875 -0.046875l0.609375 0zm7.4257812 3.390625l0 -0.484375q-0.671875 0.609375 -1.453125 0.609375q-0.484375 0 -0.734375 -0.265625q-0.328125 -0.34375 -0.328125 -0.796875l0 -2.109375l-0.4375 0q-0.125 0 -0.171875 -0.046875q-0.046875 -0.046875 -0.046875 -0.125q0 -0.078125 0.046875 -0.125q0.046875 -0.046875 0.171875 -0.046875l0.765625 0l0 2.453125q0 0.328125 0.203125 0.53125q0.203125 0.203125 0.515625 0.203125q0.796875 0 1.46875 -0.734375l0 -2.109375l-0.609375 0q-0.125 0 -0.171875 -0.046875q-0.046875 -0.046875 -0.046875 -0.125q0 -0.078125 0.046875 -0.125q0.046875 -0.046875 0.171875 -0.046875l0.9375 0l0 3.0625l0.265625 0q0.125 0 0.171875 0.046875q0.046875 0.046875 0.046875 0.109375q0 0.078125 -0.046875 0.125q-0.046875 0.046875 -0.171875 0.046875l-0.59375 0zm3.0039062 -3.390625l1.78125 0q0.109375 0 0.15625 0.046875q0.0625 0.046875 0.0625 0.125q0 0.078125 -0.0625 0.125q-0.046875 0.046875 -0.15625 0.046875l-1.78125 0l0 2.171875q0 0.296875 0.21875 0.484375q0.234375 0.1875 0.671875 0.1875q0.328125 0 0.71875 -0.09375q0.390625 -0.109375 0.609375 -0.234375q0.078125 -0.046875 0.125 -0.046875q0.0625 0 0.109375 0.046875q0.046875 0.046875 0.046875 0.125q0 0.046875 -0.046875 0.109375q-0.125 0.125 -0.609375 0.28125q-0.484375 0.140625 -0.921875 0.140625q-0.578125 0 -0.921875 -0.265625q-0.34375 -0.265625 -0.34375 -0.734375l0 -2.171875l-0.59375 0q-0.125 0 -0.171875 -0.046875q-0.046875 -0.046875 -0.046875 -0.125q0 -0.078125 0.046875 -0.125q0.046875 -0.046875 0.171875 -0.046875l0.59375 0l0 -0.96875q0 -0.109375 0.046875 -0.15625q0.046875 -0.0625 0.125 -0.0625q0.078125 0 0.125 0.0625q0.046875 0.046875 0.046875 0.15625l0 0.96875zm4.3945312 -1.515625l0 2.015625q0.3125 -0.328125 0.59375 -0.46875q0.28125 -0.140625 0.640625 -0.140625q0.390625 0 0.65625 0.140625q0.265625 0.125 0.4375 0.40625q0.1875 0.28125 0.1875 0.59375l0 2.03125l0.359375 0q0.125 0 0.171875 0.046875q0.046875 0.046875 0.046875 0.109375q0 0.078125 -0.046875 0.125q-0.046875 0.046875 -0.171875 0.046875l-1.0625 0q-0.125 0 -0.171875 -0.046875q-0.046875 -0.046875 -0.046875 -0.125q0 -0.0625 0.046875 -0.109375q0.046875 -0.046875 0.171875 -0.046875l0.375 0l0 -2.015625q0 -0.359375 -0.265625 -0.59375q-0.25 -0.234375 -0.703125 -0.234375q-0.359375 0 -0.625 0.171875q-0.171875 0.125 -0.59375 0.59375l0 2.078125l0.359375 0q0.125 0 0.171875 0.046875q0.046875 0.046875 0.046875 0.109375q0 0.078125 -0.046875 0.125q-0.046875 0.046875 -0.171875 0.046875l-1.0625 0q-0.125 0 -0.171875 -0.046875q-0.046875 -0.046875 -0.046875 -0.125q0 -0.0625 0.046875 -0.109375q0.046875 -0.046875 0.171875 -0.046875l0.375 0l0 -4.25l-0.453125 0q-0.109375 0 -0.171875 -0.046875q-0.046875 -0.046875 -0.046875 -0.109375q0 -0.078125 0.046875 -0.125q0.0625 -0.046875 0.171875 -0.046875l0.78125 0z" fill-rule="nonzero"/><path fill="#000000" fill-opacity="0.0" d="m198.49869 325.1916l59.874023 0l0 38.771667l-59.874023 0z" fill-rule="evenodd"/><path fill="#595959" d="m222.14078 338.481l0 0.34375q0.421875 -0.453125 0.84375 -0.453125q0.25 0 0.4375 0.140625q0.203125 0.125 0.328125 0.40625q0.21875 -0.28125 0.4375 -0.40625q0.234375 -0.140625 0.453125 -0.140625q0.359375 0 0.5625 0.234375q0.28125 0.296875 0.28125 0.640625l0 2.296875l0.28125 0q0.109375 0 0.15625 0.046875q0.0625 0.046875 0.0625 0.109375q0 0.078125 -0.0625 0.125q-0.046875 0.046875 -0.15625 0.046875l-0.609375 0l0 -2.59375q0 -0.25 -0.15625 -0.40625q-0.140625 -0.171875 -0.34375 -0.171875q-0.1875 0 -0.390625 0.140625q-0.1875 0.125 -0.4375 0.53125l0 2.171875l0.265625 0q0.125 0 0.171875 0.046875q0.046875 0.046875 0.046875 0.109375q0 0.078125 -0.046875 0.125q-0.046875 0.046875 -0.171875 0.046875l-0.609375 0l0 -2.5625q0 -0.265625 -0.15625 -0.4375q-0.140625 -0.171875 -0.34375 -0.171875q-0.171875 0 -0.34375 0.109375q-0.234375 0.171875 -0.5 0.5625l0 2.171875l0.28125 0q0.109375 0 0.15625 0.046875q0.0625 0.046875 0.0625 0.109375q0 0.078125 -0.0625 0.125q-0.046875 0.046875 -0.15625 0.046875l-0.890625 0q-0.109375 0 -0.171875 -0.046875q-0.046875 -0.046875 -0.046875 -0.125q0 -0.0625 0.046875 -0.109375q0.0625 -0.046875 0.171875 -0.046875l0.28125 0l0 -2.71875l-0.28125 0q-0.109375 0 -0.171875 -0.046875q-0.046875 -0.046875 -0.046875 -0.125q0 -0.078125 0.046875 -0.125q0.0625 -0.046875 0.171875 -0.046875l0.609375 0zm7.2382812 3.390625l0 -0.46875q-0.71875 0.59375 -1.53125 0.59375q-0.578125 0 -0.921875 -0.296875q-0.328125 -0.296875 -0.328125 -0.734375q0 -0.46875 0.4375 -0.828125q0.4375 -0.359375 1.28125 -0.359375q0.21875 0 0.484375 0.03125q0.265625 0.03125 0.578125 0.09375l0 -0.53125q0 -0.265625 -0.25 -0.46875q-0.25 -0.203125 -0.75 -0.203125q-0.375 0 -1.078125 0.21875q-0.125 0.046875 -0.15625 0.046875q-0.0625 0 -0.109375 -0.046875q-0.046875 -0.046875 -0.046875 -0.125q0 -0.0625 0.046875 -0.09375q0.046875 -0.0625 0.4375 -0.171875q0.609375 -0.15625 0.921875 -0.15625q0.625 0 0.96875 0.3125q0.34375 0.296875 0.34375 0.6875l0 2.171875l0.4375 0q0.125 0 0.171875 0.046875q0.0625 0.046875 0.0625 0.109375q0 0.078125 -0.0625 0.125q-0.046875 0.046875 -0.171875 0.046875l-0.765625 0zm0 -1.640625q-0.234375 -0.0625 -0.5 -0.09375q-0.25 -0.03125 -0.53125 -0.03125q-0.71875 0 -1.109375 0.3125q-0.3125 0.234375 -0.3125 0.546875q0 0.296875 0.234375 0.5q0.234375 0.203125 0.671875 0.203125q0.4375 0 0.796875 -0.171875q0.359375 -0.171875 0.75 -0.53125l0 -0.734375zm4.0820312 -0.125l1.5 1.4375q0.15625 0 0.1875 0.015625q0.046875 0.015625 0.078125 0.0625q0.03125 0.03125 0.03125 0.078125q0 0.078125 -0.0625 0.125q-0.046875 0.046875 -0.171875 0.046875l-1.046875 0q-0.125 0 -0.171875 -0.046875q-0.046875 -0.046875 -0.046875 -0.125q0 -0.0625 0.046875 -0.109375q0.046875 -0.046875 0.171875 -0.046875l0.546875 0l-1.28125 -1.21875l-1.265625 1.21875l0.546875 0q0.109375 0 0.15625 0.046875q0.0625 0.046875 0.0625 0.109375q0 0.078125 -0.0625 0.125q-0.046875 0.046875 -0.15625 0.046875l-1.078125 0q-0.109375 0 -0.171875 -0.046875q-0.046875 -0.046875 -0.046875 -0.125q0 -0.046875 0.03125 -0.078125q0.03125 -0.046875 0.0625 -0.0625q0.046875 -0.015625 0.1875 -0.015625l1.515625 -1.4375l-1.34375 -1.28125q-0.140625 0 -0.1875 -0.015625q-0.03125 -0.015625 -0.0625 -0.0625q-0.015625 -0.046875 -0.015625 -0.09375q0 -0.078125 0.046875 -0.125q0.046875 -0.046875 0.171875 -0.046875l0.890625 0q0.125 0 0.171875 0.046875q0.046875 0.046875 0.046875 0.125q0 0.078125 -0.046875 0.125q-0.046875 0.046875 -0.171875 0.046875l-0.390625 0l1.109375 1.0625l1.109375 -1.0625l-0.390625 0q-0.109375 0 -0.171875 -0.046875q-0.046875 -0.046875 -0.046875 -0.125q0 -0.078125 0.046875 -0.125q0.046875 -0.046875 0.171875 -0.046875l0.890625 0q0.125 0 0.171875 0.046875q0.046875 0.046875 0.046875 0.125q0 0.046875 -0.03125 0.09375q-0.015625 0.046875 -0.0625 0.0625q-0.03125 0.015625 -0.171875 0.015625l-1.34375 1.28125z" fill-rule="nonzero"/><path fill="#595959" d="m214.97672 351.4716l0 -0.46875q-0.71875 0.59375 -1.53125 0.59375q-0.578125 0 -0.921875 -0.296875q-0.328125 -0.296875 -0.328125 -0.734375q0 -0.46875 0.4375 -0.828125q0.4375 -0.359375 1.28125 -0.359375q0.21875 0 0.484375 0.03125q0.265625 0.03125 0.578125 0.09375l0 -0.53125q0 -0.265625 -0.25 -0.46875q-0.25 -0.203125 -0.75 -0.203125q-0.375 0 -1.078125 0.21875q-0.125 0.046875 -0.15625 0.046875q-0.0625 0 -0.109375 -0.046875q-0.046875 -0.046875 -0.046875 -0.125q0 -0.0625 0.046875 -0.09375q0.046875 -0.0625 0.4375 -0.171875q0.609375 -0.15625 0.921875 -0.15625q0.625 0 0.96875 0.3125q0.34375 0.296875 0.34375 0.6875l0 2.171875l0.4375 0q0.125 0 0.171875 0.046875q0.0625 0.046875 0.0625 0.109375q0 0.078125 -0.0625 0.125q-0.046875 0.046875 -0.171875 0.046875l-0.765625 0zm0 -1.640625q-0.234375 -0.0625 -0.5 -0.09375q-0.25 -0.03125 -0.53125 -0.03125q-0.71875 0 -1.109375 0.3125q-0.3125 0.234375 -0.3125 0.546875q0 0.296875 0.234375 0.5q0.234375 0.203125 0.671875 0.203125q0.4375 0 0.796875 -0.171875q0.359375 -0.171875 0.75 -0.53125l0 -0.734375zm5.3007812 -1.75l0 0.296875l-2.46875 2.765625l2.21875 0l0 -0.453125q0 -0.125 0.046875 -0.171875q0.046875 -0.046875 0.125 -0.046875q0.078125 0 0.125 0.046875q0.046875 0.046875 0.046875 0.171875l-0.015625 0.78125l-3.0 0l0 -0.296875l2.453125 -2.75l-2.046875 0l0 0.4375q0 0.125 -0.046875 0.171875q-0.046875 0.046875 -0.109375 0.046875q-0.078125 0 -0.125 -0.046875q-0.046875 -0.046875 -0.046875 -0.171875l0 -0.78125l2.84375 0zm3.5195312 -1.671875l0 0.84375l-0.484375 0l0 -0.84375l0.484375 0zm0.015625 1.671875l0 3.0625l1.28125 0q0.125 0 0.171875 0.046875q0.0625 0.046875 0.0625 0.109375q0 0.078125 -0.0625 0.125q-0.046875 0.046875 -0.171875 0.046875l-2.90625 0q-0.109375 0 -0.171875 -0.046875q-0.046875 -0.046875 -0.046875 -0.125q0 -0.0625 0.046875 -0.109375q0.0625 -0.046875 0.171875 -0.046875l1.296875 0l0 -2.71875l-0.953125 0q-0.125 0 -0.1875 -0.046875q-0.046875 -0.046875 -0.046875 -0.125q0 -0.078125 0.046875 -0.125q0.0625 -0.046875 0.1875 -0.046875l1.28125 0zm3.1289062 0l0 0.34375q0.421875 -0.453125 0.84375 -0.453125q0.25 0 0.4375 0.140625q0.203125 0.125 0.328125 0.40625q0.21875 -0.28125 0.4375 -0.40625q0.234375 -0.140625 0.453125 -0.140625q0.359375 0 0.5625 0.234375q0.28125 0.296875 0.28125 0.640625l0 2.296875l0.28125 0q0.109375 0 0.15625 0.046875q0.0625 0.046875 0.0625 0.109375q0 0.078125 -0.0625 0.125q-0.046875 0.046875 -0.15625 0.046875l-0.609375 0l0 -2.59375q0 -0.25 -0.15625 -0.40625q-0.140625 -0.171875 -0.34375 -0.171875q-0.1875 0 -0.390625 0.140625q-0.1875 0.125 -0.4375 0.53125l0 2.171875l0.265625 0q0.125 0 0.171875 0.046875q0.046875 0.046875 0.046875 0.109375q0 0.078125 -0.046875 0.125q-0.046875 0.046875 -0.171875 0.046875l-0.609375 0l0 -2.5625q0 -0.265625 -0.15625 -0.4375q-0.140625 -0.171875 -0.34375 -0.171875q-0.171875 0 -0.34375 0.109375q-0.234375 0.171875 -0.5 0.5625l0 2.171875l0.28125 0q0.109375 0 0.15625 0.046875q0.0625 0.046875 0.0625 0.109375q0 0.078125 -0.0625 0.125q-0.046875 0.046875 -0.15625 0.046875l-0.890625 0q-0.109375 0 -0.171875 -0.046875q-0.046875 -0.046875 -0.046875 -0.125q0 -0.0625 0.046875 -0.109375q0.0625 -0.046875 0.171875 -0.046875l0.28125 0l0 -2.71875l-0.28125 0q-0.109375 0 -0.171875 -0.046875q-0.046875 -0.046875 -0.046875 -0.125q0 -0.078125 0.046875 -0.125q0.0625 -0.046875 0.171875 -0.046875l0.609375 0zm7.4257812 3.390625l0 -0.484375q-0.671875 0.609375 -1.453125 0.609375q-0.484375 0 -0.734375 -0.265625q-0.328125 -0.34375 -0.328125 -0.796875l0 -2.109375l-0.4375 0q-0.125 0 -0.171875 -0.046875q-0.046875 -0.046875 -0.046875 -0.125q0 -0.078125 0.046875 -0.125q0.046875 -0.046875 0.171875 -0.046875l0.765625 0l0 2.453125q0 0.328125 0.203125 0.53125q0.203125 0.203125 0.515625 0.203125q0.796875 0 1.46875 -0.734375l0 -2.109375l-0.609375 0q-0.125 0 -0.171875 -0.046875q-0.046875 -0.046875 -0.046875 -0.125q0 -0.078125 0.046875 -0.125q0.046875 -0.046875 0.171875 -0.046875l0.9375 0l0 3.0625l0.265625 0q0.125 0 0.171875 0.046875q0.046875 0.046875 0.046875 0.109375q0 0.078125 -0.046875 0.125q-0.046875 0.046875 -0.171875 0.046875l-0.59375 0zm3.0039062 -3.390625l1.78125 0q0.109375 0 0.15625 0.046875q0.0625 0.046875 0.0625 0.125q0 0.078125 -0.0625 0.125q-0.046875 0.046875 -0.15625 0.046875l-1.78125 0l0 2.171875q0 0.296875 0.21875 0.484375q0.234375 0.1875 0.671875 0.1875q0.328125 0 0.71875 -0.09375q0.390625 -0.109375 0.609375 -0.234375q0.078125 -0.046875 0.125 -0.046875q0.0625 0 0.109375 0.046875q0.046875 0.046875 0.046875 0.125q0 0.046875 -0.046875 0.109375q-0.125 0.125 -0.609375 0.28125q-0.484375 0.140625 -0.921875 0.140625q-0.578125 0 -0.921875 -0.265625q-0.34375 -0.265625 -0.34375 -0.734375l0 -2.171875l-0.59375 0q-0.125 0 -0.171875 -0.046875q-0.046875 -0.046875 -0.046875 -0.125q0 -0.078125 0.046875 -0.125q0.046875 -0.046875 0.171875 -0.046875l0.59375 0l0 -0.96875q0 -0.109375 0.046875 -0.15625q0.046875 -0.0625 0.125 -0.0625q0.078125 0 0.125 0.0625q0.046875 0.046875 0.046875 0.15625l0 0.96875zm4.3945312 -1.515625l0 2.015625q0.3125 -0.328125 0.59375 -0.46875q0.28125 -0.140625 0.640625 -0.140625q0.390625 0 0.65625 0.140625q0.265625 0.125 0.4375 0.40625q0.1875 0.28125 0.1875 0.59375l0 2.03125l0.359375 0q0.125 0 0.171875 0.046875q0.046875 0.046875 0.046875 0.109375q0 0.078125 -0.046875 0.125q-0.046875 0.046875 -0.171875 0.046875l-1.0625 0q-0.125 0 -0.171875 -0.046875q-0.046875 -0.046875 -0.046875 -0.125q0 -0.0625 0.046875 -0.109375q0.046875 -0.046875 0.171875 -0.046875l0.375 0l0 -2.015625q0 -0.359375 -0.265625 -0.59375q-0.25 -0.234375 -0.703125 -0.234375q-0.359375 0 -0.625 0.171875q-0.171875 0.125 -0.59375 0.59375l0 2.078125l0.359375 0q0.125 0 0.171875 0.046875q0.046875 0.046875 0.046875 0.109375q0 0.078125 -0.046875 0.125q-0.046875 0.046875 -0.171875 0.046875l-1.0625 0q-0.125 0 -0.171875 -0.046875q-0.046875 -0.046875 -0.046875 -0.125q0 -0.0625 0.046875 -0.109375q0.046875 -0.046875 0.171875 -0.046875l0.375 0l0 -4.25l-0.453125 0q-0.109375 0 -0.171875 -0.046875q-0.046875 -0.046875 -0.046875 -0.109375q0 -0.078125 0.046875 -0.125q0.0625 -0.046875 0.171875 -0.046875l0.78125 0z" fill-rule="nonzero"/><path fill="#000000" fill-opacity="0.0" d="m251.00262 371.43832l59.874023 0l0 29.070862l-59.874023 0z" fill-rule="evenodd"/><path fill="#595959" d="m268.55292 384.7277l0 0.828125q0.640625 -0.578125 0.953125 -0.734375q0.3125 -0.171875 0.59375 -0.171875q0.28125 0 0.53125 0.203125q0.265625 0.1875 0.265625 0.296875q0 0.078125 -0.0625 0.125q-0.046875 0.046875 -0.109375 0.046875q-0.046875 0 -0.078125 -0.015625q-0.015625 -0.015625 -0.09375 -0.09375q-0.140625 -0.125 -0.25 -0.171875q-0.09375 -0.0625 -0.1875 -0.0625q-0.21875 0 -0.53125 0.171875q-0.296875 0.171875 -1.03125 0.84375l0 1.796875l1.453125 0q0.109375 0 0.15625 0.046875q0.0625 0.046875 0.0625 0.109375q0 0.078125 -0.0625 0.125q-0.046875 0.046875 -0.15625 0.046875l-2.578125 0q-0.125 0 -0.171875 -0.046875q-0.046875 -0.046875 -0.046875 -0.109375q0 -0.078125 0.046875 -0.109375q0.046875 -0.046875 0.171875 -0.046875l0.796875 0l0 -2.734375l-0.609375 0q-0.125 0 -0.171875 -0.046875q-0.046875 -0.046875 -0.046875 -0.125q0 -0.078125 0.046875 -0.125q0.046875 -0.046875 0.171875 -0.046875l0.9375 0zm6.1289062 3.390625l0 -0.46875q-0.71875 0.59375 -1.53125 0.59375q-0.578125 0 -0.921875 -0.296875q-0.328125 -0.296875 -0.328125 -0.734375q0 -0.46875 0.4375 -0.828125q0.4375 -0.359375 1.28125 -0.359375q0.21875 0 0.484375 0.03125q0.265625 0.03125 0.578125 0.09375l0 -0.53125q0 -0.265625 -0.25 -0.46875q-0.25 -0.203125 -0.75 -0.203125q-0.375 0 -1.078125 0.21875q-0.125 0.046875 -0.15625 0.046875q-0.0625 0 -0.109375 -0.046875q-0.046875 -0.046875 -0.046875 -0.125q0 -0.0625 0.046875 -0.09375q0.046875 -0.0625 0.4375 -0.171875q0.609375 -0.15625 0.921875 -0.15625q0.625 0 0.96875 0.3125q0.34375 0.296875 0.34375 0.6875l0 2.171875l0.4375 0q0.125 0 0.171875 0.046875q0.0625 0.046875 0.0625 0.109375q0 0.078125 -0.0625 0.125q-0.046875 0.046875 -0.171875 0.046875l-0.765625 0zm0 -1.640625q-0.234375 -0.0625 -0.5 -0.09375q-0.25 -0.03125 -0.53125 -0.03125q-0.71875 0 -1.109375 0.3125q-0.3125 0.234375 -0.3125 0.546875q0 0.296875 0.234375 0.5q0.234375 0.203125 0.671875 0.203125q0.4375 0 0.796875 -0.171875q0.359375 -0.171875 0.75 -0.53125l0 -0.734375zm5.4726562 -3.265625l0 4.578125l0.4375 0q0.109375 0 0.15625 0.046875q0.0625 0.046875 0.0625 0.109375q0 0.078125 -0.0625 0.125q-0.046875 0.046875 -0.15625 0.046875l-0.78125 0l0 -0.65625q-0.5625 0.78125 -1.4375 0.78125q-0.453125 0 -0.859375 -0.234375q-0.40625 -0.234375 -0.640625 -0.671875q-0.234375 -0.4375 -0.234375 -0.90625q0 -0.46875 0.234375 -0.90625q0.234375 -0.4375 0.640625 -0.671875q0.40625 -0.234375 0.859375 -0.234375q0.859375 0 1.4375 0.78125l0 -1.859375l-0.4375 0q-0.109375 0 -0.171875 -0.046875q-0.046875 -0.046875 -0.046875 -0.109375q0 -0.078125 0.046875 -0.125q0.0625 -0.046875 0.171875 -0.046875l0.78125 0zm-0.34375 3.21875q0 -0.625 -0.421875 -1.046875q-0.421875 -0.4375 -1.0 -0.4375q-0.578125 0 -1.0 0.4375q-0.421875 0.421875 -0.421875 1.046875q0 0.625 0.421875 1.0625q0.421875 0.421875 1.0 0.421875q0.578125 0 1.0 -0.421875q0.421875 -0.4375 0.421875 -1.0625zm3.6914062 -3.375l0 0.84375l-0.484375 0l0 -0.84375l0.484375 0zm0.015625 1.671875l0 3.0625l1.28125 0q0.125 0 0.171875 0.046875q0.0625 0.046875 0.0625 0.109375q0 0.078125 -0.0625 0.125q-0.046875 0.046875 -0.171875 0.046875l-2.90625 0q-0.109375 0 -0.171875 -0.046875q-0.046875 -0.046875 -0.046875 -0.125q0 -0.0625 0.046875 -0.109375q0.0625 -0.046875 0.171875 -0.046875l1.296875 0l0 -2.71875l-0.953125 0q-0.125 0 -0.1875 -0.046875q-0.046875 -0.046875 -0.046875 -0.125q0 -0.078125 0.046875 -0.125q0.0625 -0.046875 0.1875 -0.046875l1.28125 0zm5.7539062 3.390625l0 -0.484375q-0.671875 0.609375 -1.453125 0.609375q-0.484375 0 -0.734375 -0.265625q-0.328125 -0.34375 -0.328125 -0.796875l0 -2.109375l-0.4375 0q-0.125 0 -0.171875 -0.046875q-0.046875 -0.046875 -0.046875 -0.125q0 -0.078125 0.046875 -0.125q0.046875 -0.046875 0.171875 -0.046875l0.765625 0l0 2.453125q0 0.328125 0.203125 0.53125q0.203125 0.203125 0.515625 0.203125q0.796875 0 1.46875 -0.734375l0 -2.109375l-0.609375 0q-0.125 0 -0.171875 -0.046875q-0.046875 -0.046875 -0.046875 -0.125q0 -0.078125 0.046875 -0.125q0.046875 -0.046875 0.171875 -0.046875l0.9375 0l0 3.0625l0.265625 0q0.125 0 0.171875 0.046875q0.046875 0.046875 0.046875 0.109375q0 0.078125 -0.046875 0.125q-0.046875 0.046875 -0.171875 0.046875l-0.59375 0zm4.7539062 -3.171875q0 -0.109375 0.046875 -0.15625q0.046875 -0.0625 0.125 -0.0625q0.0625 0 0.109375 0.0625q0.046875 0.046875 0.046875 0.171875l0 0.5625q0 0.109375 -0.046875 0.171875q-0.046875 0.046875 -0.109375 0.046875q-0.078125 0 -0.125 -0.046875q-0.03125 -0.046875 -0.046875 -0.140625q-0.015625 -0.234375 -0.234375 -0.390625q-0.328125 -0.21875 -0.859375 -0.21875q-0.546875 0 -0.84375 0.21875q-0.234375 0.171875 -0.234375 0.375q0 0.234375 0.265625 0.390625q0.1875 0.109375 0.71875 0.171875q0.6875 0.078125 0.953125 0.171875q0.375 0.140625 0.5625 0.390625q0.1875 0.234375 0.1875 0.515625q0 0.40625 -0.40625 0.734375q-0.40625 0.328125 -1.1875 0.328125q-0.765625 0 -1.265625 -0.390625q0 0.125 -0.015625 0.171875q-0.015625 0.03125 -0.0625 0.0625q-0.03125 0.03125 -0.09375 0.03125q-0.0625 0 -0.109375 -0.046875q-0.046875 -0.0625 -0.046875 -0.171875l0 -0.671875q0 -0.125 0.046875 -0.171875q0.046875 -0.046875 0.109375 -0.046875q0.078125 0 0.125 0.046875q0.046875 0.046875 0.046875 0.125q0 0.1875 0.09375 0.296875q0.140625 0.1875 0.4375 0.3125q0.296875 0.125 0.734375 0.125q0.640625 0 0.953125 -0.234375q0.3125 -0.234375 0.3125 -0.5q0 -0.3125 -0.328125 -0.5q-0.3125 -0.171875 -0.921875 -0.234375q-0.609375 -0.0625 -0.875 -0.15625q-0.265625 -0.109375 -0.421875 -0.3125q-0.140625 -0.203125 -0.140625 -0.4375q0 -0.421875 0.40625 -0.671875q0.421875 -0.25 0.984375 -0.25q0.6875 0 1.109375 0.328125z" fill-rule="nonzero"/><path fill="#000000" fill-opacity="0.0" d="m292.6404 354.90027l16.503937 62.015747" fill-rule="evenodd"/><path stroke="#d9d9d9" stroke-width="1.0" stroke-linejoin="round" stroke-linecap="butt" d="m293.5218 358.21207l14.741211 55.39215" fill-rule="evenodd"/><path fill="#d9d9d9" stroke="#d9d9d9" stroke-width="1.0" stroke-linecap="butt" d="m293.5218 358.21207l1.375946 0.7975464l-1.8813477 -2.6966248l-0.29214478 3.275055z" fill-rule="evenodd"/><path fill="#d9d9d9" stroke="#d9d9d9" stroke-width="1.0" stroke-linecap="butt" d="m308.263 413.6042l-1.3759766 -0.7975464l1.8813782 2.6966248l0.29214478 -3.275055z" fill-rule="evenodd"/><path fill="#000000" fill-opacity="0.0" d="m137.4462 437.4672l157.70078 -84.31497" fill-rule="evenodd"/><path stroke="#595959" stroke-width="1.0" stroke-linejoin="round" stroke-linecap="butt" stroke-dasharray="1.0,3.0" d="m137.4462 437.4672l157.70078 -84.31497" fill-rule="evenodd"/><path fill="#ffffff" d="m111.419945 436.80316l0 0c0 -7.0448914 10.970787 -12.75592 24.503944 -12.75592l0 0c13.533142 0 24.503937 5.711029 24.503937 12.75592l0 0c0 7.0448914 -10.970795 12.75589 -24.503937 12.75589l0 0c-13.533157 0 -24.503944 -5.7109985 -24.503944 -12.75589z" fill-rule="evenodd"/><path stroke="#cccccc" stroke-width="1.0" stroke-linejoin="round" stroke-linecap="butt" d="m111.419945 436.80316l0 0c0 -7.0448914 10.970787 -12.75592 24.503944 -12.75592l0 0c13.533142 0 24.503937 5.711029 24.503937 12.75592l0 0c0 7.0448914 -10.970795 12.75589 -24.503937 12.75589l0 0c-13.533157 0 -24.503944 -5.7109985 -24.503944 -12.75589z" fill-rule="evenodd"/><path fill="#595959" d="m125.54986 437.96503l0 2.125l1.546875 0q0.15625 0 0.21875 0.0625q0.078125 0.0625 0.078125 0.171875q0 0.09375 -0.078125 0.15625q-0.0625 0.0625 -0.21875 0.0625l-2.609375 0q-0.171875 0 -0.234375 -0.0625q-0.0625 -0.0625 -0.0625 -0.15625q0 -0.109375 0.0625 -0.171875q0.0625 -0.0625 0.234375 -0.0625l0.609375 0l0 -5.375l-0.609375 0q-0.171875 0 -0.234375 -0.0625q-0.0625 -0.0625 -0.0625 -0.171875q0 -0.09375 0.0625 -0.15625q0.0625 -0.0625 0.234375 -0.0625l2.625 0q0.9218826 0 1.5000076 0.546875q0.59375 0.546875 0.59375 1.28125q0 0.4375 -0.1875 0.796875q-0.1875 0.34375 -0.453125 0.53125q-0.40625 0.3125 -0.8437576 0.4375q-0.3125 0.109375 -0.765625 0.109375l-1.40625 0zm0 -0.453125l1.4375 0q0.5 0 0.9375 -0.21875q0.43750763 -0.21875 0.6250076 -0.546875q0.203125 -0.328125 0.203125 -0.65625q0 -0.53125 -0.453125 -0.953125q-0.45313263 -0.421875 -1.1562576 -0.421875l-1.59375 0l0 2.796875zm10.101082 0.71875q0 1.03125 -0.75 1.765625q-0.734375 0.71875 -1.78125 0.71875q-1.046875 0 -1.78125 -0.734375q-0.734375 -0.734375 -0.734375 -1.75q0 -1.03125 0.734375 -1.765625q0.734375 -0.734375 1.78125 -0.734375q1.046875 0 1.78125 0.734375q0.75 0.71875 0.75 1.765625zm-0.46875 0q0 -0.84375 -0.609375 -1.4375q-0.59375 -0.609375 -1.453125 -0.609375q-0.859375 0 -1.46875 0.609375q-0.59375 0.59375 -0.59375 1.4375q0 0.828125 0.59375 1.4375q0.609375 0.59375 1.46875 0.59375q0.859375 0 1.453125 -0.59375q0.609375 -0.59375 0.609375 -1.4375zm6.038574 -2.046875q0 -0.15625 0.0625 -0.21875q0.0625 -0.078125 0.15625 -0.078125q0.109375 0 0.171875 0.078125q0.0625 0.0625 0.0625 0.234375l0 0.765625q0 0.171875 -0.0625 0.25q-0.0625 0.0625 -0.171875 0.0625q-0.09375 0 -0.15625 -0.0625q-0.0625 -0.0625 -0.0625 -0.203125q-0.03125 -0.3125 -0.34375 -0.53125q-0.4375 -0.296875 -1.15625 -0.296875q-0.765625 0 -1.1875 0.3125q-0.3125 0.234375 -0.3125 0.515625q0 0.3125 0.375 0.53125q0.265625 0.15625 0.984375 0.234375q0.9375 0.09375 1.296875 0.234375q0.53125 0.1875 0.78125 0.515625q0.25 0.328125 0.25 0.71875q0 0.578125 -0.546875 1.03125q-0.546875 0.4375 -1.625 0.4375q-1.0625 0 -1.75 -0.53125q0 0.171875 -0.03125 0.234375q-0.015625 0.046875 -0.078125 0.09375q-0.046875 0.03125 -0.109375 0.03125q-0.109375 0 -0.171875 -0.0625q-0.0625 -0.078125 -0.0625 -0.234375l0 -0.9375q0 -0.15625 0.0625 -0.21875q0.0625 -0.078125 0.171875 -0.078125q0.09375 0 0.15625 0.078125q0.0625 0.0625 0.0625 0.171875q0 0.25 0.125 0.40625q0.1875 0.265625 0.59375 0.4375q0.421875 0.15625 1.015625 0.15625q0.875 0 1.296875 -0.3125q0.4375 -0.328125 0.4375 -0.703125q0 -0.421875 -0.421875 -0.671875q-0.453125 -0.25 -1.296875 -0.328125q-0.828125 -0.09375 -1.203125 -0.234375q-0.359375 -0.140625 -0.5625 -0.421875q-0.203125 -0.28125 -0.203125 -0.59375q0 -0.578125 0.5625 -0.921875q0.578125 -0.34375 1.359375 -0.34375q0.9375 0 1.53125 0.453125zm7.538574 2.140625l-4.59375 0q0.125 0.875 0.734375 1.40625q0.625 0.53125 1.53125 0.53125q0.5 0 1.046875 -0.15625q0.5625 -0.171875 0.90625 -0.4375q0.109375 -0.09375 0.171875 -0.09375q0.09375 0 0.15625 0.078125q0.0625 0.0625 0.0625 0.15625q0 0.09375 -0.078125 0.171875q-0.265625 0.265625 -0.921875 0.5q-0.65625 0.234375 -1.34375 0.234375q-1.171875 0 -1.953125 -0.75q-0.765625 -0.765625 -0.765625 -1.84375q0 -0.984375 0.71875 -1.6875q0.734375 -0.703125 1.8125 -0.703125q1.109375 0 1.8125 0.71875q0.71875 0.71875 0.703125 1.875zm-0.453125 -0.453125q-0.125 -0.75 -0.703125 -1.21875q-0.578125 -0.46875 -1.359375 -0.46875q-0.796875 0 -1.359375 0.46875q-0.5625 0.453125 -0.703125 1.21875l4.125 0z" fill-rule="nonzero"/></g></svg>