<?xml version="1.0" encoding="UTF-8" standalone="no"?>
<!DOCTYPE svg PUBLIC "-//W3C//DTD SVG 1.1//EN" "http://www.w3.org/Graphics/SVG/1.1/DTD/svg11.dtd">
<svg width="100%" height="100%" viewBox="0 0 8000 4071" version="1.1" xmlns="http://www.w3.org/2000/svg" xmlns:xlink="http://www.w3.org/1999/xlink" xml:space="preserve" xmlns:serif="http://www.serif.com/" style="fill-rule:evenodd;clip-rule:evenodd;stroke-linejoin:round;stroke-miterlimit:2;">
    <g id="OGC-2D-Lockup-w--Trademark" serif:id="OGC 2D Lockup w/ Trademark" transform="matrix(20.0651,0,0,20.0651,-1435.09,-1024.14)">
        <g id="Open-Geospatial-Consorium-w--Trademark" serif:id="Open Geospatial Consorium w/ Trademark">
            <g id="Trademark">
                <g transform="matrix(1,0,0,1,431.828,193.432)">
                    <path d="M0,-0.095L0.433,-0.095C0.652,-0.095 0.792,-0.23 0.792,-0.419C0.792,-0.606 0.652,-0.743 0.433,-0.743L0,-0.743L0,-0.095ZM0.381,0.214L0,0.214L0,0.957L-0.33,0.957L-0.33,-1.052L0.452,-1.052C0.84,-1.052 1.128,-0.787 1.128,-0.416C1.128,-0.142 0.965,0.076 0.719,0.167L1.183,0.957L0.813,0.957L0.381,0.214Z" style="fill:rgb(0,177,255);fill-rule:nonzero;"/>
                </g>
                <g transform="matrix(1,0,0,1,431.897,193.501)">
                    <path d="M0,-0.233L0.364,-0.233C0.541,-0.233 0.655,-0.333 0.655,-0.488C0.655,-0.641 0.538,-0.744 0.364,-0.744L0,-0.744L0,-0.233ZM0.364,-0.096L-0.137,-0.096L-0.137,-0.881L0.364,-0.881C0.616,-0.881 0.792,-0.72 0.792,-0.488C0.792,-0.257 0.616,-0.096 0.364,-0.096M0.784,0.819L0.994,0.819L0.55,0.062L0.626,0.034C0.851,-0.05 0.99,-0.249 0.99,-0.486C0.99,-0.814 0.735,-1.053 0.384,-1.053L-0.33,-1.053L-0.33,0.819L-0.137,0.819L-0.137,0.076L0.352,0.076L0.784,0.819ZM1.234,0.957L0.705,0.957L0.273,0.213L0,0.213L0,0.957L-0.467,0.957L-0.467,-1.19L0.384,-1.19C0.815,-1.19 1.128,-0.894 1.128,-0.486C1.128,-0.217 0.985,0.012 0.749,0.13L1.234,0.957Z" style="fill:rgb(0,177,255);fill-rule:nonzero;"/>
                </g>
                <g transform="matrix(1,0,0,1,432.136,195.121)">
                    <path d="M0,-3.378C-0.931,-3.378 -1.689,-2.62 -1.689,-1.689C-1.689,-0.758 -0.931,-0 0,-0C0.931,-0 1.689,-0.758 1.689,-1.689C1.689,-2.62 0.931,-3.378 0,-3.378M0,0.412C-1.159,0.412 -2.101,-0.53 -2.101,-1.689C-2.101,-2.848 -1.159,-3.79 0,-3.79C1.159,-3.79 2.101,-2.848 2.101,-1.689C2.101,-0.53 1.159,0.412 0,0.412" style="fill:rgb(0,177,255);fill-rule:nonzero;"/>
                </g>
            </g>
            <g transform="matrix(1,0,0,1,262.127,122.536)">
                <path d="M0,0C0,-4.624 -3.44,-8.082 -8.059,-8.082C-12.677,-8.082 -16.135,-4.591 -16.135,0C-16.135,4.591 -12.677,8.082 -8.059,8.082C-3.44,8.082 0,4.623 0,0M-8.059,11.618C-14.86,11.618 -19.874,6.632 -19.874,0C-19.874,-6.632 -14.86,-11.619 -8.059,-11.619C-1.266,-11.619 3.739,-6.641 3.739,0C3.739,6.642 -1.266,11.619 -8.059,11.619L-8.059,11.618Z" style="fill:rgb(0,177,255);fill-rule:nonzero;"/>
            </g>
            <g transform="matrix(1,0,0,1,284.283,130.869)">
                <path d="M0,-5.773C0,-9.03 -2.38,-11.441 -5.637,-11.441C-8.893,-11.441 -11.296,-9.007 -11.296,-5.773C-11.296,-2.539 -8.893,-0.105 -5.637,-0.105C-2.38,-0.105 0,-2.516 0,-5.773M-5.358,-14.832C-0.187,-14.832 3.593,-10.974 3.593,-5.772C3.593,-0.594 -0.187,3.296 -5.358,3.296C-7.594,3.296 -9.581,2.521 -11.094,1.204L-11.094,9.059L-14.645,9.059L-14.645,-14.411L-12.253,-14.411L-11.584,-12.29C-10.022,-13.882 -7.845,-14.832 -5.358,-14.832Z" style="fill:rgb(0,177,255);fill-rule:nonzero;"/>
            </g>
            <g transform="matrix(1,0,0,1,294.085,126.774)">
                <path d="M0,-3.357L10.447,-3.357C9.81,-5.981 7.832,-7.531 5.2,-7.531C2.528,-7.531 0.582,-5.919 0,-3.357M14.008,-1.638C14.008,-1.249 13.976,-0.86 13.935,-0.471L-0.088,-0.471C0.355,2.329 2.371,4.05 5.2,4.05C7.264,4.05 8.936,3.096 9.849,1.52L13.588,1.52C12.213,5.168 9.058,7.381 5.2,7.381C0.149,7.381 -3.677,3.482 -3.677,-1.678C-3.677,-6.848 0.14,-10.738 5.2,-10.738C10.488,-10.738 14.009,-6.665 14.009,-1.638L14.008,-1.638Z" style="fill:rgb(0,177,255);fill-rule:nonzero;"/>
            </g>
            <g transform="matrix(1,0,0,1,321.009,133.734)">
                <path d="M0,-17.669C4.04,-17.669 6.562,-14.657 6.562,-10.402L6.562,0.001L3.011,0.001L3.011,-9.68C3.011,-12.818 1.646,-14.485 -0.953,-14.485C-3.666,-14.485 -5.593,-12.302 -5.593,-9.249L-5.593,0.001L-9.145,0.001L-9.145,-17.276L-6.669,-17.276L-5.979,-14.866C-4.671,-16.608 -2.538,-17.67 0,-17.67L0,-17.669Z" style="fill:rgb(0,177,255);fill-rule:nonzero;"/>
            </g>
            <g transform="matrix(1,0,0,1,265.03,153.602)">
                <path d="M0,-0.372C-0.091,6.494 -4.726,11.422 -11.304,11.422C-17.895,11.422 -22.768,6.508 -22.768,-0.188C-22.768,-6.861 -17.941,-11.794 -11.377,-11.794C-5.914,-11.794 -1.344,-8.356 -0.333,-3.483L-4.123,-3.483C-5.082,-6.361 -7.928,-8.238 -11.304,-8.238C-15.831,-8.238 -19.029,-4.917 -19.029,-0.188C-19.029,4.567 -15.918,7.866 -11.304,7.866C-7.729,7.866 -4.823,5.847 -3.986,2.802L-11.97,2.802L-11.97,-0.373L0,-0.372Z" style="fill:rgb(0,177,255);fill-rule:nonzero;"/>
            </g>
            <g transform="matrix(1,0,0,1,271.307,157.643)">
                <path d="M0,-3.357L10.447,-3.357C9.81,-5.981 7.832,-7.531 5.2,-7.531C2.528,-7.531 0.582,-5.919 0,-3.357M14.008,-1.638C14.008,-1.249 13.976,-0.86 13.935,-0.471L-0.088,-0.471C0.355,2.329 2.371,4.05 5.2,4.05C7.264,4.05 8.935,3.096 9.849,1.52L13.588,1.52C12.213,5.168 9.058,7.381 5.2,7.381C0.149,7.381 -3.677,3.482 -3.677,-1.678C-3.677,-6.848 0.14,-10.738 5.2,-10.738C10.488,-10.738 14.009,-6.665 14.009,-1.638L14.008,-1.638Z" style="fill:rgb(0,177,255);fill-rule:nonzero;"/>
            </g>
            <g transform="matrix(1,0,0,1,302.677,155.965)">
                <path d="M0,-0.001C0,-3.308 -2.352,-5.669 -5.622,-5.669C-8.892,-5.669 -11.244,-3.308 -11.244,-0.001C-11.244,3.306 -8.892,5.667 -5.622,5.667C-2.352,5.667 0,3.306 0,-0.001M-5.622,9.058C-10.906,9.058 -14.86,5.192 -14.86,-0.001C-14.86,-5.225 -10.906,-9.06 -5.622,-9.06C-0.348,-9.06 3.615,-5.202 3.615,-0C3.615,5.192 -0.348,9.059 -5.622,9.059L-5.622,9.058Z" style="fill:rgb(0,177,255);fill-rule:nonzero;"/>
            </g>
            <g transform="matrix(1,0,0,1,308.767,152.812)">
                <path d="M0,6.305L3.469,6.305C3.56,8.132 5.094,9.087 7.177,9.087C9.085,9.087 10.551,8.279 10.551,6.835C10.551,5.196 8.697,4.821 6.582,4.465C3.702,3.972 0.311,3.318 0.311,-0.686C0.311,-3.786 2.99,-5.907 7.008,-5.907C11.026,-5.907 13.627,-3.722 13.696,-0.371L10.332,-0.371C10.264,-2.015 9.012,-2.897 6.925,-2.897C4.962,-2.897 3.747,-2.061 3.747,-0.801C3.747,0.724 5.51,1.026 7.594,1.368C10.514,1.857 14.061,2.42 14.061,6.68C14.061,10.035 11.263,12.212 7.053,12.212C2.852,12.212 0.091,9.889 0,6.305" style="fill:rgb(0,177,255);fill-rule:nonzero;"/>
            </g>
            <g transform="matrix(1,0,0,1,341.289,161.737)">
                <path d="M0,-5.773C0,-9.03 -2.38,-11.441 -5.637,-11.441C-8.893,-11.441 -11.296,-9.007 -11.296,-5.773C-11.296,-2.539 -8.893,-0.105 -5.637,-0.105C-2.38,-0.105 0,-2.516 0,-5.773M-5.358,-14.832C-0.187,-14.832 3.593,-10.974 3.593,-5.772C3.593,-0.594 -0.187,3.296 -5.358,3.296C-7.594,3.296 -9.581,2.521 -11.094,1.204L-11.094,9.059L-14.645,9.059L-14.645,-14.411L-12.253,-14.411L-11.584,-12.29C-10.022,-13.882 -7.845,-14.832 -5.358,-14.832Z" style="fill:rgb(0,177,255);fill-rule:nonzero;"/>
            </g>
            <g transform="matrix(1,0,0,1,362.326,155.974)">
                <path d="M0,-0.019C0,-3.276 -2.38,-5.687 -5.637,-5.687C-8.893,-5.687 -11.296,-3.253 -11.296,-0.019C-11.296,3.215 -8.893,5.65 -5.637,5.65C-2.38,5.65 0,3.238 0,-0.019M3.56,-8.657L3.56,8.62L0.696,8.62L0.35,6.519C-1.215,8.102 -3.398,9.05 -5.916,9.05C-11.063,9.05 -14.911,5.16 -14.911,-0.019C-14.911,-5.211 -11.063,-9.069 -5.916,-9.069C-3.369,-9.069 -1.165,-8.107 0.404,-6.497L0.819,-8.657L3.56,-8.657Z" style="fill:rgb(0,177,255);fill-rule:nonzero;"/>
            </g>
            <g transform="matrix(1,0,0,1,380.621,146.519)">
                <path d="M0,14.858L0,18.084L-2.64,18.084C-6.425,18.084 -8.76,15.749 -8.76,11.932L-8.76,3.849L-11.85,3.849L-11.85,3.162L-5.841,-3.226L-5.236,-3.226L-5.236,0.807L-0.096,0.807L-0.096,3.849L-5.209,3.849L-5.209,11.652C-5.209,13.711 -4.062,14.858 -1.97,14.858L0,14.858Z" style="fill:rgb(0,177,255);fill-rule:nonzero;"/>
            </g>
            <g transform="matrix(1,0,0,1,0,-774.412)">
                <path d="M384.067,921.738L387.619,921.738L387.619,939.015L384.067,939.015L384.067,921.738ZM384.007,915.397L387.677,915.397L387.677,919.06L384.007,919.06L384.007,915.397Z" style="fill:rgb(0,177,255);fill-rule:nonzero;"/>
            </g>
            <g transform="matrix(1,0,0,1,406.313,155.974)">
                <path d="M0,-0.019C0,-3.276 -2.38,-5.687 -5.637,-5.687C-8.893,-5.687 -11.296,-3.253 -11.296,-0.019C-11.296,3.215 -8.893,5.65 -5.637,5.65C-2.38,5.65 0,3.238 0,-0.019M3.56,-8.657L3.56,8.62L0.696,8.62L0.35,6.519C-1.215,8.102 -3.398,9.05 -5.916,9.05C-11.063,9.05 -14.911,5.16 -14.911,-0.019C-14.911,-5.211 -11.063,-9.069 -5.916,-9.069C-3.369,-9.069 -1.165,-8.107 0.404,-6.497L0.819,-8.657L3.56,-8.657Z" style="fill:rgb(0,177,255);fill-rule:nonzero;"/>
            </g>
            <g transform="matrix(1,0,0,1,0,-774.264)">
                <rect x="414.937" y="915.397" width="3.552" height="23.47" style="fill:rgb(0,177,255);"/>
            </g>
            <g transform="matrix(1,0,0,1,242.262,184.264)">
                <path d="M0,0.018C0,-6.682 4.886,-11.587 11.514,-11.587C16.812,-11.587 21.059,-8.286 22.233,-3.243L18.512,-3.243C17.443,-6.226 14.83,-8.031 11.514,-8.031C7.028,-8.031 3.739,-4.655 3.739,0.019C3.739,4.692 7.028,8.049 11.514,8.049C14.935,8.049 17.58,6.117 18.59,2.942L22.319,2.942C21.155,8.208 16.908,11.605 11.514,11.605C4.886,11.605 0,6.7 0,0.018" style="fill:rgb(0,177,255);fill-rule:nonzero;"/>
            </g>
            <g transform="matrix(1,0,0,1,281.723,186.833)">
                <path d="M0,-0.001C0,-3.308 -2.352,-5.669 -5.622,-5.669C-8.892,-5.669 -11.244,-3.308 -11.244,-0.001C-11.244,3.306 -8.892,5.667 -5.622,5.667C-2.352,5.667 0,3.306 0,-0.001M-5.622,9.058C-10.906,9.058 -14.86,5.192 -14.86,-0.001C-14.86,-5.225 -10.906,-9.06 -5.622,-9.06C-0.348,-9.06 3.615,-5.202 3.615,-0C3.615,5.192 -0.348,9.059 -5.622,9.059L-5.622,9.058Z" style="fill:rgb(0,177,255);fill-rule:nonzero;"/>
            </g>
            <g transform="matrix(1,0,0,1,298.263,195.471)">
                <path d="M0,-17.669C4.04,-17.669 6.562,-14.657 6.562,-10.402L6.562,0.001L3.011,0.001L3.011,-9.68C3.011,-12.818 1.646,-14.485 -0.953,-14.485C-3.666,-14.485 -5.593,-12.302 -5.593,-9.249L-5.593,0.001L-9.145,0.001L-9.145,-17.276L-6.669,-17.276L-5.979,-14.866C-4.671,-16.608 -2.538,-17.67 0,-17.67L0,-17.669Z" style="fill:rgb(0,177,255);fill-rule:nonzero;"/>
            </g>
            <g transform="matrix(1,0,0,1,308.351,183.68)">
                <path d="M0,6.306L3.469,6.306C3.56,8.133 5.095,9.088 7.177,9.088C9.085,9.088 10.551,8.28 10.551,6.836C10.551,5.197 8.697,4.822 6.581,4.466C3.702,3.973 0.311,3.319 0.311,-0.685C0.311,-3.785 2.99,-5.907 7.008,-5.907C11.026,-5.907 13.627,-3.721 13.696,-0.37L10.332,-0.37C10.264,-2.015 9.012,-2.896 6.925,-2.896C4.962,-2.896 3.747,-2.06 3.747,-0.8C3.747,0.725 5.51,1.027 7.594,1.369C10.514,1.858 14.061,2.421 14.061,6.681C14.061,10.036 11.263,12.213 7.053,12.213C2.852,12.213 0.091,9.89 0,6.306" style="fill:rgb(0,177,255);fill-rule:nonzero;"/>
            </g>
            <g transform="matrix(1,0,0,1,339.818,186.833)">
                <path d="M0,-0.001C0,-3.308 -2.352,-5.669 -5.622,-5.669C-8.892,-5.669 -11.244,-3.308 -11.244,-0.001C-11.244,3.306 -8.892,5.667 -5.622,5.667C-2.352,5.667 0,3.306 0,-0.001M-5.622,9.058C-10.906,9.058 -14.86,5.192 -14.86,-0.001C-14.86,-5.225 -10.906,-9.06 -5.622,-9.06C-0.347,-9.06 3.615,-5.202 3.615,-0C3.615,5.192 -0.347,9.059 -5.622,9.059L-5.622,9.058Z" style="fill:rgb(0,177,255);fill-rule:nonzero;"/>
            </g>
            <g transform="matrix(1,0,0,1,357.043,195.471)">
                <path d="M0,-17.373L0,-14.018L-1.874,-14.018C-4.812,-14.018 -6.278,-12.343 -6.278,-9.213L-6.278,0L-9.829,0L-9.829,-17.277L-7.427,-17.277L-6.826,-14.919C-5.59,-16.557 -3.895,-17.373 -1.536,-17.373L0,-17.373Z" style="fill:rgb(0,177,255);fill-rule:nonzero;"/>
            </g>
            <g transform="matrix(1,0,0,1,369.52,177.387)">
                <path d="M0,14.858L0,18.084L-2.64,18.084C-6.425,18.084 -8.76,15.749 -8.76,11.932L-8.76,3.849L-11.85,3.849L-11.85,3.162L-5.841,-3.226L-5.236,-3.226L-5.236,0.807L-0.096,0.807L-0.096,3.849L-5.209,3.849L-5.209,11.652C-5.209,13.711 -4.062,14.858 -1.97,14.858L0,14.858Z" style="fill:rgb(0,177,255);fill-rule:nonzero;"/>
            </g>
            <g transform="matrix(1,0,0,1,0,-712.674)">
                <path d="M372.966,890.869L376.518,890.869L376.518,908.146L372.966,908.146L372.966,890.869ZM372.906,884.528L376.576,884.528L376.576,888.191L372.906,888.191L372.906,884.528Z" style="fill:rgb(0,177,255);fill-rule:nonzero;"/>
            </g>
            <g transform="matrix(1,0,0,1,381.301,185.91)">
                <path d="M0,2.266L0,-7.716L3.552,-7.716L3.552,1.768C3.552,4.769 5.191,6.591 7.858,6.591C10.548,6.591 12.156,4.737 12.156,1.768L12.156,-7.716L15.707,-7.716L15.707,2.266C15.707,6.915 12.626,9.982 7.858,9.982C3.113,9.982 0,6.915 0,2.266" style="fill:rgb(0,177,255);fill-rule:nonzero;"/>
            </g>
            <g transform="matrix(1,0,0,1,421.106,195.471)">
                <path d="M0,-17.67C3.643,-17.67 6.101,-14.9 6.101,-10.987L6.101,0L2.55,0L2.55,-10.114C2.55,-12.896 1.34,-14.485 -0.811,-14.485C-3.1,-14.485 -4.862,-12.389 -4.862,-9.446L-4.862,0L-8.331,0L-8.331,-10.114C-8.331,-12.896 -9.532,-14.485 -11.696,-14.485C-13.994,-14.485 -15.766,-12.389 -15.766,-9.446L-15.766,0L-19.317,0L-19.317,-17.277L-16.801,-17.277L-16.19,-15.045C-14.893,-16.665 -12.921,-17.67 -10.822,-17.67C-8.48,-17.67 -6.624,-16.519 -5.639,-14.645C-4.381,-16.503 -2.281,-17.67 -0.001,-17.67L0,-17.67Z" style="fill:rgb(0,177,255);fill-rule:nonzero;"/>
            </g>
        </g>
        <g id="Cube">
            <g transform="matrix(1,0,0,1,156.217,161.569)">
                <path d="M0,14.653L0.001,43.983L-42.312,19.554L-42.313,-29.33L0,-4.901L0,4.875L-8.446,0.001L-12.679,-2.444L-33.846,-14.665L-33.846,14.665L-8.446,29.331L-8.446,19.554L-21.146,12.221L-21.145,7.333L-21.146,7.333L-21.146,2.445L0,14.653Z" style="fill:rgb(0,177,255);fill-rule:nonzero;"/>
            </g>
            <g transform="matrix(1,0,0,1,160.455,110.261)">
                <path d="M0,29.33L-25.403,14.665L0,-0.001L25.399,14.665L21.167,17.109L0,29.33ZM-0.001,-9.777L-42.336,14.665L-0.001,39.107L42.333,14.665L-0.001,-9.777Z" style="fill:rgb(0,177,255);fill-rule:nonzero;"/>
            </g>
            <g transform="matrix(1,0,0,1,181.66,181.239)">
                <path d="M0,-24.688L8.468,-29.576L16.934,-34.465L16.935,-24.688L25.379,-29.563L25.379,-49.007L-16.933,-24.578L-16.933,-14.912L-16.932,-14.912L-16.933,-11.994L-16.932,24.196L-16.954,24.183L-16.954,24.319L25.379,-0.123L25.379,-19.788L16.935,-14.911L16.935,-5.135L-8.466,9.53L-8.465,-19.799L0,-24.688Z" style="fill:rgb(0,177,255);fill-rule:nonzero;"/>
            </g>
        </g>
    </g>
</svg>